<?xml version="1.0" encoding="UTF-8" standalone="no"?>
<!-- Created with Inkscape (http://www.inkscape.org/) -->
<svg
   xmlns:dc="http://purl.org/dc/elements/1.1/"
   xmlns:cc="http://creativecommons.org/ns#"
   xmlns:rdf="http://www.w3.org/1999/02/22-rdf-syntax-ns#"
   xmlns:svg="http://www.w3.org/2000/svg"
   xmlns="http://www.w3.org/2000/svg"
   xmlns:sodipodi="http://sodipodi.sourceforge.net/DTD/sodipodi-0.dtd"
   xmlns:inkscape="http://www.inkscape.org/namespaces/inkscape"
   width="399.8006"
   height="351.37137"
   id="svg5321"
   version="1.1"
   inkscape:version="0.46"
   sodipodi:docname="Denmark_road_sign_A12.1.svg"
   sodipodi:version="0.32"
   inkscape:output_extension="org.inkscape.output.svg.inkscape">
  <defs
     id="defs5323">
    <inkscape:perspective
       sodipodi:type="inkscape:persp3d"
       inkscape:vp_x="0 : 526.18109 : 1"
       inkscape:vp_y="0 : 1000 : 0"
       inkscape:vp_z="744.09448 : 526.18109 : 1"
       inkscape:persp3d-origin="372.04724 : 350.78739 : 1"
       id="perspective5329" />
    <inkscape:perspective
       id="perspective5339"
       inkscape:persp3d-origin="0.5 : 0.33333333 : 1"
       inkscape:vp_z="1 : 0.5 : 1"
       inkscape:vp_y="0 : 1000 : 0"
       inkscape:vp_x="0 : 0.5 : 1"
       sodipodi:type="inkscape:persp3d" />
    <clipPath
       clipPathUnits="userSpaceOnUse"
       id="clipPath4202">
      <path
         d="m 20.045,731.714 42.114,0 0,37.012 -42.114,0 0,-37.012 z"
         id="path4204" />
    </clipPath>
    <inkscape:perspective
       id="perspective5396"
       inkscape:persp3d-origin="425 : 140 : 1"
       inkscape:vp_z="850 : 210 : 1"
       inkscape:vp_y="0 : 1000 : 0"
       inkscape:vp_x="0 : 210 : 1"
       sodipodi:type="inkscape:persp3d" />
  </defs>
  <sodipodi:namedview
     id="base"
     pagecolor="#ffffff"
     bordercolor="#666666"
     borderopacity="1.0"
     inkscape:pageopacity="0.0"
     inkscape:pageshadow="2"
     inkscape:zoom="0.83535156"
     inkscape:cx="565.28609"
     inkscape:cy="38.297257"
     inkscape:document-units="px"
     inkscape:current-layer="layer1"
     showgrid="false"
     inkscape:window-width="1024"
     inkscape:window-height="719"
     inkscape:window-x="0"
     inkscape:window-y="22"
     inkscape:window-maximized="1" />
  <metadata
     id="metadata5326">
    <rdf:RDF>
      <cc:Work
         rdf:about="">
        <dc:format>image/svg+xml</dc:format>
        <dc:type
           rdf:resource="http://purl.org/dc/dcmitype/StillImage" />
        <dc:title />
      </cc:Work>
    </rdf:RDF>
  </metadata>
  <g
     inkscape:label="Livello 1"
     inkscape:groupmode="layer"
     id="layer1"
     transform="translate(190.28609,-157.71711)">
    <g
       transform="matrix(9.4934957,0,0,-9.4934957,-380.58356,7455.6141)"
       id="g4198">
      <g
         id="g4200"
         clip-path="url(#clipPath4202)">
        <g
           id="g4206"
           transform="translate(20.3006,732.6832)">
          <path
             d="M 0,0 C -0.359,0.574 -0.322,1.327 0,1.865 L 19.152,35.075 C 19.51,35.648 20.12,36.043 20.801,36.043 C 21.482,36.043 22.092,35.648 22.415,35.11 L 41.602,1.901 C 41.925,1.327 41.96,0.574 41.602,0 C 41.279,-0.61 40.634,-0.969 39.988,-0.969 L 1.614,-0.969 C 0.968,-0.969 0.322,-0.61 0,0"
             style="fill:#ffffff;fill-opacity:1;fill-rule:nonzero;stroke:none"
             id="path4208" />
        </g>
        <g
           id="g4210"
           transform="translate(20.3006,732.6832)">
          <path
             d="M 0,0 C -0.359,0.574 -0.322,1.327 0,1.865 L 19.152,35.075 C 19.51,35.648 20.12,36.043 20.801,36.043 C 21.482,36.043 22.092,35.648 22.415,35.11 L 41.602,1.901 C 41.925,1.327 41.96,0.574 41.602,0 C 41.279,-0.61 40.634,-0.969 39.988,-0.969 L 1.614,-0.969 C 0.968,-0.969 0.322,-0.61 0,0 M 35.47,3.551 L 20.801,28.942 L 6.133,3.551 L 35.47,3.551 L 35.47,3.551 z"
             style="fill:#ef3e42;fill-opacity:1;fill-rule:nonzero;stroke:none"
             id="path4212" />
        </g>
      </g>
    </g>
    <g
       id="g4214"
       transform="matrix(9.4934957,0,0,-9.4934957,-14.217181,301.39337)">
      <path
         d="M 0,0 L 2.51,2.51 L 4.985,0 L 4.985,-5.344 L 8.105,-5.344 L 8.105,-7.854 L 4.985,-7.854 L 4.985,-15.386 L 0,-15.386 L 0,-7.854 L 0,-5.344 L 0,0 z"
         style="fill:#000000;fill-opacity:1;fill-rule:nonzero;stroke:none"
         id="path4216"
         sodipodi:nodetypes="cccccccccccc" />
    </g>
    <g
       inkscape:label="Ebene 1"
       inkscape:groupmode="layer"
       transform="translate(-501.54702,586.32528)"
       id="layer1-0" />
  </g>
</svg>
