<?xml version="1.0" encoding="utf-8"?>
<!-- Generator: Adobe Illustrator 16.0.4, SVG Export Plug-In . SVG Version: 6.00 Build 0)  -->
<!DOCTYPE svg PUBLIC "-//W3C//DTD SVG 1.1//EN" "http://www.w3.org/Graphics/SVG/1.1/DTD/svg11.dtd">
<svg version="1.1" id="A96" xmlns="http://www.w3.org/2000/svg" xmlns:xlink="http://www.w3.org/1999/xlink" x="0px" y="0px"
	 width="400px" height="351px" viewBox="0 37.248 400 351" enable-background="new 0 37.248 400 351" xml:space="preserve">
<path fill-rule="evenodd" clip-rule="evenodd" fill="#FFFFFF" d="M3.569,378.261c-3.238-5.627-3-12.459,0-17.733L184.426,47.221
	c3.116-5.396,8.878-8.982,15.47-8.982c6.719,0,12.475,3.586,15.592,8.86l180.855,313.305c3.118,5.274,3.357,12.229,0,17.856
	c-3.241,5.634-9.232,8.873-15.354,8.99H19.042C12.805,387.251,6.806,384.018,3.569,378.261"/>
<path fill-rule="evenodd" clip-rule="evenodd" fill="#231F20" d="M252.574,266.653l10.64,28.414h-10.774l-15.69-19.108
	c0,0-5.232,1.057-9.062,1.057h-20.215l23.113,60.713h-13.66l-49.632-60.713h-31.645c-11.034,0-18.95-5.536-18.95-10.362
	c0-4.841,7.916-10.377,18.95-10.377h31.645l49.632-60.792h13.66l-23.113,60.792h20.215c3.829,0,9.062,1.052,9.062,1.052
	l15.69-19.104h10.774L252.574,266.653"/>
<path fill-rule="evenodd" clip-rule="evenodd" fill="#EF3E42" d="M339.258,345.587L199.865,104.456L60.61,345.587H339.258
	 M2.41,379.239c-3.293-5.757-3.119-12.563-0.043-17.965L184.306,46.292c3.125-5.401,9.011-9.043,15.693-9.043
	c6.634,0,12.437,3.55,15.556,8.916l181.985,314.975c3.168,5.401,3.389,12.301,0,18.1c-3.295,5.758-9.316,8.961-15.517,9.01H18.103
	C11.86,388.29,5.755,384.996,2.41,379.239z"/>
</svg>
