<?xml version="1.0" encoding="UTF-8" standalone="no"?>
<!-- Created with Inkscape (http://www.inkscape.org/) -->

<svg
   xmlns:dc="http://purl.org/dc/elements/1.1/"
   xmlns:cc="http://creativecommons.org/ns#"
   xmlns:rdf="http://www.w3.org/1999/02/22-rdf-syntax-ns#"
   xmlns:svg="http://www.w3.org/2000/svg"
   xmlns="http://www.w3.org/2000/svg"
   xmlns:sodipodi="http://sodipodi.sourceforge.net/DTD/sodipodi-0.dtd"
   xmlns:inkscape="http://www.inkscape.org/namespaces/inkscape"
   width="399.8006"
   height="351.37137"
   id="svg5321"
   version="1.1"
   inkscape:version="0.47 r22583"
   sodipodi:docname="Denmark road sign A11.svg">
  <defs
     id="defs5323">
    <inkscape:perspective
       sodipodi:type="inkscape:persp3d"
       inkscape:vp_x="0 : 526.18109 : 1"
       inkscape:vp_y="0 : 1000 : 0"
       inkscape:vp_z="744.09448 : 526.18109 : 1"
       inkscape:persp3d-origin="372.04724 : 350.78739 : 1"
       id="perspective5329" />
    <inkscape:perspective
       id="perspective5339"
       inkscape:persp3d-origin="0.5 : 0.33333333 : 1"
       inkscape:vp_z="1 : 0.5 : 1"
       inkscape:vp_y="0 : 1000 : 0"
       inkscape:vp_x="0 : 0.5 : 1"
       sodipodi:type="inkscape:persp3d" />
    <clipPath
       clipPathUnits="userSpaceOnUse"
       id="clipPath4202">
      <path
         d="m 20.045,731.714 42.114,0 0,37.012 -42.114,0 0,-37.012 z"
         id="path4204" />
    </clipPath>
    <inkscape:perspective
       id="perspective5396"
       inkscape:persp3d-origin="425 : 140 : 1"
       inkscape:vp_z="850 : 210 : 1"
       inkscape:vp_y="0 : 1000 : 0"
       inkscape:vp_x="0 : 210 : 1"
       sodipodi:type="inkscape:persp3d" />
    <inkscape:perspective
       id="perspective5429"
       inkscape:persp3d-origin="0.5 : 0.33333333 : 1"
       inkscape:vp_z="1 : 0.5 : 1"
       inkscape:vp_y="0 : 1000 : 0"
       inkscape:vp_x="0 : 0.5 : 1"
       sodipodi:type="inkscape:persp3d" />
    <clipPath
       clipPathUnits="userSpaceOnUse"
       id="clipPath2840">
      <path
         d="m 77.057,731.714 42.114,0 0,37.012 -42.114,0 0,-37.012 z"
         id="path2842" />
    </clipPath>
  </defs>
  <sodipodi:namedview
     id="base"
     pagecolor="#ffffff"
     bordercolor="#666666"
     borderopacity="1.0"
     inkscape:pageopacity="0.0"
     inkscape:pageshadow="2"
     inkscape:zoom="0.83535156"
     inkscape:cx="565.28609"
     inkscape:cy="38.297257"
     inkscape:document-units="px"
     inkscape:current-layer="layer1"
     showgrid="false"
     inkscape:window-width="1600"
     inkscape:window-height="838"
     inkscape:window-x="-8"
     inkscape:window-y="-8"
     inkscape:window-maximized="1" />
  <metadata
     id="metadata5326">
    <rdf:RDF>
      <cc:Work
         rdf:about="">
        <dc:format>image/svg+xml</dc:format>
        <dc:type
           rdf:resource="http://purl.org/dc/dcmitype/StillImage" />
        <dc:title></dc:title>
      </cc:Work>
    </rdf:RDF>
  </metadata>
  <g
     inkscape:label="Livello 1"
     inkscape:groupmode="layer"
     id="layer1"
     transform="translate(190.28609,-157.71711)">
    <g
       transform="matrix(9.4934957,0,0,-9.4934957,-380.58356,7455.6141)"
       id="g4198">
      <g
         id="g4200"
         clip-path="url(#clipPath4202)">
        <g
           id="g4206"
           transform="translate(20.3006,732.6832)">
          <path
             d="m 0,0 c -0.359,0.574 -0.322,1.327 0,1.865 l 19.152,33.21 c 0.358,0.573 0.968,0.968 1.649,0.968 0.681,0 1.291,-0.395 1.614,-0.933 L 41.602,1.901 C 41.925,1.327 41.96,0.574 41.602,0 41.279,-0.61 40.634,-0.969 39.988,-0.969 l -38.374,0 C 0.968,-0.969 0.322,-0.61 0,0"
             style="fill:#ffffff;fill-opacity:1;fill-rule:nonzero;stroke:none"
             id="path4208" />
        </g>
        <g
           id="g4210"
           transform="translate(20.3006,732.6832)">
          <path
             d="m 0,0 c -0.359,0.574 -0.322,1.327 0,1.865 l 19.152,33.21 c 0.358,0.573 0.968,0.968 1.649,0.968 0.681,0 1.291,-0.395 1.614,-0.933 L 41.602,1.901 C 41.925,1.327 41.96,0.574 41.602,0 41.279,-0.61 40.634,-0.969 39.988,-0.969 l -38.374,0 C 0.968,-0.969 0.322,-0.61 0,0 M 35.47,3.551 20.801,28.942 6.133,3.551 l 29.337,0 z"
             style="fill:#ef3e42;fill-opacity:1;fill-rule:nonzero;stroke:none"
             id="path4212" />
        </g>
      </g>
    </g>
    <g
       inkscape:label="Ebene 1"
       inkscape:groupmode="layer"
       transform="translate(-501.54702,586.32528)"
       id="layer1-0" />
    <g
       id="g2848"
       transform="matrix(9.5787014,0,0,-9.5787014,20.481234,453.46489)">
      <path
         d="m 0,0 -0.286,1.793 c 2.474,0.395 4.339,2.511 4.339,5.093 0,0.179 0,0.323 -0.036,0.502 L 3.013,7.173 c -0.072,0 -0.143,0 -0.179,0.072 C 2.797,7.316 2.797,7.388 2.87,7.46 l 1.936,2.726 c 0.036,0.035 0.071,0.071 0.143,0.071 0.036,0 0.108,-0.036 0.144,-0.071 L 7.03,7.46 C 7.066,7.388 7.101,7.316 7.066,7.245 7.03,7.173 6.958,7.173 6.886,7.173 L 5.846,7.388 C 5.882,7.209 5.882,7.065 5.882,6.886 5.882,3.407 3.336,0.502 0,0 m 4.304,11.297 c -2.116,2.582 -5.846,3.335 -8.859,1.578 -0.143,-0.071 -0.287,-0.144 -0.43,-0.251 l -0.323,0.969 c -0.036,0.071 -0.071,0.143 -0.179,0.143 -0.036,0 -0.107,-0.036 -0.143,-0.143 l -1.363,-2.977 c -0.036,-0.072 -0.036,-0.143 -0.036,-0.179 0.036,-0.036 0.107,-0.072 0.179,-0.108 l 3.299,-0.287 c 0.108,-0.036 0.18,0 0.215,0.071 0.036,0.037 0,0.108 -0.035,0.18 l -0.682,0.789 c 0.144,0.107 0.251,0.179 0.431,0.287 2.187,1.22 4.949,0.717 6.492,-1.219 l 1.434,1.147 z M -7.567,9.396 c -1.219,-3.156 0,-6.814 3.012,-8.571 0.144,-0.072 0.287,-0.143 0.431,-0.216 L -4.806,-0.18 c -0.036,-0.071 -0.071,-0.143 -0.036,-0.179 0.036,-0.072 0.108,-0.107 0.216,-0.072 l 3.299,0.323 c 0.072,0 0.144,0.037 0.179,0.072 0,0.036 0,0.107 -0.035,0.179 l -1.363,3.013 c -0.036,0.107 -0.108,0.143 -0.179,0.143 -0.072,0 -0.108,-0.036 -0.144,-0.143 L -3.192,2.188 c -0.144,0.071 -0.323,0.143 -0.466,0.251 -2.223,1.255 -3.12,3.945 -2.223,6.276 l -1.686,0.681 z"
         style="fill:#000000;fill-opacity:1;fill-rule:nonzero;stroke:none"
         id="path2850" />
    </g>
  </g>
</svg>
