<?xml version="1.0" encoding="UTF-8" standalone="no"?>
<!-- Created with Inkscape (http://www.inkscape.org/) -->

<svg
   xmlns:dc="http://purl.org/dc/elements/1.1/"
   xmlns:cc="http://creativecommons.org/ns#"
   xmlns:rdf="http://www.w3.org/1999/02/22-rdf-syntax-ns#"
   xmlns:svg="http://www.w3.org/2000/svg"
   xmlns="http://www.w3.org/2000/svg"
   xmlns:sodipodi="http://sodipodi.sourceforge.net/DTD/sodipodi-0.dtd"
   xmlns:inkscape="http://www.inkscape.org/namespaces/inkscape"
   width="399.8006"
   height="351.37137"
   id="svg5321"
   version="1.1"
   inkscape:version="0.47 r22583"
   sodipodi:docname="Denmark road sign A31.svg">
  <defs
     id="defs5323"><inkscape:perspective
   sodipodi:type="inkscape:persp3d"
   inkscape:vp_x="0 : 526.18109 : 1"
   inkscape:vp_y="0 : 1000 : 0"
   inkscape:vp_z="744.09448 : 526.18109 : 1"
   inkscape:persp3d-origin="372.04724 : 350.78739 : 1"
   id="perspective5329" />
<inkscape:perspective
   id="perspective5339"
   inkscape:persp3d-origin="0.5 : 0.33333333 : 1"
   inkscape:vp_z="1 : 0.5 : 1"
   inkscape:vp_y="0 : 1000 : 0"
   inkscape:vp_x="0 : 0.5 : 1"
   sodipodi:type="inkscape:persp3d" />
<clipPath
   clipPathUnits="userSpaceOnUse"
   id="clipPath4202">
  <path
     d="m 20.045,731.714 42.114,0 0,37.012 -42.114,0 0,-37.012 z"
     id="path4204" />
</clipPath>
<inkscape:perspective
   id="perspective5396"
   inkscape:persp3d-origin="425 : 140 : 1"
   inkscape:vp_z="850 : 210 : 1"
   inkscape:vp_y="0 : 1000 : 0"
   inkscape:vp_x="0 : 210 : 1"
   sodipodi:type="inkscape:persp3d" />
<inkscape:perspective
   id="perspective5429"
   inkscape:persp3d-origin="0.5 : 0.33333333 : 1"
   inkscape:vp_z="1 : 0.5 : 1"
   inkscape:vp_y="0 : 1000 : 0"
   inkscape:vp_x="0 : 0.5 : 1"
   sodipodi:type="inkscape:persp3d" />
<clipPath
   clipPathUnits="userSpaceOnUse"
   id="clipPath2840">
  <path
     d="m 77.057,731.714 42.114,0 0,37.012 -42.114,0 0,-37.012 z"
     id="path2842" />
</clipPath>
<inkscape:perspective
   id="perspective5499"
   inkscape:persp3d-origin="0.5 : 0.33333333 : 1"
   inkscape:vp_z="1 : 0.5 : 1"
   inkscape:vp_y="0 : 1000 : 0"
   inkscape:vp_x="0 : 0.5 : 1"
   sodipodi:type="inkscape:persp3d" />
<clipPath
   clipPathUnits="userSpaceOnUse"
   id="clipPath3036">
  <path
     d="m 134.072,731.751 42.114,0 0,36.975 -42.114,0 0,-36.975 z"
     id="path3038" />
</clipPath>
<inkscape:perspective
   id="perspective5621"
   inkscape:persp3d-origin="0.5 : 0.33333333 : 1"
   inkscape:vp_z="1 : 0.5 : 1"
   inkscape:vp_y="0 : 1000 : 0"
   inkscape:vp_x="0 : 0.5 : 1"
   sodipodi:type="inkscape:persp3d" />
<clipPath
   clipPathUnits="userSpaceOnUse"
   id="clipPath2952">
  <path
     d="m 191.084,731.751 42.113,0 0,36.975 -42.113,0 0,-36.975 z"
     id="path2954" />
</clipPath>
<clipPath
   clipPathUnits="userSpaceOnUse"
   id="clipPath2936">
  <path
     d="m 191.084,731.751 42.113,0 0,36.975 -42.113,0 0,-36.975 z"
     id="path2938" />
</clipPath>
<inkscape:perspective
   id="perspective5694"
   inkscape:persp3d-origin="0.5 : 0.33333333 : 1"
   inkscape:vp_z="1 : 0.5 : 1"
   inkscape:vp_y="0 : 1000 : 0"
   inkscape:vp_x="0 : 0.5 : 1"
   sodipodi:type="inkscape:persp3d" />
<inkscape:perspective
   inkscape:vp_x="0 : 226.5 : 1"
   inkscape:vp_y="0 : 1000 : 0"
   inkscape:vp_z="510 : 226.5 : 1"
   inkscape:persp3d-origin="255 : 151 : 1"
   id="perspective18"
   sodipodi:type="inkscape:persp3d" />

	<inkscape:perspective
   id="perspective5722"
   inkscape:persp3d-origin="0.5 : 0.33333333 : 1"
   inkscape:vp_z="1 : 0.5 : 1"
   inkscape:vp_y="0 : 1000 : 0"
   inkscape:vp_x="0 : 0.5 : 1"
   sodipodi:type="inkscape:persp3d" />
<clipPath
   clipPathUnits="userSpaceOnUse"
   id="clipPath3216">
  <path
     d="m 248.098,731.74 42.114,0 0,36.986 -42.114,0 0,-36.986 z"
     id="path3218" />
</clipPath>
<inkscape:perspective
   id="perspective5860"
   inkscape:persp3d-origin="0.5 : 0.33333333 : 1"
   inkscape:vp_z="1 : 0.5 : 1"
   inkscape:vp_y="0 : 1000 : 0"
   inkscape:vp_x="0 : 0.5 : 1"
   sodipodi:type="inkscape:persp3d" />
<clipPath
   clipPathUnits="userSpaceOnUse"
   id="clipPath2880">
  <path
     d="m 305.111,731.751 42.114,0 0,36.975 -42.114,0 0,-36.975 z"
     id="path2882" />
</clipPath>
<inkscape:perspective
   id="perspective5942"
   inkscape:persp3d-origin="0.5 : 0.33333333 : 1"
   inkscape:vp_z="1 : 0.5 : 1"
   inkscape:vp_y="0 : 1000 : 0"
   inkscape:vp_x="0 : 0.5 : 1"
   sodipodi:type="inkscape:persp3d" />
<clipPath
   clipPathUnits="userSpaceOnUse"
   id="clipPath3112">
  <path
     d="m 362.126,731.751 42.113,0 0,36.975 -42.113,0 0,-36.975 z"
     id="path3114" />
</clipPath>
<clipPath
   clipPathUnits="userSpaceOnUse"
   id="clipPath3100">
  <path
     d="m 362.126,731.751 42.114,0 0,36.975 -42.114,0 0,-36.975 z"
     id="path3102" />
</clipPath>
<inkscape:perspective
   id="perspective6017"
   inkscape:persp3d-origin="0.5 : 0.33333333 : 1"
   inkscape:vp_z="1 : 0.5 : 1"
   inkscape:vp_y="0 : 1000 : 0"
   inkscape:vp_x="0 : 0.5 : 1"
   sodipodi:type="inkscape:persp3d" />
<clipPath
   clipPathUnits="userSpaceOnUse"
   id="clipPath2984">
  <path
     d="m 419.137,731.751 42.114,0 0,36.975 -42.114,0 0,-36.975 z"
     id="path2986" />
</clipPath>
<inkscape:perspective
   id="perspective6119"
   inkscape:persp3d-origin="0.5 : 0.33333333 : 1"
   inkscape:vp_z="1 : 0.5 : 1"
   inkscape:vp_y="0 : 1000 : 0"
   inkscape:vp_x="0 : 0.5 : 1"
   sodipodi:type="inkscape:persp3d" />
<clipPath
   clipPathUnits="userSpaceOnUse"
   id="clipPath3296">
  <path
     d="m 476.153,731.751 42.113,0 0,36.975 -42.113,0 0,-36.975 z"
     id="path3298" />
</clipPath>
<inkscape:perspective
   id="perspective6219"
   inkscape:persp3d-origin="0.5 : 0.33333333 : 1"
   inkscape:vp_z="1 : 0.5 : 1"
   inkscape:vp_y="0 : 1000 : 0"
   inkscape:vp_x="0 : 0.5 : 1"
   sodipodi:type="inkscape:persp3d" />
<clipPath
   clipPathUnits="userSpaceOnUse"
   id="clipPath2860">
  <path
     d="m 533.165,731.751 42.113,0 0,36.975 -42.113,0 0,-36.975 z"
     id="path2862" />
</clipPath>
<inkscape:perspective
   id="perspective6281"
   inkscape:persp3d-origin="0.5 : 0.33333333 : 1"
   inkscape:vp_z="1 : 0.5 : 1"
   inkscape:vp_y="0 : 1000 : 0"
   inkscape:vp_x="0 : 0.5 : 1"
   sodipodi:type="inkscape:persp3d" />
<clipPath
   clipPathUnits="userSpaceOnUse"
   id="clipPath3080">
  <path
     d="m 20.045,674.69 42.114,0 0,36.975 -42.114,0 0,-36.975 z"
     id="path3082" />
</clipPath>
<inkscape:perspective
   id="perspective6343"
   inkscape:persp3d-origin="0.5 : 0.33333333 : 1"
   inkscape:vp_z="1 : 0.5 : 1"
   inkscape:vp_y="0 : 1000 : 0"
   inkscape:vp_x="0 : 0.5 : 1"
   sodipodi:type="inkscape:persp3d" />
<clipPath
   clipPathUnits="userSpaceOnUse"
   id="clipPath2964">
  <path
     d="m 77.057,674.69 42.114,0 0,36.975 -42.114,0 0,-36.975 z"
     id="path2966" />
</clipPath>
</defs>
  <sodipodi:namedview
     id="base"
     pagecolor="#ffffff"
     bordercolor="#666666"
     borderopacity="1.0"
     inkscape:pageopacity="0.0"
     inkscape:pageshadow="2"
     inkscape:zoom="0.83535156"
     inkscape:cx="748.61453"
     inkscape:cy="161.94933"
     inkscape:document-units="px"
     inkscape:current-layer="layer1"
     showgrid="false"
     inkscape:window-width="1600"
     inkscape:window-height="838"
     inkscape:window-x="-8"
     inkscape:window-y="-8"
     inkscape:window-maximized="1"
     showguides="true"
     inkscape:guide-bbox="true" />
  <metadata
     id="metadata5326">
    <rdf:RDF>
      <cc:Work
         rdf:about="">
        <dc:format>image/svg+xml</dc:format>
        <dc:type
           rdf:resource="http://purl.org/dc/dcmitype/StillImage" />
        <dc:title></dc:title>
      </cc:Work>
    </rdf:RDF>
  </metadata>
  <g
     inkscape:label="Livello 1"
     inkscape:groupmode="layer"
     id="layer1"
     transform="translate(190.28609,-157.71711)"><path
   id="path4208"
   style="fill:#ffffff;fill-opacity:1;fill-rule:nonzero;stroke:none"
   d="m -187.8599,499.88929 c -3.40816,-5.44927 -3.05691,-12.59787 0,-17.70537 L -6.0404704,166.90493 c 3.3986715,-5.43977 9.1897039,-9.18971 15.6547745,-9.18971 6.4650709,0 12.2561029,3.74994 15.3225019,8.85744 L 207.08851,481.84215 c 3.0664,5.44927 3.39867,12.59787 0,18.04714 -3.0664,5.79103 -9.18971,9.1992 -15.3225,9.1992 l -364.30341,0 c -6.1328,0 -12.26559,-3.40817 -15.3225,-9.1992" />
<g
   id="g4210"
   transform="matrix(9.4934957,0,0,-9.4934957,-187.8599,499.88929)"
   style="fill:#ed171f;fill-opacity:1">
  <path
     d="m 0,0 c -0.359,0.574 -0.322,1.327 0,1.865 l 19.152,33.21 c 0.358,0.573 0.968,0.968 1.649,0.968 0.681,0 1.291,-0.395 1.614,-0.933 L 41.602,1.901 C 41.925,1.327 41.96,0.574 41.602,0 41.279,-0.61 40.634,-0.969 39.988,-0.969 l -38.374,0 C 0.968,-0.969 0.322,-0.61 0,0 M 35.47,3.551 20.801,28.942 6.133,3.551 l 29.337,0 z"
     style="fill:#ed171f;fill-opacity:1;fill-rule:nonzero;stroke:none"
     id="path4212" />
</g>
<g
   inkscape:label="Ebene 1"
   inkscape:groupmode="layer"
   transform="translate(-501.54702,586.32528)"
   id="layer1-0" />

	
	
<path
   id="path2974"
   style="fill:#000000;fill-opacity:1;fill-rule:nonzero;stroke:none"
   d="m 28.191433,333.09686 c 2.04123,0.34338 3.06185,1.35446 3.73908,3.73908 l 4.08246,16.98801 c 2.71847,0.67723 4.07293,3.05231 3.72954,5.77077 l -2.37507,15.63355 c -0.67724,3.05231 -3.06185,4.41631 -5.43693,4.08247 l -1.35446,7.46862 c -0.34339,1.69784 -1.364,2.38461 -3.06185,2.04123 l -5.43693,-0.67723 c -1.69784,-0.34339 -2.71846,-1.364 -2.37508,-3.06185 l 1.01108,-7.46862 -44.1631,-7.14431 -1.02062,7.48769 c -0.34338,1.68831 -1.364,2.36554 -3.06185,2.0317 l -5.77077,-0.67723 c -1.69785,-0.34339 -2.38462,-1.35447 -2.04123,-3.06185 l 1.02061,-7.47816 c -2.37507,-0.33385 -4.41631,-2.71846 -4.08246,-5.77077 l 2.71846,-15.29017 c 0.34339,-2.71846 2.38462,-4.75969 5.43693,-4.41631 l 9.17601,-14.61293 c 1.02061,-2.04123 2.38461,-2.71846 4.41631,-2.37508 l 44.84987,6.79139 z m 1.69785,20.04986 -3.06185,-13.59232 c -0.33385,-0.68677 -0.67723,-1.02061 -1.34492,-1.35446 l -41.12034,-6.1237 c -0.67723,0 -1.35446,0 -1.69785,0.34339 l -7.13477,11.89447 54.35973,8.83262 z m -43.82926,96.82498 -56.73481,-40.09018 c -1.02061,-0.67723 -1.02061,-1.35446 0,-1.69784 l 41.77849,-17.3314 -10.18708,0 -49.60003,13.9357 c -2.71847,0.68677 -3.40524,3.73908 -1.70739,5.78031 l 36.69449,40.76741 c 3.73908,4.41631 3.73908,8.84216 -0.33385,11.56063 -4.08246,2.71846 -5.77077,3.38615 -5.77077,3.38615 l 43.48587,0 c 0,0 1.69785,-1.01108 4.41631,-3.38615 1.364,-1.03016 2.37508,-3.40524 2.37508,-5.43693 0,-1.364 -0.33385,-4.7597 -4.41631,-7.4877 m 29.22586,-56.05757 7.80247,0 -18.3424699,13.9357 c -1.02062,0.67723 -0.67723,1.35446 0,1.69785 L 128.0878,449.30401 c 5.09354,1.35446 6.79139,6.11416 6.11416,10.87385 -0.67723,4.07293 -1.364,6.10462 -1.364,6.10462 l -43.829257,0 c 0,0 1.364,-1.35446 2.71846,-4.07292 2.71847,-5.09355 -1.69785,-6.79139 -3.05231,-7.46862 l -100.23975,-43.16157 c -2.37508,-0.67723 -2.37508,-3.72954 0.34338,-5.09354 l 26.5074,-12.5717 z" />
</g>
</svg>
