<?xml version="1.0" encoding="UTF-8" standalone="no"?>
<!-- Created with Inkscape (http://www.inkscape.org/) -->

<svg
   xmlns:dc="http://purl.org/dc/elements/1.1/"
   xmlns:cc="http://creativecommons.org/ns#"
   xmlns:rdf="http://www.w3.org/1999/02/22-rdf-syntax-ns#"
   xmlns:svg="http://www.w3.org/2000/svg"
   xmlns="http://www.w3.org/2000/svg"
   xmlns:sodipodi="http://sodipodi.sourceforge.net/DTD/sodipodi-0.dtd"
   xmlns:inkscape="http://www.inkscape.org/namespaces/inkscape"
   width="699.16565"
   height="334.13165"
   id="svg52502"
   version="1.1"
   inkscape:version="0.48.1 "
   sodipodi:docname="Neues Dokument 14">
  <defs
     id="defs52504" />
  <sodipodi:namedview
     id="base"
     pagecolor="#ffffff"
     bordercolor="#666666"
     borderopacity="1.0"
     inkscape:pageopacity="0.0"
     inkscape:pageshadow="2"
     inkscape:zoom="0.35"
     inkscape:cx="734.05285"
     inkscape:cy="182.84432"
     inkscape:document-units="px"
     inkscape:current-layer="layer1"
     showgrid="false"
     fit-margin-top="0"
     fit-margin-left="0"
     fit-margin-right="0"
     fit-margin-bottom="0"
     inkscape:window-width="1680"
     inkscape:window-height="994"
     inkscape:window-x="-4"
     inkscape:window-y="-4"
     inkscape:window-maximized="1" />
  <metadata
     id="metadata52507">
    <rdf:RDF>
      <cc:Work
         rdf:about="">
        <dc:format>image/svg+xml</dc:format>
        <dc:type
           rdf:resource="http://purl.org/dc/dcmitype/StillImage" />
        <dc:title></dc:title>
      </cc:Work>
    </rdf:RDF>
  </metadata>
  <g
     inkscape:label="Ebene 1"
     inkscape:groupmode="layer"
     id="layer1"
     transform="translate(-530.23286,-403.932)">
    <g
       id="g51344"
       transform="matrix(49.443758,0,0,49.443758,23207.043,-3188.2489)">
      <g
         transform="translate(0,-1.5152288)"
         id="g51298">
        <g
           id="g22203"
           transform="matrix(1.25,0,0,-1.25,-457.97442,74.323337)"
           style="fill:#009036;fill-opacity:1;stroke:#009036;stroke-opacity:1">
          <path
             inkscape:connector-curvature="0"
             d="m 0,0 10.26,0 c 0.222,0 0.406,-0.189 0.406,-0.422 l 0,-4.318 c 0,-0.235 -0.184,-0.424 -0.406,-0.424 l -10.26,0 c -0.225,0 -0.408,0.189 -0.408,0.424 l 0,4.318 C -0.408,-0.189 -0.225,0 0,0 z"
             style="fill:#009036;fill-opacity:1;stroke:#009036;stroke-width:0.252;stroke-linecap:butt;stroke-linejoin:miter;stroke-miterlimit:10;stroke-opacity:1;stroke-dasharray:none"
             id="path22205" />
        </g>
        <g
           id="g22199"
           transform="matrix(1.25,0,0,-1.25,-458.02067,74.617707)">
          <path
             inkscape:connector-curvature="0"
             d="m 0,0 10.332,0 c 0.086,0 0.156,-0.07 0.156,-0.154 l 0,-4.387 c 0,-0.084 -0.07,-0.152 -0.156,-0.152 L 0,-4.693 c -0.086,0 -0.156,0.068 -0.156,0.152 l 0,4.387 C -0.156,-0.07 -0.086,0 0,0 z"
             style="fill:none;stroke:#ffffff;stroke-width:0.303;stroke-linecap:butt;stroke-linejoin:miter;stroke-miterlimit:10;stroke-opacity:1;stroke-dasharray:none"
             id="path22201" />
        </g>
      </g>
      <g
         transform="translate(-0.94667,-3.2052898)"
         id="g51268">
        <g
           id="g22355"
           transform="matrix(1.25,0,0,-1.25,-455.29531,77.457153)">
          <path
             inkscape:connector-curvature="0"
             d="m 0,0 1.686,0 0,-0.449 -1.112,0 0,-0.705 1.016,0 0,-0.45 -1.016,0 0,-0.8 1.119,0 0,-0.45 L 0,-2.854 0,0 z"
             style="fill:#ffffff;fill-opacity:1;fill-rule:nonzero;stroke:none"
             id="path22357" />
        </g>
        <g
           id="g22359"
           transform="matrix(1.25,0,0,-1.25,-446.65519,79.251523)">
          <path
             inkscape:connector-curvature="0"
             d="m 0,0 c 0,0.369 0,1.059 -0.424,1.059 -0.418,0 -0.418,-0.69 -0.418,-1.059 0,-0.359 -0.004,-1.043 0.418,-1.043 C 0.006,-1.043 0,-0.359 0,0 m -1.414,0 c 0,0.715 0.217,1.484 0.99,1.484 0.834,0 0.998,-0.822 0.998,-1.484 0,-0.662 -0.172,-1.467 -0.998,-1.467 -0.879,0 -0.99,0.869 -0.99,1.467 m -2.25,-1.418 0,0.477 c 0.266,0.259 1.234,1.066 1.234,1.591 0,0.26 -0.232,0.385 -0.466,0.385 -0.239,0 -0.471,-0.107 -0.659,-0.23 L -3.6,1.279 c 0.258,0.131 0.557,0.205 0.848,0.205 0.543,0 0.897,-0.273 0.897,-0.834 0,-0.605 -0.61,-1.162 -1.077,-1.619 l 1.164,0 0,-0.449 -1.896,0 z"
             style="fill:#ffffff;fill-opacity:1;fill-rule:nonzero;stroke:none"
             id="path22361" />
        </g>
      </g>
    </g>
  </g>
</svg>
