<?xml version="1.0" encoding="UTF-8" standalone="no"?>
<!-- Created with Inkscape (http://www.inkscape.org/) -->

<svg
   xmlns:dc="http://purl.org/dc/elements/1.1/"
   xmlns:cc="http://creativecommons.org/ns#"
   xmlns:rdf="http://www.w3.org/1999/02/22-rdf-syntax-ns#"
   xmlns:svg="http://www.w3.org/2000/svg"
   xmlns="http://www.w3.org/2000/svg"
   xmlns:sodipodi="http://sodipodi.sourceforge.net/DTD/sodipodi-0.dtd"
   xmlns:inkscape="http://www.inkscape.org/namespaces/inkscape"
   width="699.16565"
   height="334.13165"
   id="svg52502"
   version="1.1"
   inkscape:version="0.48.1 "
   sodipodi:docname="E47-DK.svg">
  <defs
     id="defs52504" />
  <sodipodi:namedview
     id="base"
     pagecolor="#ffffff"
     bordercolor="#666666"
     borderopacity="1.0"
     inkscape:pageopacity="0.0"
     inkscape:pageshadow="2"
     inkscape:zoom="0.35"
     inkscape:cx="392.62428"
     inkscape:cy="182.84432"
     inkscape:document-units="px"
     inkscape:current-layer="layer1"
     showgrid="false"
     fit-margin-top="0"
     fit-margin-left="0"
     fit-margin-right="0"
     fit-margin-bottom="0"
     inkscape:window-width="1680"
     inkscape:window-height="994"
     inkscape:window-x="-4"
     inkscape:window-y="-4"
     inkscape:window-maximized="1" />
  <metadata
     id="metadata52507">
    <rdf:RDF>
      <cc:Work
         rdf:about="">
        <dc:format>image/svg+xml</dc:format>
        <dc:type
           rdf:resource="http://purl.org/dc/dcmitype/StillImage" />
        <dc:title></dc:title>
      </cc:Work>
    </rdf:RDF>
  </metadata>
  <g
     inkscape:label="Ebene 1"
     inkscape:groupmode="layer"
     id="layer1"
     transform="translate(-530.23286,-403.932)">
    <g
       id="g51392"
       transform="matrix(49.443758,0,0,49.443758,23206.796,-4630.6716)">
      <g
         transform="translate(0,27.652926)"
         id="g51304">
        <g
           style="fill:#009036;fill-opacity:1;stroke:#009036;stroke-opacity:1"
           transform="matrix(1.25,0,0,-1.25,-457.97442,74.323337)"
           id="g51306">
          <path
             id="path51308"
             style="fill:#009036;fill-opacity:1;stroke:#009036;stroke-width:0.252;stroke-linecap:butt;stroke-linejoin:miter;stroke-miterlimit:10;stroke-opacity:1;stroke-dasharray:none"
             d="m 0,0 10.26,0 c 0.222,0 0.406,-0.189 0.406,-0.422 l 0,-4.318 c 0,-0.235 -0.184,-0.424 -0.406,-0.424 l -10.26,0 c -0.225,0 -0.408,0.189 -0.408,0.424 l 0,4.318 C -0.408,-0.189 -0.225,0 0,0 z"
             inkscape:connector-curvature="0" />
        </g>
        <g
           transform="matrix(1.25,0,0,-1.25,-458.02067,74.617707)"
           id="g51310">
          <path
             id="path51312"
             style="fill:none;stroke:#ffffff;stroke-width:0.303;stroke-linecap:butt;stroke-linejoin:miter;stroke-miterlimit:10;stroke-opacity:1;stroke-dasharray:none"
             d="m 0,0 10.332,0 c 0.086,0 0.156,-0.07 0.156,-0.154 l 0,-4.387 c 0,-0.084 -0.07,-0.152 -0.156,-0.152 L 0,-4.693 c -0.086,0 -0.156,0.068 -0.156,0.152 l 0,4.387 C -0.156,-0.07 -0.086,0 0,0 z"
             inkscape:connector-curvature="0" />
        </g>
      </g>
      <g
         transform="translate(-1.8075,-19.987252)"
         id="g51292">
        <g
           id="g22367"
           transform="matrix(1.25,0,0,-1.25,-454.39773,123.37689)">
          <path
             inkscape:connector-curvature="0"
             d="m 0,0 1.686,0 0,-0.449 -1.114,0 0,-0.703 1.02,0 0,-0.45 -1.02,0 0,-0.802 1.123,0 0,-0.45 L 0,-2.854 0,0 z"
             style="fill:#ffffff;fill-opacity:1;fill-rule:nonzero;stroke:none"
             id="path22369" />
        </g>
        <g
           id="g22371"
           transform="matrix(1.25,0,0,-1.25,-445.19861,123.90664)">
          <path
             inkscape:connector-curvature="0"
             d="m 0,0 -1.102,0 -0.011,-0.611 c 0.066,0.011 0.15,0.031 0.261,0.031 0.403,0 0.92,-0.19 0.92,-0.93 0,-0.535 -0.377,-0.969 -1.113,-0.969 -0.219,0 -0.478,0.038 -0.666,0.081 l 0.012,0.513 c 0.14,-0.056 0.336,-0.144 0.586,-0.144 0.299,0 0.609,0.138 0.609,0.504 0,0.367 -0.326,0.494 -0.654,0.494 -0.176,0 -0.344,-0.026 -0.51,-0.078 L -1.641,0.424 0,0.424 0,0 z m -2.273,0 -1.102,0 -0.014,-0.611 c 0.067,0.011 0.153,0.031 0.262,0.031 0.4,0 0.922,-0.19 0.922,-0.93 0,-0.535 -0.377,-0.969 -1.113,-0.969 -0.221,0 -0.479,0.038 -0.666,0.081 l 0.011,0.513 c 0.139,-0.056 0.336,-0.144 0.584,-0.144 0.301,0 0.61,0.138 0.61,0.504 0,0.367 -0.325,0.494 -0.653,0.494 -0.177,0 -0.345,-0.026 -0.513,-0.078 l 0.029,1.533 1.643,0 0,-0.424 z"
             style="fill:#ffffff;fill-opacity:1;fill-rule:nonzero;stroke:none"
             id="path22373" />
        </g>
      </g>
    </g>
  </g>
</svg>
