<?xml version="1.0" encoding="utf-8"?>
<!-- Generator: Adobe Illustrator 26.0.1, SVG Export Plug-In . SVG Version: 6.00 Build 0)  -->
<svg version="1.1" id="Layer_1" xmlns="http://www.w3.org/2000/svg" xmlns:xlink="http://www.w3.org/1999/xlink" x="0px" y="0px"
	 viewBox="0 0 271 87.9" style="enable-background:new 0 0 271 87.9;" xml:space="preserve">
<style type="text/css">
	.st0{fill:#006C49;}
	.st1{fill:#FDC649;}
</style>
<g>
	<path class="st0" d="M33.8,43.2c0,7-5.1,11.6-13.4,11.6H0.3V14.6h19.8c8.2,0,12.9,4.6,12.9,10.6c0,4.2-2.2,7.2-6.1,8.7
		C31.1,35.3,33.8,38.4,33.8,43.2z M5,19v12.9h15c5.5,0,8.1-2.4,8.1-6.4S25.5,19,20,19C20,19,5,19,5,19z M28.9,43.3
		c0-4.8-3.4-7-8.4-7H5v14.1h15.6C25.5,50.4,28.9,48.2,28.9,43.3z"/>
	<path class="st0" d="M54.2,51.7c4.8,0,7.5-2.5,8.8-5.7l4.5,1.7c-2.5,5.4-6.9,8.1-13.4,8.1c-8.8,0-14.5-6.3-14.5-15.2
		c0-8.8,6.4-15.4,14.3-15.4s14.8,6.1,13.7,16.3H44.2C44.5,47.3,47.6,51.7,54.2,51.7z M44.5,37.7H63c-0.7-5.6-4.2-8.3-9.1-8.3
		C48.8,29.4,45.4,32.7,44.5,37.7z"/>
	<path class="st0" d="M115.2,33.7v21h-7.7V48c-2.1,4.7-6.7,7.8-13.4,7.8c-12.5,0-20.7-8.5-20.7-21.1c0-12,8.5-21.3,22.2-21.3
		c10.1,0,16.4,5,19.1,12.3l-8.9,3.3c-1.6-4.9-4.9-7.4-10.8-7.4c-7.6,0-12.2,5.6-12.2,13.1s3.9,13.1,12.4,13.1c6,0,10.9-2.7,11.3-6.8
		H95.6v-7.4L115.2,33.7L115.2,33.7z"/>
	<path class="st0" d="M140.7,25.3v8.2c0,0-1.3-0.3-2.7-0.3c-4.5,0-7.4,2.4-7.4,8.3v13.3h-8.5V26h7.6v7.2c1.3-5.2,3.9-8,9-8
		C139.6,25.2,140.7,25.3,140.7,25.3z"/>
	<path class="st0" d="M158.9,49.5c4.2,0,6.3-2,7.3-4.8l6.8,2.6c-2.2,5.2-6.6,8.5-14.6,8.5c-10.3,0-16-6.2-16-15.3
		c0-9.2,6.5-15.6,15.9-15.6c9.5,0,16.2,6.1,15,17.1h-22.2C151.4,46.9,154,49.5,158.9,49.5z M164.7,37.4c-0.4-4.4-2.9-6.2-6.6-6.2
		c-3.5,0-6.1,2-6.9,6.2H164.7z"/>
	<path class="st0" d="M193.7,49.5c4.2,0,6.3-2,7.3-4.8l6.8,2.6c-2.2,5.2-6.6,8.5-14.6,8.5c-10.3,0-16-6.2-16-15.3
		c0-9.2,6.5-15.6,15.9-15.6c9.5,0,16.2,6.1,15,17.1h-22.2C186.2,46.9,188.7,49.5,193.7,49.5z M199.5,37.4c-0.4-4.4-2.9-6.2-6.6-6.2
		c-3.5,0-6.1,2-6.9,6.2H199.5z"/>
	<path class="st0" d="M243.9,38.9v15.9h-8.6V40.4c0-5-2.1-7.6-6.6-7.6s-7.2,2.8-7.2,7.6v14.4H213V26h7.6v6.6h0.1
		c1.4-4.6,4.6-7.6,10.7-7.6C239.8,24.9,243.9,30.5,243.9,38.9z"/>
	<g>
		<path class="st1" d="M246,5.1c0.5,0,0.9,0,1.4,0.1V0.1h-2.1v5C245.5,5.1,245.7,5.1,246,5.1z"/>
		<path class="st1" d="M256.7,8.4l2.6-4.4l0,0l-1.8-1.1l-2.6,4.5C255.5,7.6,256.2,8,256.7,8.4z"/>
		<path class="st1" d="M237.6,7.1l-2.5-4.2L233.3,4l2.4,4.2C236.3,7.7,236.9,7.4,237.6,7.1z"/>
		<path class="st1" d="M263.3,15.7l4.5-2.6l-1.1-1.8l-4.5,2.6C262.6,14.5,263,15.1,263.3,15.7z"/>
		<path class="st1" d="M262.4,34.8l4.4,2.5l1.1-1.8l-4.4-2.5C263.1,33.6,262.7,34.2,262.4,34.8z"/>
		<path class="st1" d="M229.9,13.7l-4-2.3h-0.1l-1.1,1.8l4.1,2.4C229.2,14.9,229.6,14.2,229.9,13.7z"/>
		<path class="st1" d="M265.3,23.3c0,0.4,0,0.8,0,1.2c0,0.3,0,0.6,0,0.9h5.2v-2.1H265.3z"/>
		<path class="st1" d="M255,41.6l2.4,4.2l1.8-1.1l-2.5-4.3C256.3,40.9,255.7,41.3,255,41.6z"/>
	</g>
	<path class="st1" d="M246,9.4c-7.7,0-14,5.8-14.9,13.3c0.7-0.1,1.4-0.2,2.2-0.2c0.9-6.2,6.3-11,12.7-11c7.1,0,12.9,5.8,12.9,12.9
		s-5.8,12.9-12.9,12.9v2.1c8.3,0,15-6.7,15-15C261,16.1,254.3,9.4,246,9.4z"/>
	<g>
		<path class="st0" d="M86.2,74.8c0,2.2-1.6,3.3-4.1,3.3H78v5h-1.4V71.6h5.5C84.8,71.6,86.2,72.7,86.2,74.8z M84.8,74.9
			c0-1.4-0.9-2-2.6-2h-4.1v4h4.1C83.9,76.9,84.8,76.3,84.8,74.9z"/>
		<path class="st0" d="M87.7,79.1c0-2.5,1.9-4.4,4.3-4.4c2.4,0,4.2,1.8,4.2,4.4c0,2.5-1.9,4.4-4.3,4.4
			C89.5,83.5,87.7,81.6,87.7,79.1z M94.8,79.1c0-1.7-1.1-3.2-2.9-3.2S89,77.4,89,79.1s1.1,3.2,2.9,3.2S94.8,80.8,94.8,79.1z"/>
		<path class="st0" d="M111.1,75l-2.9,8.2h-1.5l-2.3-6.5l-2.3,6.5h-1.5L97.7,75h1.4l2.3,7l2.3-7h1.4l2.3,7l2.3-7H111.1z"/>
		<path class="st0" d="M116.8,82.3c1.4,0,2.2-0.7,2.5-1.7l1.3,0.5c-0.7,1.6-2,2.3-3.9,2.3c-2.5,0-4.2-1.8-4.2-4.4s1.9-4.4,4.1-4.4
			c2.3,0,4.2,1.7,3.9,4.7h-6.7C114,81,114.9,82.3,116.8,82.3z M114,78.2h5.3c-0.2-1.6-1.2-2.4-2.6-2.4
			C115.2,75.9,114.2,76.8,114,78.2z"/>
		<path class="st0" d="M127.8,74.9v1.2c0,0-0.5-0.1-0.8-0.1c-1.5,0-2.5,0.9-2.5,2.8v4.3h-1.2v-8.2h1.1v1.7c0.4-1.1,1.3-1.8,2.8-1.8
			C127.5,74.8,127.8,74.9,127.8,74.9z"/>
		<path class="st0" d="M133.2,82.3c1.4,0,2.2-0.7,2.5-1.7l1.3,0.5c-0.7,1.6-2,2.3-3.9,2.3c-2.5,0-4.2-1.8-4.2-4.4s1.9-4.4,4.1-4.4
			c2.3,0,4.2,1.7,3.9,4.7h-6.6C130.4,81,131.3,82.3,133.2,82.3z M130.4,78.2h5.3c-0.2-1.6-1.2-2.4-2.6-2.4
			C131.6,75.9,130.6,76.8,130.4,78.2z"/>
		<path class="st0" d="M147.4,71.6v11.6h-1.1v-1.8c-0.5,1.2-1.7,2.1-3.2,2.1c-2.3,0-4-1.8-4-4.4s1.8-4.4,4.1-4.4
			c1.3,0,2.3,0.6,2.9,1.7v-4.7L147.4,71.6L147.4,71.6z M146.1,79.6v-1.1c0-1.4-1.3-2.7-2.8-2.7c-1.7,0-2.8,1.4-2.8,3.2
			c0,1.8,1.1,3.2,2.8,3.2C144.8,82.3,146.1,81,146.1,79.6z"/>
		<path class="st0" d="M163.7,79c0,2.5-1.8,4.4-4.1,4.4c-1.4,0-2.5-0.8-3-2v1.7h-1.1V71.6h1.3v4.8c0.6-1.1,1.6-1.7,3-1.7
			C161.9,74.7,163.7,76.5,163.7,79z M162.4,79.1c0-1.8-1.1-3.2-2.8-3.2c-1.6,0-2.8,1.2-2.8,2.7v1.1c0,1.4,1.3,2.7,2.8,2.7
			C161.2,82.3,162.4,80.9,162.4,79.1z"/>
		<path class="st0" d="M173.6,75l-5,11.6h-1.4l1.4-3.1l-3.7-8.5h1.4l2.9,7l2.9-7H173.6z"/>
		<path class="st0" d="M182.2,76.2v3.9c0,1.8,0.6,2.1,1.6,2.1c0.5,0,1-0.1,1.5-0.3v1.2c-0.5,0.2-1,0.2-1.6,0.2
			c-1.9,0-2.8-0.8-2.8-3.2v-4h-2v-1.2h2v-3.4h1.3v3.4h3.2v1.2h-3.2V76.2z"/>
		<path class="st0" d="M195.1,78.5v4.7h-1.3v-4.6c0-1.7-0.7-2.7-2.4-2.7s-2.8,1.1-2.8,2.7v4.6h-1.3V71.6h1.3v4.6
			c0.5-1,1.5-1.6,2.9-1.6C194,74.7,195.1,76.3,195.1,78.5z"/>
		<path class="st0" d="M201.8,82.3c1.4,0,2.2-0.7,2.5-1.7l1.3,0.5c-0.7,1.6-2,2.3-3.9,2.3c-2.5,0-4.2-1.8-4.2-4.4s1.9-4.4,4.1-4.4
			c2.3,0,4.2,1.7,3.9,4.7h-6.7C199,81,199.9,82.3,201.8,82.3z M199,78.2h5.3c-0.2-1.6-1.2-2.4-2.6-2.4
			C200.2,75.9,199.2,76.8,199,78.2z"/>
		<path class="st0" d="M212.4,79.9l1.4-0.5c0.3,1.6,1.2,2.9,3.9,2.9c2.4,0,3.4-0.9,3.4-2.1c0-3.5-8.3-0.6-8.3-5.5
			c0-1.9,1.8-3.3,4.6-3.3c3,0,4.6,1.8,4.9,3.6l-1.4,0.5c-0.3-1.6-1.2-2.9-3.6-2.9c-2.1,0-3.2,0.9-3.2,2.1c0,3.5,8.3,0.6,8.3,5.5
			c0,1.9-1.8,3.3-4.8,3.3C214.3,83.5,212.7,81.7,212.4,79.9z"/>
		<path class="st0" d="M232.8,75v8.2h-1.1v-1.6c-0.5,1.2-1.4,1.9-2.9,1.9c-2.4,0-3.5-1.6-3.5-3.8V75h1.3v4.6c0,1.7,0.7,2.7,2.3,2.7
			s2.7-1.1,2.7-2.7V75H232.8z"/>
		<path class="st0" d="M243.8,78.5v4.7h-1.3v-4.6c0-1.7-0.7-2.7-2.4-2.7s-2.8,1.1-2.8,2.7v4.6H236V75h1.1v1.6c0.5-1.2,1.5-1.9,3-1.9
			C242.8,74.7,243.8,76.3,243.8,78.5z"/>
	</g>
</g>
</svg>
