<svg width="212" height="50" viewBox="0 0 212 50" fill="none" xmlns="http://www.w3.org/2000/svg">
<g clip-path="url(#clip0)">
<path d="M117.452 31.2029C117.452 33.481 115.62 34.9554 112.789 34.9554C110.071 34.9554 108.318 33.5095 108.315 31.2631V22.5337H106.303V31.6775C106.303 35.2876 108.723 37.7144 112.314 37.7144C114.507 37.7144 116.313 36.8285 117.449 35.218V37.379H119.487V22.5274H117.449L117.452 31.2029Z" fill="#0D2F5B"/>
<path d="M95.8995 22.2078C91.4288 22.2078 88.0687 25.5458 88.0687 29.9753C88.0687 34.4049 91.4414 37.7302 95.9121 37.727C100.383 37.7239 103.724 34.3922 103.724 29.969C103.724 25.5458 100.351 22.2047 95.8995 22.2078ZM95.8995 34.9617C92.6058 34.9617 90.1221 32.8166 90.1221 29.9658C90.1221 27.1151 92.6026 24.9668 95.8963 24.9668C99.19 24.9668 101.645 27.1278 101.645 29.9753C101.645 32.8229 99.1773 34.9617 95.9026 34.9617H95.8995Z" fill="#0D2F5B"/>
<path d="M85.2971 16.7184H83.2596V37.3916H85.2971V16.7184Z" fill="#0D2F5B"/>
<path d="M70.6385 20.0658C74.141 20.0658 77.1499 21.8819 78.2984 24.6978L78.387 24.9162H80.6492L80.5195 24.4637C79.254 20.1322 75.2863 17.2214 70.6353 17.2246C64.7599 17.2246 60.3303 21.6351 60.3303 27.4821C60.3303 33.3291 64.7599 37.7333 70.6448 37.7302C75.2958 37.7302 79.2634 34.8162 80.5195 30.4847L80.6524 30.0323H78.3902L78.3016 30.2537C77.1531 33.0665 74.1473 34.8858 70.6448 34.8889C66.0065 34.8889 62.5103 31.706 62.5103 27.4821C62.5103 23.2582 66.0033 20.069 70.6385 20.0658Z" fill="#0D2F5B"/>
<path d="M189.663 25.1788V22.5052H187.626V37.3568H189.666V29.931C189.666 27.1562 191.742 25.4319 195.08 25.4287H195.431V22.2806H195.08C194.003 22.2488 192.936 22.4995 191.986 23.008C191.035 23.5165 190.235 24.2649 189.663 25.1788Z" fill="#0D2F5B"/>
<path d="M135.86 25.454C135.21 24.4423 134.314 23.6125 133.255 23.0424C132.196 22.4724 131.01 22.1808 129.808 22.1951C125.511 22.1951 122.274 25.5331 122.274 29.9563C122.274 34.3795 125.517 37.7112 129.814 37.7112C131.016 37.7234 132.202 37.4303 133.26 36.8592C134.318 36.2881 135.214 35.4578 135.863 34.446V37.3758H137.876V16.7025H135.844L135.86 25.454ZM130.089 34.9459C126.811 34.9459 124.34 32.8007 124.34 29.95C124.34 27.0993 126.808 24.951 130.086 24.951C133.364 24.951 135.86 27.0993 135.863 29.9468C135.867 32.7944 133.383 34.9491 130.089 34.9491V34.9459Z" fill="#0D2F5B"/>
<path d="M179.431 25.1851V22.5084H177.39V37.3568H179.428V29.9342C179.428 27.1594 181.5 25.435 184.838 25.435H185.202V22.2869H184.848C183.77 22.2541 182.703 22.5045 181.753 23.013C180.802 23.5216 180.002 24.2705 179.431 25.1851Z" fill="#0D2F5B"/>
<path d="M209.096 22.4957L203.914 34.1169H203.68L198.611 22.7109L198.516 22.5021H196.342L202.458 37.1322L202.55 37.3505H202.863L200.342 42.6185H202.996L211.381 22.4957H209.096Z" fill="#0D2F5B"/>
<path d="M166.851 22.1825C162.381 22.1825 159.011 25.5205 159.011 29.9405C159.011 34.3606 162.384 37.6985 166.851 37.6954C170.183 37.6954 173.049 35.9584 174.328 33.1614L174.555 32.6615H172.23L172.122 32.7944C171.088 34.098 169.079 34.9079 166.883 34.9079C164.035 34.9079 161.767 33.3861 161.188 31.1112H174.603L174.635 30.7948C174.661 30.5235 174.671 30.251 174.666 29.9785C174.666 25.5268 171.306 22.1793 166.851 22.1825ZM161.191 28.754C161.789 26.4855 164.038 24.9573 166.851 24.9573C169.664 24.9573 171.942 26.4728 172.518 28.754H161.191Z" fill="#0D2F5B"/>
<path d="M149.604 22.1888C148.409 22.1794 147.23 22.4734 146.179 23.0433C145.127 23.6133 144.238 24.4405 143.593 25.4477V16.6867H141.54V37.36H143.577V34.4333C144.221 35.4408 145.111 36.2681 146.162 36.8375C147.214 37.407 148.393 37.7 149.589 37.6891C153.901 37.6891 157.147 34.3542 157.147 29.931C157.147 25.5078 153.917 22.1857 149.604 22.1888ZM149.332 34.9427C146.055 34.9427 143.583 32.7976 143.58 29.9469C143.577 27.0961 146.051 24.9478 149.329 24.9478C152.607 24.9478 155.075 27.093 155.075 29.9437C155.075 32.7944 152.613 34.9427 149.332 34.9427Z" fill="#0D2F5B"/>
<path d="M13.0419 22.7457C8.07128 29.8266 8.80848 39.5748 15.1585 45.4534C15.5287 45.7983 15.9147 46.1178 16.3071 46.4247C16.6994 46.7316 17.1012 47.0259 17.5283 47.3011C24.777 52.0218 34.4144 50.3575 40.0652 43.8208C40.2297 43.631 40.3436 43.5044 40.4417 43.3557C40.4561 43.3348 40.4633 43.3098 40.4622 43.2845C40.4612 43.2591 40.4519 43.2348 40.4359 43.2152C40.4198 43.1956 40.3978 43.1817 40.3732 43.1757C40.3486 43.1696 40.3227 43.1717 40.2993 43.1817C37.123 44.5795 33.6275 45.0914 30.1836 44.6631C26.7398 44.2348 23.4762 42.8823 20.7389 40.7491C18.0017 38.6159 15.8929 35.7815 14.6364 32.5466C13.3798 29.3118 13.0223 25.7971 13.6019 22.3755C13.6083 22.3498 13.6057 22.3228 13.5943 22.2989C13.583 22.275 13.5637 22.2558 13.5398 22.2445C13.5158 22.2333 13.4887 22.2308 13.4631 22.2373C13.4375 22.2439 13.415 22.2592 13.3994 22.2806C13.295 22.3976 13.1842 22.54 13.0419 22.7457Z" fill="#FC6837"/>
<path d="M37.1513 27.2575C42.1218 20.1766 41.3815 10.4253 35.0346 4.54662C34.6612 4.20175 34.2784 3.88219 33.886 3.57845C33.4937 3.27471 33.0887 2.9773 32.6648 2.69887C25.413 -2.02175 15.7787 -0.357513 10.1247 6.17922C9.96337 6.36906 9.84946 6.49562 9.75138 6.64432C9.73348 6.66459 9.72337 6.69055 9.72286 6.71758C9.72235 6.74461 9.73147 6.77094 9.74859 6.79187C9.76571 6.81279 9.78971 6.82694 9.8163 6.83179C9.8429 6.83664 9.87035 6.83188 9.89376 6.81834C13.0702 5.41995 16.5661 4.90772 20.0102 5.33602C23.4543 5.76432 26.7183 7.11716 29.4555 9.25094C32.1927 11.3847 34.3011 14.2198 35.5569 17.4553C36.8127 20.6908 37.169 24.206 36.5881 27.6277C36.5835 27.6532 36.5876 27.6794 36.5995 27.7024C36.6115 27.7253 36.6308 27.7437 36.6543 27.7545C36.6778 27.7654 36.7042 27.7681 36.7294 27.7624C36.7547 27.7566 36.7773 27.7426 36.7937 27.7226C36.8981 27.6055 37.0057 27.4632 37.1513 27.2575Z" fill="#FC6837"/>
<path d="M27.3524 13.0861C20.3063 8.06491 10.5518 8.73567 4.62886 15.0446C4.28083 15.4116 3.95811 15.7976 3.6512 16.1868C3.3443 16.576 3.04372 16.9778 2.76529 17.3986C-2.00595 24.6187 -0.398662 34.2625 6.1001 39.9639C6.28678 40.1285 6.4165 40.2423 6.56204 40.3436C6.58293 40.358 6.60792 40.3652 6.63325 40.3641C6.65858 40.363 6.68288 40.3538 6.70251 40.3377C6.72213 40.3217 6.73601 40.2997 6.74206 40.2751C6.74811 40.2505 6.74601 40.2245 6.73606 40.2012C5.35972 37.015 4.87181 33.5155 5.32412 30.0743C5.77644 26.6331 7.15209 23.3786 9.30506 20.6562C11.458 17.9339 14.308 15.8453 17.5523 14.6121C20.7967 13.379 24.3144 13.0474 27.7321 13.6525C27.7577 13.6589 27.7848 13.6563 27.8087 13.6449C27.8326 13.6336 27.8518 13.6143 27.863 13.5904C27.8743 13.5664 27.8768 13.5393 27.8702 13.5137C27.8636 13.4881 27.8484 13.4655 27.827 13.45C27.6973 13.3424 27.5549 13.2317 27.3524 13.0861Z" fill="#FC6837"/>
<path d="M22.6697 37.1638C29.7159 42.185 39.4703 41.5143 45.3933 35.2085C45.7413 34.8383 46.064 34.4555 46.3709 34.0663C46.6778 33.6772 46.9784 33.2753 47.2568 32.8514C52.0281 25.6344 50.4208 15.9875 43.9252 10.286C43.7353 10.1215 43.6088 10.0108 43.4633 9.90951C43.4426 9.89449 43.4177 9.88661 43.3922 9.88707C43.3667 9.88754 43.342 9.89631 43.322 9.91207C43.3019 9.92783 43.2876 9.9497 43.2811 9.97437C43.2746 9.99904 43.2764 10.0251 43.2861 10.0487C44.6618 13.2349 45.1494 16.734 44.6971 20.1749C44.2448 23.6158 42.8695 26.87 40.7171 29.5924C38.5647 32.3148 35.7155 34.4037 32.4718 35.6376C29.228 36.8715 25.7108 37.2043 22.2932 36.6007C22.2682 36.5963 22.2424 36.6003 22.2198 36.6119C22.1972 36.6235 22.179 36.6421 22.168 36.665C22.1569 36.6878 22.1535 36.7137 22.1585 36.7386C22.1634 36.7635 22.1762 36.7862 22.1951 36.8031C22.3249 36.9075 22.4672 37.0183 22.6697 37.1638Z" fill="#FC6837"/>
</g>
<defs>
<clipPath id="clip0">
<rect width="211.381" height="50" fill="white"/>
</clipPath>
</defs>
</svg>
