<svg xmlns="http://www.w3.org/2000/svg" xmlns:xlink="http://www.w3.org/1999/xlink" width="157" height="90" viewBox="0 0 157 90"><defs><path id="a" d="M71.8.23s5.98 1.084 14.27 15.532c4.358 7.597 8.807 18.28 23.132 19.42 15.43 1.23 22.86 0 23.667 0 .99 0 1-1.474.117-1.705C113.73 25.28 115.755.393 94.95.103 89.647.027 85.606 0 82.513 0c-8.935 0-9.96.23-10.71.23"/></defs><clipPath id="b"><use xlink:href="#a" overflow="visible"/></clipPath><linearGradient id="c" gradientUnits="userSpaceOnUse" x1="21.704" y1="428.171" x2="22.364" y2="428.171" gradientTransform="matrix(93.631 0 0 93.631 -1960.321 -40071.754)"><stop offset="0" stop-color="#25728A"/><stop offset=".015" stop-color="#24748B"/><stop offset=".249" stop-color="#148E9F"/><stop offset=".488" stop-color="#09A1AE"/><stop offset=".735" stop-color="#02ACB6"/><stop offset="1" stop-color="#00B0B9"/></linearGradient><path clip-path="url(#b)" fill="url(#c)" d="M71.8 0h62.07v36.41H71.8z"/><defs><path id="d" d="M57.06 1.025C43.12 4.098 37.56 20.795 33.87 27.47c-4.89 8.84-10.418 18.025-17.402 22.82-1.004.69-.84 1.733-.696 2.112.396 1.04 1.583 1.296 2.744 1.366 9.155.547 27.43 2.39 36.722-4.756 12.18-9.37 16.092-29.787 25.126-38.4-4.1-5.626-7.174-9.67-15.81-10.085l-.8-.003c-3.364 0-5.384.213-6.69.5"/></defs><clipPath id="e"><use xlink:href="#d" overflow="visible"/></clipPath><linearGradient id="f" gradientUnits="userSpaceOnUse" x1="21.574" y1="427.286" x2="22.235" y2="427.286" gradientTransform="matrix(97.976 0 0 97.976 -2098.076 -41835.262)"><stop offset="0" stop-color="#2C6F95"/><stop offset="1" stop-color="#004C97"/></linearGradient><path clip-path="url(#e)" fill="url(#f)" d="M15.46.523h64.902v55.632h-64.9z"/><g fill="#00263A"><path d="M143.645 89.764V75.008h2.734l7.79 10.752V75.008h2.63v14.756h-2.734l-7.79-10.98v10.98zM141.91 75.008l-6.47 14.756h-2.94l-6.192-14.756h3.25l4.57 11.3 4.56-11.3zM121.004 75.01h-2.94l-6.265 14.754h2.806l1.638-4.024h6.534l1.682 4.024h2.94l-6.396-14.755zm-3.793 8.357l2.257-5.54 2.32 5.54h-4.576zM97.02 89.764V75.008h2.736v6.088h7.274v-6.088h2.735v14.756h-2.735V83.47h-7.274v6.294zM87.13 75.008h-2.633V85.76l-7.79-10.752h-2.733v14.756h2.63v-10.98l7.79 10.98h2.735zM63.333 83.52H70.4v-2.444h-7.037V77.36h7.388V75.01h-10.1v14.756h10.246V87.39h-7.563zM53.955 87.246c-.633.165-1.197.248-1.693.248-3.343 0-5.014-1.772-5.014-5.314 0-3.268 1.77-4.9 5.314-4.9 1.48 0 2.854.274 4.127.824v-2.476c-1.274-.48-2.72-.722-4.335-.722-5.297 0-7.945 2.424-7.945 7.274 0 5.125 2.603 7.687 7.81 7.687 1.79 0 3.278-.262 4.47-.785v-6.13h-2.736v4.294zM37.07 75.01h-2.942l-6.264 14.754h2.807l1.64-4.024h6.533l1.682 4.024h2.94L37.07 75.01zm-3.794 8.357l2.256-5.54 2.32 5.54h-4.576zM26.934 75.008H23.59l-5.147 5.71h-1.89v-5.71H13.82v14.756h2.734v-6.7h1.707l5.548 6.7h3.786L20.64 81.89zM10.614 83.307c-.385-.522-.87-.932-1.44-1.222-.58-.293-1.218-.52-1.895-.673-.683-.155-1.335-.322-1.94-.495-.604-.175-1.12-.405-1.53-.683-.422-.287-.646-.7-.646-1.197 0-.308.13-.604.378-.86.247-.254.555-.46.916-.61.35-.147.732-.247 1.13-.3.387-.05.732-.076 1.026-.076.46 0 .912.023 1.343.066.427.042.81.09 1.144.14.286.043.597.1.927.168v-2.51c-.405-.06-1.926-.276-3.17-.276 0 0-.362-.007-.543-.007-.814 0-1.6.076-2.34.224-.73.145-1.385.395-1.945.742-.556.342-1.005.804-1.335 1.374C.367 77.68.2 78.393.2 79.235c0 .85.19 1.53.56 2.024.378.502.86.914 1.433 1.223.578.314 1.212.558 1.884.726.678.168 1.327.353 1.928.548.602.197 1.112.434 1.514.704.377.254.635.676.635 1.092 0 .417-.16.67-.37.913-.25.285-.558.514-.918.68-.353.16-.74.277-1.152.342-.41.064-.785.097-1.116.097-.488 0-1.003-.032-1.53-.098-.517-.065-1.002-.137-1.443-.216-.384-.07-.827-.16-1.32-.273v2.634c.58.093 2.31.354 3.527.354l1.043.01c.717 0 1.46-.08 2.21-.233.747-.153 1.43-.41 2.035-.766.6-.352 1.1-.823 1.486-1.403.382-.574.576-1.297.576-2.15 0-.064-.022-.368-.022-.37-.046-.742-.23-1.337-.548-1.77"/></g></svg>