<?xml version="1.0" encoding="UTF-8" standalone="no"?>
<!-- Created with Inkscape (http://www.inkscape.org/) -->

<svg
   version="1.1"
   id="svg1"
   width="188.97333"
   height="52.799999"
   viewBox="0 0 188.97333 52.799999"
   sodipodi:docname="LTF.eps"
   xmlns:inkscape="http://www.inkscape.org/namespaces/inkscape"
   xmlns:sodipodi="http://sodipodi.sourceforge.net/DTD/sodipodi-0.dtd"
   xmlns="http://www.w3.org/2000/svg"
   xmlns:svg="http://www.w3.org/2000/svg">
  <defs
     id="defs1" />
  <sodipodi:namedview
     id="namedview1"
     pagecolor="#ffffff"
     bordercolor="#000000"
     borderopacity="0.25"
     inkscape:showpageshadow="2"
     inkscape:pageopacity="0.0"
     inkscape:pagecheckerboard="0"
     inkscape:deskcolor="#d1d1d1">
    <inkscape:page
       x="0"
       y="0"
       inkscape:label="1"
       id="page1"
       width="188.97333"
       height="52.799999"
       margin="0"
       bleed="0" />
  </sodipodi:namedview>
  <g
     id="g1"
     inkscape:groupmode="layer"
     inkscape:label="1">
    <g
       id="group-R5">
      <path
         id="path2"
         d="M 3.78906,266.805 H 63.5313 c 2.1835,0 3.7695,1.586 3.7695,3.769 v 5.156 c 0,2.188 -1.586,3.774 -3.7695,3.774 H 14.707 V 390.25 c 0,2.18 -1.5859,3.766 -3.7695,3.766 H 3.78906 c -2.18359,0 -3.7695287,-1.586 -3.7695287,-3.766 V 270.574 c 0,-2.183 1.5859387,-3.769 3.7695287,-3.769"
         style="fill:#023a53;fill-opacity:1;fill-rule:nonzero;stroke:none"
         transform="matrix(0.13333333,0,0,-0.13333333,0,52.8)" />
      <path
         id="path3"
         d="m 157.777,390.445 c 0,2.184 -1.586,3.571 -3.769,3.571 h -5.957 c -3.176,0 -3.969,-1.192 -5.156,-3.368 l -23.422,-43.269 c -3.973,-7.34 -8.336,-15.477 -8.535,-16.672 -0.2,-1.191 -0.395,-1.785 -1.192,-1.785 -0.793,0 -0.996,0.594 -1.187,1.785 -0.2,1.195 -4.563,9.527 -8.536,16.672 l -23.4214,43.269 c -1.1875,2.176 -1.9883,3.368 -5.1563,3.368 h -5.9609 c -2.1797,0 -3.7656,-1.387 -3.7656,-3.571 0,-1.984 1.1875,-4.566 2.9765,-7.738 l 37.7067,-67.48 v -44.653 c 0,-2.183 1.594,-3.773 3.774,-3.773 h 7.14 c 2.184,0 3.778,1.59 3.778,3.773 v 44.653 l 37.707,67.48 c 1.781,3.172 2.976,5.555 2.976,7.738"
         style="fill:#023a53;fill-opacity:1;fill-rule:nonzero;stroke:none"
         transform="matrix(0.13333333,0,0,-0.13333333,0,52.8)" />
      <path
         id="path4"
         d="m 184.105,266.805 h 5.954 c 2.183,0 3.777,1.586 3.777,3.769 v 78.594 c 0,6.348 -0.203,12.703 -0.398,15.48 -0.2,1.383 0,1.786 0.593,1.786 0.59,0 0.793,-0.2 1.192,-1.59 0.593,-1.785 4.562,-8.535 8.73,-15.676 l 46.84,-79.387 c 0.992,-1.586 1.984,-2.976 4.168,-2.976 h 6.152 c 2.184,0 3.774,1.586 3.774,3.769 V 390.25 c 0,2.18 -1.59,3.766 -3.774,3.766 h -5.957 c -2.179,0 -3.765,-1.586 -3.765,-3.766 v -78.594 c 0,-6.351 0.195,-12.699 0.394,-15.484 0.195,-1.387 0,-1.781 -0.597,-1.781 -0.59,0 -0.793,0.199 -1.188,1.586 -0.594,1.789 -5.359,9.925 -8.73,15.679 l -46.844,79.387 c -0.988,1.785 -1.985,2.973 -4.168,2.973 h -6.153 c -2.183,0 -3.769,-1.586 -3.769,-3.766 V 270.574 c 0,-2.183 1.586,-3.769 3.769,-3.769"
         style="fill:#023a53;fill-opacity:1;fill-rule:nonzero;stroke:none"
         transform="matrix(0.13333333,0,0,-0.13333333,0,52.8)" />
      <path
         id="path5"
         d="m 387.832,278.711 v 48.027 c 0,2.184 -1.586,3.774 -3.766,3.774 h -29.968 c -2.184,0 -3.778,-1.59 -3.778,-3.774 v -5.359 c 0,-2.18 1.594,-3.774 3.778,-3.774 h 19.05 v -32.542 c 0,-2.583 -5.562,-7.543 -21.832,-7.543 -25.41,0 -43.269,16.871 -43.269,52.793 0,35.523 17.859,52.789 43.269,52.789 13.297,0 22.032,-3.571 28.582,-7.543 0.989,-0.59 2.176,-0.989 3.172,-0.989 1.785,0 3.176,1.387 3.176,3.571 v 4.168 c 0,2.98 -2.18,5.16 -4.965,6.945 -4.168,2.582 -16.074,6.746 -31.75,6.746 -32.75,0 -56.371,-23.219 -56.371,-65.687 0,-42.473 23.621,-65.493 56.371,-65.493 27.188,0 38.301,8.336 38.301,13.891"
         style="fill:#023a53;fill-opacity:1;fill-rule:nonzero;stroke:none"
         transform="matrix(0.13333333,0,0,-0.13333333,0,52.8)" />
      <path
         id="path6"
         d="m 423.094,266.805 h 29.765 c 26.204,0 42.481,14.285 42.481,36.32 0,15.672 -7.945,25.598 -22.43,31.75 10.32,5.164 16.473,14.488 16.473,26.793 0,19.453 -14.094,32.348 -39.098,32.348 h -27.191 c -2.184,0 -3.774,-1.586 -3.774,-3.766 V 270.574 c 0,-2.183 1.59,-3.769 3.774,-3.769 m 10.918,115.304 h 14.285 c 17.863,0 26.797,-5.953 26.797,-20.441 0,-14.289 -8.336,-22.422 -24.809,-22.422 h -16.273 z m 0,-54.578 h 17.066 c 20.051,0 29.375,-8.332 29.375,-24.406 0,-16.875 -10.519,-24.414 -29.176,-24.414 h -17.265 v 48.82"
         style="fill:#023a53;fill-opacity:1;fill-rule:nonzero;stroke:none"
         transform="matrix(0.13333333,0,0,-0.13333333,0,52.8)" />
      <path
         id="path7"
         d="m 547.746,270.574 c 0,-2.179 1.59,-3.773 3.766,-3.773 h 7.148 c 2.184,0 3.774,1.594 3.774,3.773 v 44.653 l 37.711,67.48 c 1.781,3.172 2.976,5.559 2.976,7.738 0,2.184 -1.59,3.575 -3.777,3.575 h -5.949 c -3.18,0 -3.969,-1.188 -5.165,-3.375 l -23.417,-43.266 c -3.969,-7.344 -8.333,-15.477 -8.536,-16.668 -0.199,-1.191 -0.394,-1.789 -1.187,-1.789 -0.793,0 -0.996,0.598 -1.192,1.789 -0.199,1.191 -4.562,9.527 -8.539,16.668 l -23.414,43.266 c -1.191,2.187 -1.988,3.375 -5.16,3.375 h -5.957 c -2.18,0 -3.765,-1.391 -3.765,-3.575 0,-1.984 1.183,-4.566 2.972,-7.738 l 37.711,-67.48 v -44.653"
         style="fill:#023a53;fill-opacity:1;fill-rule:nonzero;stroke:none"
         transform="matrix(0.13333333,0,0,-0.13333333,0,52.8)" />
      <path
         id="path8"
         d="m 645.59,329.32 h -36.121 c -2.184,0 -3.778,-1.586 -3.778,-3.773 v -5.949 c 0,-2.188 1.594,-3.774 3.778,-3.774 h 36.121 c 2.183,0 3.765,1.586 3.765,3.774 v 5.949 c 0,2.187 -1.582,3.773 -3.765,3.773"
         style="fill:#023a53;fill-opacity:1;fill-rule:nonzero;stroke:none"
         transform="matrix(0.13333333,0,0,-0.13333333,0,52.8)" />
      <path
         id="path9"
         d="m 687.719,270.574 c 0,-2.179 1.586,-3.773 3.769,-3.773 h 7.149 c 2.179,0 3.765,1.594 3.765,3.773 v 110.739 h 33.352 c 2.176,0 3.766,1.593 3.766,3.773 v 5.164 c 0,2.18 -1.59,3.77 -3.766,3.77 h -81.379 c -2.184,0 -3.77,-1.59 -3.77,-3.77 v -5.164 c 0,-2.18 1.586,-3.773 3.77,-3.773 h 33.344 V 270.574"
         style="fill:#023a53;fill-opacity:1;fill-rule:nonzero;stroke:none"
         transform="matrix(0.13333333,0,0,-0.13333333,0,52.8)" />
      <path
         id="path10"
         d="m 837.484,270.375 c 0,1.984 -1.39,5.164 -2.386,7.941 l -41.875,112.133 c -0.793,2.184 -1.789,3.571 -3.965,3.571 h -4.77 c -2.183,0 -3.172,-1.387 -3.965,-3.571 L 738.641,278.316 c -0.989,-2.777 -2.379,-5.957 -2.379,-7.941 0,-2.184 1.39,-3.57 3.574,-3.57 h 6.348 c 2.582,0 3.773,0.988 4.566,3.375 l 12.305,34.535 h 47.629 l 12.312,-34.535 c 0.793,-2.387 2.184,-3.375 4.563,-3.375 h 6.355 c 2.18,0 3.57,1.386 3.57,3.57 m -70.261,45.844 13.695,38.105 c 1.586,4.766 4.961,13.696 4.961,14.883 0,1.191 0.203,1.789 0.992,1.789 0.797,0 0.992,-0.598 0.992,-1.789 0,-1.187 3.176,-10.117 4.969,-14.883 l 13.691,-38.105 h -39.3"
         style="fill:#023a53;fill-opacity:1;fill-rule:nonzero;stroke:none"
         transform="matrix(0.13333333,0,0,-0.13333333,0,52.8)" />
      <path
         id="path11"
         d="m 857.898,266.805 h 6.348 c 2.578,0 3.77,0.992 4.563,3.375 l 12.304,34.531 h 47.633 l 12.309,-34.531 c 0.793,-2.383 2.187,-3.375 4.566,-3.375 h 6.352 c 2.179,0 3.574,1.39 3.574,3.566 0,1.984 -1.395,5.164 -2.387,7.942 l -41.871,112.132 c -0.801,2.188 -1.793,3.571 -3.973,3.571 h -4.761 c -2.184,0 -3.18,-1.383 -3.973,-3.571 L 856.707,278.313 c -0.996,-2.778 -2.383,-5.958 -2.383,-7.942 0,-2.176 1.387,-3.566 3.574,-3.566 m 41.082,87.519 c 1.586,4.762 4.961,13.699 4.961,14.887 0,1.191 0.2,1.785 0.989,1.785 0.8,0 0.996,-0.594 0.996,-1.785 0,-1.188 3.179,-10.125 4.965,-14.887 l 13.691,-38.101 h -39.301 l 13.699,38.101"
         style="fill:#023a53;fill-opacity:1;fill-rule:nonzero;stroke:none"
         transform="matrix(0.13333333,0,0,-0.13333333,0,52.8)" />
      <path
         id="path12"
         d="m 1060.15,273.949 c -1.79,0.598 -2.78,1.586 -4.57,4.364 l -21.43,32.75 c -3.57,5.554 -6.55,9.125 -8.73,10.316 20.44,4.766 27.98,20.445 27.98,35.73 0,23.02 -12.7,36.911 -38.9,36.911 h -32.148 c -2.188,0 -3.774,-1.59 -3.774,-3.77 V 270.574 c 0,-2.179 1.586,-3.773 3.774,-3.773 h 7.144 c 2.18,0 3.774,1.594 3.774,3.773 v 49.614 h 16.27 c 2.98,0 3.77,-1.184 5.56,-3.965 l 23.42,-37.512 c 6.74,-10.719 9.13,-11.91 13.49,-11.91 h 7.94 c 2.18,0 3.57,1.39 3.57,3.578 0,1.781 -0.99,2.777 -3.37,3.57 m -50.21,58.149 h -16.67 v 50.015 h 17.66 c 18.65,0 27.59,-7.148 27.59,-25.004 0,-18.062 -9.92,-25.011 -28.58,-25.011"
         style="fill:#023a53;fill-opacity:1;fill-rule:nonzero;stroke:none"
         transform="matrix(0.13333333,0,0,-0.13333333,0,52.8)" />
      <path
         id="path13"
         d="m 1120,266.805 c 26.2,0 42.47,14.285 42.47,36.32 0,15.672 -7.93,25.598 -22.42,31.75 10.32,5.164 16.47,14.488 16.47,26.793 0,19.453 -14.09,32.348 -39.1,32.348 h -27.19 c -2.18,0 -3.78,-1.586 -3.78,-3.766 V 270.574 c 0,-2.183 1.6,-3.769 3.78,-3.769 z m -18.85,115.304 h 14.28 c 17.87,0 26.8,-5.953 26.8,-20.441 0,-14.289 -8.33,-22.422 -24.81,-22.422 h -16.27 z m 0,-54.578 h 17.07 c 20.04,0 29.37,-8.332 29.37,-24.406 0,-16.875 -10.52,-24.414 -29.17,-24.414 h -17.27 v 48.82"
         style="fill:#023a53;fill-opacity:1;fill-rule:nonzero;stroke:none"
         transform="matrix(0.13333333,0,0,-0.13333333,0,52.8)" />
      <path
         id="path14"
         d="m 1269.07,266.805 h 32.35 c 2.18,0 3.77,1.586 3.77,3.769 v 5.156 c 0,2.188 -1.59,3.774 -3.77,3.774 h -25.2 l -17.87,47.832 h 30.17 c 2.18,0 3.77,1.586 3.77,3.773 v 5.157 c 0,2.183 -1.59,3.773 -3.77,3.773 h -34.93 l -15.48,41.277 h 60.73 c 2.18,0 3.77,1.586 3.77,3.77 v 5.164 c 0,2.18 -1.59,3.766 -3.77,3.766 H 1226 c -2.18,0 -3.18,-1.383 -3.97,-3.571 l -41.88,-112.132 c -0.99,-2.778 -2.38,-5.958 -2.38,-7.942 0,-2.176 1.39,-3.566 3.57,-3.566 h 6.35 c 2.58,0 3.78,0.992 4.57,3.375 l 12.31,34.531 h 47.63 l 12.3,-34.531 c 0.8,-2.383 2.19,-3.375 4.57,-3.375 m -60.33,49.418 13.69,38.101 c 1.59,4.762 4.96,13.699 4.96,14.887 0,1.191 0.2,1.785 0.99,1.785 0.8,0 0.99,-0.594 0.99,-1.785 0,-1.188 3.18,-10.125 4.97,-14.887 l 13.7,-38.101 h -39.3"
         style="fill:#023a53;fill-opacity:1;fill-rule:nonzero;stroke:none"
         transform="matrix(0.13333333,0,0,-0.13333333,0,52.8)" />
      <path
         id="path15"
         d="m 1412.12,273.949 c -1.79,0.598 -3.18,2.184 -4.96,4.364 l -40.09,51.007 c -1.98,2.383 -3.77,3.965 -5.76,4.563 2.19,0.398 4.57,2.383 5.96,3.969 l 39.1,44.66 c 1.78,1.98 3.37,3.769 4.96,4.363 2.38,0.793 3.37,1.586 3.37,3.57 0,2.184 -1.39,3.575 -3.57,3.575 h -6.75 c -3.97,0 -6.74,-2.184 -9.92,-5.954 l -37.91,-43.66 c -3.17,-3.773 -7.54,-5.558 -12.3,-5.558 v 51.402 c 0,2.18 -1.59,3.77 -3.78,3.77 h -7.14 c -2.19,0 -3.77,-1.59 -3.77,-3.77 V 270.574 c 0,-2.179 1.58,-3.773 3.77,-3.773 h 7.14 c 2.19,0 3.78,1.594 3.78,3.773 v 56.762 c 5.15,0 7.93,-1.391 11.71,-6.152 l 37.9,-48.231 c 2.78,-3.57 5.76,-6.152 9.93,-6.152 h 8.13 c 2.19,0 3.57,1.39 3.57,3.578 0,1.984 -0.99,2.777 -3.37,3.57"
         style="fill:#023a53;fill-opacity:1;fill-rule:nonzero;stroke:none"
         transform="matrix(0.13333333,0,0,-0.13333333,0,52.8)" />
      <path
         id="path16"
         d="M 105.551,205.109 H 5.86328 C 2.46875,205.109 0,202.641 0,199.246 V 13.1328 C 0,9.74219 2.46875,7.27344 5.86328,7.27344 H 33.0234 c 3.3946,0 5.8633,2.46875 5.8633,5.85936 v 81.1758 h 55.2461 c 3.3945,0 5.8633,2.4687 5.8633,5.8634 v 22.223 c 0,3.39 -2.4688,5.867 -5.8633,5.867 H 38.8867 v 42.894 h 66.6643 c 3.394,0 5.863,2.469 5.863,5.867 v 22.223 c 0,3.395 -2.469,5.863 -5.863,5.863"
         style="fill:#023a53;fill-opacity:1;fill-rule:nonzero;stroke:none"
         transform="matrix(0.13333333,0,0,-0.13333333,0,52.8)" />
      <path
         id="path17"
         d="m 505.512,18.0742 c -3.391,1.543 -5.242,2.4688 -8.024,7.0977 l -25.922,43.2148 c -6.484,10.7969 -10.804,16.9727 -17.597,20.0586 27.164,6.7891 40.125,31.4807 40.125,56.7887 0,35.801 -22.223,59.875 -59.875,59.875 h -68.512 c -3.402,0 -5.867,-2.472 -5.867,-5.863 V 13.1328 c 0,-3.39061 2.465,-5.86327 5.867,-5.86327 h 27.152 c 3.403,0 5.868,2.47266 5.868,5.86327 V 84.125 h 16.355 c 4.32,0 6.172,-1.8555 8.645,-6.1758 L 452.43,26.7148 C 460.453,12.2109 464.773,7.26953 474.652,7.26953 h 29.317 c 3.394,0 5.554,2.16406 5.554,5.55467 0,3.086 -1.847,4.3281 -4.011,5.25 M 420.641,114.68 h -21.914 v 59.566 h 22.839 c 22.215,0 33.332,-8.027 33.332,-29.633 0,-21.91 -11.73,-29.933 -34.257,-29.933"
         style="fill:#023a53;fill-opacity:1;fill-rule:nonzero;stroke:none"
         transform="matrix(0.13333333,0,0,-0.13333333,0,52.8)" />
      <path
         id="path18"
         d="m 594.328,126.098 c -17.285,4.629 -27.773,11.109 -27.773,25 0,17.285 11.722,23.148 26.226,23.148 20.371,0 30.559,-9.875 37.969,-14.816 3.082,-2.157 5.246,-3.399 8.332,-3.399 3.703,0 6.481,2.477 6.481,7.719 v 18.215 c 0,6.476 -2.469,10.183 -8.954,13.883 -8.945,4.941 -24.691,12.347 -49.683,12.347 -32.106,0 -62.039,-18.211 -62.039,-57.097 0,-36.11 25.922,-51.2347 53.086,-58.3324 20.058,-5.2461 31.48,-12.039 31.48,-28.3984 0,-19.1367 -14.195,-24.9961 -28.394,-24.9961 -18.211,0 -33.641,8.6445 -43.825,15.4336 -3.089,2.1562 -5.246,3.3945 -8.648,3.3945 -4.012,0 -6.781,-2.4726 -6.781,-8.0273 V 32.5781 c 0,-6.4804 2.156,-10.1836 9.254,-14.8125 8.027,-5.2461 27.164,-13.58201 54.316,-13.58201 34.57,0 65.746,20.37501 65.746,59.26171 0,40.7387 -24.387,54.0117 -56.793,62.6527"
         style="fill:#023a53;fill-opacity:1;fill-rule:nonzero;stroke:none"
         transform="matrix(0.13333333,0,0,-0.13333333,0,52.8)" />
      <path
         id="path19"
         d="m 813.449,205.109 h -25.613 c -4.637,0 -6.488,-1.543 -8.332,-5.25 l -26.238,-53.703 c -4.938,-9.875 -11.11,-23.144 -11.11,-25.613 0,-2.469 -0.621,-3.398 -1.851,-3.398 -1.235,0 -1.856,0.929 -1.856,3.398 0,2.469 -6.176,15.43 -11.109,25.613 l -26.227,53.703 c -1.855,3.707 -3.707,5.25 -8.34,5.25 h -25.617 c -3.394,0 -5.859,-2.468 -5.859,-5.554 0,-3.399 1.848,-6.793 4.32,-11.418 L 720.863,80.4219 V 13.1328 c 0,-3.39061 2.465,-5.85936 5.864,-5.85936 h 27.152 c 3.402,0 5.867,2.46875 5.867,5.85936 v 67.2891 l 55.242,107.7151 c 2.473,4.625 4.328,8.019 4.328,11.418 0,3.086 -2.472,5.554 -5.867,5.554"
         style="fill:#023a53;fill-opacity:1;fill-rule:nonzero;stroke:none"
         transform="matrix(0.13333333,0,0,-0.13333333,0,52.8)" />
      <path
         id="path20"
         d="m 975.602,205.109 h -23.457 c -3.395,0 -5.864,-2.468 -5.864,-5.863 v -97.531 c 0,-9.8791 0.309,-19.7541 0.617,-24.0744 0.305,-2.1601 0,-2.7773 -0.925,-2.7773 -0.926,0 -1.235,0.3086 -1.856,2.4726 -0.922,2.7774 -8.019,16.6641 -14.195,27.4691 l -55.863,95.675 c -1.539,2.778 -3.09,4.629 -6.481,4.629 h -23.762 c -3.402,0 -5.863,-2.468 -5.863,-5.863 V 13.1328 c 0,-3.39061 2.461,-5.85936 5.863,-5.85936 h 23.457 c 3.391,0 5.86,2.46875 5.86,5.85936 v 97.5352 c 0,9.875 -0.309,19.75 -0.613,24.07 -0.317,2.164 0,2.778 0.921,2.778 0.93,0 1.235,-0.305 1.856,-2.469 0.922,-2.777 6.789,-14.813 14.187,-27.465 l 55.868,-95.6757 c 1.546,-2.47271 3.086,-4.63286 6.484,-4.63286 h 23.766 c 3.39,0 5.863,2.46875 5.863,5.85936 V 199.246 c 0,3.395 -2.473,5.863 -5.863,5.863"
         style="fill:#023a53;fill-opacity:1;fill-rule:nonzero;stroke:none"
         transform="matrix(0.13333333,0,0,-0.13333333,0,52.8)" />
      <path
         id="path21"
         d="m 1051.67,205.109 h -27.16 c -3.4,0 -5.86,-2.468 -5.86,-5.863 V 13.1328 c 0,-3.39061 2.46,-5.85936 5.86,-5.85936 h 27.16 c 3.39,0 5.87,2.46875 5.87,5.85936 V 199.246 c 0,3.395 -2.48,5.863 -5.87,5.863"
         style="fill:#023a53;fill-opacity:1;fill-rule:nonzero;stroke:none"
         transform="matrix(0.13333333,0,0,-0.13333333,0,52.8)" />
      <path
         id="path22"
         d="m 1232.03,205.109 h -23.46 c -3.39,0 -5.86,-2.468 -5.86,-5.863 v -97.531 c 0,-9.8791 0.3,-19.7541 0.62,-24.0744 0.3,-2.1601 0,-2.7773 -0.93,-2.7773 -0.93,0 -1.23,0.3086 -1.85,2.4726 -0.93,2.7774 -8.03,16.6641 -14.2,27.4691 l -55.87,95.675 c -1.53,2.778 -3.08,4.629 -6.47,4.629 h -23.77 c -3.4,0 -5.86,-2.468 -5.86,-5.863 V 13.1328 c 0,-3.39061 2.46,-5.85936 5.86,-5.85936 h 23.46 c 3.39,0 5.86,2.46875 5.86,5.85936 v 97.5352 c 0,9.875 -0.31,19.75 -0.61,24.07 -0.31,2.164 0,2.778 0.92,2.778 0.93,0 1.23,-0.305 1.85,-2.469 0.93,-2.777 6.79,-14.813 14.2,-27.465 l 55.86,-95.6757 c 1.55,-2.47271 3.09,-4.63286 6.48,-4.63286 h 23.77 c 3.39,0 5.86,2.46875 5.86,5.85936 V 199.246 c 0,3.395 -2.47,5.863 -5.86,5.863"
         style="fill:#023a53;fill-opacity:1;fill-rule:nonzero;stroke:none"
         transform="matrix(0.13333333,0,0,-0.13333333,0,52.8)" />
      <path
         id="path23"
         d="m 1411.48,112.207 h -49.99 c -3.4,0 -5.86,-2.465 -5.86,-5.863 V 84.4297 c 0,-3.3906 2.46,-5.8633 5.86,-5.8633 h 20.37 V 49.8633 c 0,-6.4805 -8.65,-11.7266 -25,-11.7266 -34.26,0 -51.24,21.9141 -51.24,67.8983 0,46.301 19.45,68.211 54.94,68.211 21.6,0 26.54,-3.707 41.67,-11.113 2.47,-1.235 5.24,-2.469 6.79,-2.469 3.39,0 5.55,2.16 5.55,5.867 v 20.68 c 0,4.32 -3.09,7.711 -7.72,10.492 -7.71,4.625 -25.3,10.496 -49.68,10.496 -51.55,0 -91.36,-26.551 -91.36,-102.164 0,-75.617 38.58,-101.85141 89.82,-101.85141 37.03,0 61.72,10.18751 61.72,21.60551 v 80.5549 c 0,3.398 -2.47,5.863 -5.87,5.863"
         style="fill:#023a53;fill-opacity:1;fill-rule:nonzero;stroke:none"
         transform="matrix(0.13333333,0,0,-0.13333333,0,52.8)" />
      <path
         id="path24"
         d="m 323.738,144.977 c -4.215,-1.317 -6.566,-5.793 -5.25,-10.012 7.168,-23.008 5.071,-47.5119 -5.914,-69.0002 -11,-21.5195 -29.679,-37.5898 -52.605,-45.246 -9.61,-3.2071 -19.375,-4.7344 -28.989,-4.7305 -38.386,0 -74.25,24.3047 -87.066,62.664 -7.762,23.2427 -6.012,48.1057 4.93,70.0317 10.945,21.918 29.765,38.265 53,46.027 20.859,6.965 42.965,6.266 63.105,-1.832 l -7.386,-13.133 c -1.067,-1.902 -0.985,-4.242 0.23,-6.062 1.078,-1.637 2.906,-2.598 4.84,-2.598 l 0.664,0.035 38.254,4.41 c 1.871,0.211 3.519,1.321 4.426,2.965 0.906,1.649 0.961,3.633 0.152,5.328 l -16.484,34.305 c -0.942,1.949 -2.891,3.223 -5.055,3.293 h -0.192 c -2.089,0 -4.031,-1.129 -5.062,-2.961 l -6.5,-11.563 c -24.176,10.27 -50.883,11.383 -76.051,2.973 -27.289,-9.113 -49.394,-28.308 -62.242,-54.055 C 121.695,130.078 119.637,100.879 128.75,73.5898 143.801,28.5391 185.914,0 230.992,0 c 11.289,0 22.762,1.78906 34.043,5.55859 26.918,8.99221 48.856,27.85941 61.774,53.12891 12.894,25.2344 15.359,54.0115 6.937,81.0395 -1.312,4.211 -5.793,6.562 -10.008,5.25"
         style="fill:#023a53;fill-opacity:1;fill-rule:nonzero;stroke:none"
         transform="matrix(0.13333333,0,0,-0.13333333,0,52.8)" />
      <path
         id="path25"
         d="m 267.684,66.6797 c -7.614,0 -11.231,-2.0274 -15.411,-4.3828 -4.515,-2.5313 -9.597,-5.3867 -18.859,-5.7149 v -0.0156 h -0.492 c -0.633,-0.0195 -1.301,-0.0234 -1.945,-0.0195 h -0.719 c -10.43,0 -15.867,3.0547 -20.668,5.75 -4.184,2.3554 -7.801,4.3828 -15.406,4.3828 -7.618,0 -11.231,-2.0274 -15.411,-4.3828 -2.386,-1.3399 -4.929,-2.7656 -8.168,-3.8633 C 184.688,41.0859 206.172,30 230.258,30 c 24.258,0 45.883,11.2422 59.957,28.8047 -2.75,1.0391 -5.004,2.2969 -7.125,3.4922 -4.188,2.3554 -7.797,4.3828 -15.406,4.3828"
         style="fill:#023a53;fill-opacity:1;fill-rule:nonzero;stroke:none"
         transform="matrix(0.13333333,0,0,-0.13333333,0,52.8)" />
      <path
         id="path26"
         d="m 304.789,88.2227 h -1.031 c -10.43,0 -15.871,3.0546 -20.668,5.75 -4.184,2.3515 -7.797,4.3789 -15.406,4.3789 -7.618,0 -11.227,-2.0274 -15.411,-4.3789 -4.511,-2.5313 -9.593,-5.3868 -18.855,-5.7188 v -0.0156 h -0.555 c -0.613,-0.0156 -1.254,-0.0195 -1.875,-0.0117 l -0.726,-0.0039 c -10.438,0 -15.871,3.0546 -20.668,5.75 -4.188,2.3515 -7.801,4.3789 -15.41,4.3789 -7.621,0 -11.227,-2.0274 -15.414,-4.3789 -4.797,-2.6954 -10.239,-5.75 -20.668,-5.75 l -1.414,0.0195 -0.973,0.0234 c 1.828,-7.3515 4.707,-14.289 8.48,-20.6367 3.832,0.7617 6.442,2.2227 9.321,3.8438 4.804,2.6953 10.246,5.75 20.668,5.75 10.425,0 15.867,-3.0547 20.668,-5.75 3.664,-2.0586 6.886,-3.8711 12.73,-4.2891 l 2.777,-0.0703 1.243,-0.0195 c 7.617,0 11.23,2.0234 15.41,4.3789 4.808,2.6953 10.246,5.75 20.672,5.75 10.425,0 15.867,-3.0547 20.671,-5.75 2.571,-1.4454 4.93,-2.7657 8.125,-3.5704 3.684,6.2618 6.508,13.086 8.309,20.3204"
         style="fill:#023a53;fill-opacity:1;fill-rule:nonzero;stroke:none"
         transform="matrix(0.13333333,0,0,-0.13333333,0,52.8)" />
      <path
         id="path27"
         d="m 153.43,106.828 c 0,-2.437 0.129,-4.851 0.347,-7.2303 l 0.032,-0.7188 3.043,-0.0937 1.25,-0.0157 c 7.609,0 11.23,2.0275 15.414,4.3755 4.8,2.703 10.234,5.757 20.668,5.757 10.429,0 15.871,-3.054 20.671,-5.757 3.704,-2.082 6.954,-3.9067 12.922,-4.2973 l 2.578,-0.0625 1.25,-0.0157 c 7.61,0 11.223,2.0275 15.407,4.3755 4.804,2.703 10.238,5.757 20.676,5.757 10.425,0 15.863,-3.054 20.667,-5.757 4.184,-2.348 7.793,-4.3755 15.403,-4.3755 h 2.984 l 0.078,1.9295 c 0.16,2.004 0.262,4.028 0.27,6.071 l 0.14,3.335 -3.765,-0.062 c -7.578,0 -11.176,2.723 -15.344,5.875 -4.781,3.617 -10.199,7.723 -20.586,7.723 -10.387,0 -15.801,-4.106 -20.59,-7.723 -4.168,-3.152 -7.765,-5.875 -15.347,-5.875 l -1.243,0.027 -2.675,0.086 c -5.875,0.547 -9.098,2.989 -12.766,5.762 -4.781,3.617 -10.203,7.723 -20.59,7.723 -10.383,0 -15.797,-4.106 -20.586,-7.723 -4.168,-3.152 -7.765,-5.875 -15.347,-5.875 l -1.239,0.027 -3.695,0.223 -0.039,-2.723 0.012,-0.742"
         style="fill:#023a53;fill-opacity:1;fill-rule:nonzero;stroke:none"
         transform="matrix(0.13333333,0,0,-0.13333333,0,52.8)" />
    </g>
  </g>
</svg>
