<?xml version="1.0" encoding="UTF-8"?>
<svg viewBox="0 0 148 43" version="1.1" xmlns="http://www.w3.org/2000/svg" xmlns:xlink="http://www.w3.org/1999/xlink">
    <title>LTF-logo</title>
    <g id="♋️-Symbols" stroke="none" stroke-width="1" fill="none" fill-rule="evenodd">
        <g id="UI/Logo/logo-blue" fill="#fff" fill-rule="nonzero">
            <g id="LTF-logo" transform="translate(0.000000, 0.954545)">
                <path d="M1.40712121,13.9927273 L7.60742424,13.9927273 C7.71143655,13.9957997 7.81218423,13.9562199 7.88629155,13.8831713 C7.96039888,13.8101226 8.00142411,13.7099548 7.99984848,13.6059091 L7.99984848,13.045303 C8.00298516,12.9402955 7.96264868,12.838648 7.888364,12.7643633 C7.81407931,12.6900786 7.71243181,12.6497421 7.60742424,12.6528788 L2.5619697,12.6528788 L2.5619697,1.16045455 C2.56670234,1.05597963 2.52766259,0.954262038 2.45424584,0.879781269 C2.38082908,0.8053005 2.27968371,0.764801313 2.17515152,0.768030303 L1.40712121,0.768030303 C1.30211364,0.76489363 1.20046614,0.805230105 1.12618146,0.87951479 C1.05189677,0.953799474 1.0115603,1.05544697 1.01469697,1.16045455 L1.01469697,13.5778788 C1.00500042,13.6866527 1.04241895,13.7943621 1.11746481,13.8736963 C1.19251067,13.9530305 1.29797671,13.9963705 1.40712121,13.9927273 L1.40712121,13.9927273 Z" id="Path"/>
                <path d="M17.3844555,1.1380303 C17.3862794,1.03535838 17.344756,0.936656775 17.2700404,0.86621064 C17.1953248,0.795764505 17.0943533,0.760113821 16.9919697,0.768030303 L16.375303,0.768030303 C16.1285905,0.731254387 15.8914624,0.87827381 15.814697,1.11560606 L13.3872727,5.60045455 C12.9780303,6.36287879 12.5239394,7.20939394 12.5015152,7.33272727 C12.4790909,7.45606061 12.4622727,7.51772727 12.3781818,7.51772727 C12.2940909,7.51772727 12.2772727,7.45606061 12.2548485,7.33272727 C12.0008896,6.73360565 11.7126345,6.1496083 11.3915152,5.58363636 L8.96409091,1.09878788 C8.88732546,0.861455628 8.65019736,0.714436205 8.40348485,0.751212121 L7.80924242,0.751212121 C7.70685879,0.743295639 7.60588736,0.778946324 7.53117176,0.849392458 C7.45645617,0.919838593 7.41493275,1.0185402 7.41675666,1.12121212 C7.45588927,1.40876733 7.56146111,1.68325409 7.72515152,1.92287879 L11.6213636,8.94727273 L11.6213636,13.5834848 C11.619788,13.6875306 11.6608132,13.7876984 11.7349206,13.860747 C11.8090279,13.9337957 11.9097756,13.9733755 12.0137879,13.970303 L12.7537879,13.970303 C12.8582628,13.9750357 12.9599804,13.9359959 13.0344612,13.8625792 C13.1089419,13.7891624 13.1494411,13.688017 13.1462121,13.5834848 L13.1462121,8.94727273 L17.0704545,1.94530303 C17.2402873,1.70633472 17.348158,1.42895289 17.3844555,1.1380303 Z" id="Path"/>
                <path d="M20.1145455,13.9927273 L20.7312121,13.9927273 C20.835687,13.9974599 20.9374046,13.9584202 21.0118854,13.8850034 C21.0863662,13.8115867 21.1268654,13.7104413 21.1236364,13.6059091 L21.1236364,5.42106061 C21.1236364,4.76515152 21.1236364,4.10363636 21.0843939,3.81772727 C21.0843939,3.6719697 21.0843939,3.63272727 21.1460606,3.63272727 C21.2077273,3.63272727 21.2245455,3.63272727 21.2693939,3.79530303 C21.3142424,3.95787879 21.740303,4.68106061 22.1719697,5.42106061 L27.0324242,13.6563636 C27.1389394,13.8245455 27.2398485,13.964697 27.4640909,13.964697 L28.1031818,13.964697 C28.2076567,13.9694296 28.3093743,13.9303899 28.3838551,13.8569731 C28.4583359,13.7835564 28.4988351,13.682411 28.4956061,13.5778788 L28.4956061,1.16045455 C28.5004452,1.05496797 28.4606569,0.952316882 28.3859882,0.877648161 C28.3113195,0.80297944 28.2086684,0.763191116 28.1031818,0.768030303 L27.4865152,0.768030303 C27.3815076,0.76489363 27.2798601,0.805230105 27.2055754,0.87951479 C27.1312907,0.953799474 27.0909542,1.05544697 27.0940909,1.16045455 L27.0940909,9.31166667 C27.0940909,9.97318182 27.0940909,10.6290909 27.1389394,10.9206061 C27.1389394,11.0607576 27.1389394,11.1056061 27.0772727,11.1056061 C27.0156061,11.1056061 26.9931818,11.1056061 26.9483333,10.9374242 C26.9034848,10.7692424 26.3877273,9.91151515 26.0457576,9.31166667 L21.185303,1.09878788 C21.119828,0.916021116 20.947759,0.793114723 20.7536364,0.790454545 L20.1145455,0.790454545 C20.0095379,0.787317873 19.9078904,0.827654347 19.8336057,0.901939032 C19.759321,0.976223717 19.7189845,1.07787122 19.7221212,1.18287879 L19.7221212,13.5778788 C19.7124247,13.6866527 19.7498432,13.7943621 19.8248891,13.8736963 C19.8999349,13.9530305 20.005401,13.9963705 20.1145455,13.9927273 Z" id="Path"/>
                <path d="M41.2493939,12.7313636 L41.2493939,7.74757576 C41.2525306,7.64256819 41.2121941,7.54092069 41.1379095,7.466636 C41.0636248,7.39235132 40.9619773,7.35201484 40.8569697,7.35515152 L37.7512121,7.35515152 C37.6462045,7.35201484 37.5445571,7.39235132 37.4702724,7.466636 C37.3959877,7.54092069 37.3556512,7.64256819 37.3587879,7.74757576 L37.3587879,8.30818182 C37.3539487,8.4136684 37.393737,8.51631948 37.4684057,8.5909882 C37.5430745,8.66565692 37.6457255,8.70544525 37.7512121,8.70060606 L39.7245455,8.70060606 L39.7245455,12.0642424 C39.7245455,12.3333333 39.1639394,12.8490909 37.4821212,12.8490909 C34.8472727,12.8490909 32.9972727,11.1 32.9972727,7.3719697 C32.9972727,3.64393939 34.8472727,1.89484848 37.4821212,1.89484848 C38.5256414,1.86515471 39.5555032,2.13770793 40.4477273,2.67969697 C40.5462629,2.73934008 40.6578888,2.77398259 40.7728788,2.78060606 C40.867256,2.77950675 40.9568292,2.73880612 41.0197325,2.6684397 C41.0826358,2.59807327 41.1130811,2.5045159 41.1036364,2.41060606 L41.1036364,1.98454545 C41.067294,1.67091824 40.8725665,1.39787636 40.5878788,1.26136364 C39.5586686,0.754627139 38.4214513,0.506402033 37.274697,0.538181818 C33.8774242,0.538181818 31.4275758,2.97121212 31.4275758,7.37757576 C31.4275758,11.7839394 33.8774242,14.1721212 37.274697,14.1721212 C40.0945455,14.1721212 41.2493939,13.3087879 41.2493939,12.7313636 Z" id="Path"/>
                <path d="M44.9101515,13.9927273 L47.9990909,13.9927273 C50.7124242,13.9927273 52.4054545,12.5127273 52.4054545,10.2254545 C52.4054545,8.59969697 51.5813636,7.56818182 50.0789394,6.93469697 C51.1482923,6.41926771 51.809192,5.31776833 51.7607576,4.13166667 C51.7607576,2.11348485 50.3031818,0.768030303 47.7075758,0.768030303 L44.9045455,0.768030303 C44.7990589,0.763191116 44.6964078,0.80297944 44.6217391,0.877648161 C44.5470703,0.952316882 44.507282,1.05496797 44.5121212,1.16045455 L44.5121212,13.5778788 C44.5002996,13.6881246 44.5377918,13.7979608 44.6145557,13.8779683 C44.6913196,13.9579758 44.799511,13.9999789 44.9101515,13.9927273 Z M46.0313636,2.02939394 L47.5001515,2.02939394 C49.3557576,2.02939394 50.3031818,2.65166667 50.3031818,4.15409091 C50.3031818,5.65651515 49.4398485,6.48060606 47.73,6.48060606 L46.0481818,6.48060606 L46.0313636,2.02939394 Z M46.0313636,7.69151515 L47.8028788,7.69151515 C49.8827273,7.69151515 50.8469697,8.56045455 50.8469697,10.2254545 C50.8469697,11.9745455 49.7537879,12.7593939 47.819697,12.7593939 L46.0425758,12.7593939 L46.0313636,7.69151515 Z" id="Shape"/>
                <path d="M57.8377273,13.5778788 C57.8361516,13.6819245 57.8771769,13.7820923 57.9512842,13.855141 C58.0253915,13.9281896 58.1261392,13.9677694 58.2301515,13.964697 L58.9701515,13.964697 C59.0746264,13.9694296 59.176344,13.9303899 59.2508248,13.8569731 C59.3253056,13.7835564 59.3658047,13.682411 59.3625758,13.5778788 L59.3625758,8.94727273 L63.2868182,1.94530303 C63.4538019,1.70741983 63.5596919,1.43210575 63.595213,1.14363636 C63.597037,1.04096444 63.5555135,0.942262835 63.4807979,0.871816701 C63.4060823,0.801370566 63.3051109,0.765719882 63.2027273,0.773636364 L62.5860606,0.773636364 C62.255303,0.773636364 62.1768182,0.896969697 62.0254545,1.12121212 L59.5924242,5.60606061 C59.1831818,6.36848485 58.7290909,7.215 58.7066667,7.33833333 C58.6842424,7.46166667 58.6674242,7.52333333 58.5833333,7.52333333 C58.4992424,7.52333333 58.4824242,7.46166667 58.46,7.33833333 C58.2069277,6.73602367 57.9167236,6.14999854 57.5910606,5.58363636 L55.1636364,1.09878788 C55.0868709,0.861455628 54.8497428,0.714436205 54.6030303,0.751212121 L53.9863636,0.751212121 C53.88398,0.743295639 53.7830086,0.778946324 53.708293,0.849392458 C53.6335774,0.919838593 53.592054,1.0185402 53.5938779,1.12121212 C53.6328276,1.4097321 53.7404985,1.6846774 53.9078788,1.92287879 L57.8321212,8.92484848 L57.8377273,13.5778788 Z" id="Path"/>
                <rect id="Rectangle" x="63.8530303" y="7.47848485" width="4.52969697" height="1.40151515" rx="0.7"/>
                <path d="M72.3630303,13.5778788 C72.3520422,13.6821756 72.385159,13.7863167 72.4543697,13.8651104 C72.5235804,13.9439041 72.6225813,13.9901739 72.7274242,13.9927273 L73.4730303,13.9927273 C73.5765513,13.9958665 73.6767745,13.9561214 73.7500086,13.8828874 C73.8232427,13.8096533 73.8629877,13.7094301 73.8598485,13.6059091 L73.8598485,2.08545455 L77.3187879,2.08545455 C77.4242745,2.09029373 77.5269255,2.05050541 77.6015943,1.97583669 C77.676263,1.90116797 77.7160513,1.79851688 77.7112121,1.6930303 L77.7112121,1.16045455 C77.7160513,1.05496797 77.676263,0.952316882 77.6015943,0.877648161 C77.5269255,0.80297944 77.4242745,0.763191116 77.3187879,0.768030303 L68.909697,0.768030303 C68.8042104,0.763191116 68.7015593,0.80297944 68.6268906,0.877648161 C68.5522219,0.952316882 68.5124335,1.05496797 68.5172727,1.16045455 L68.5172727,1.6930303 C68.5124335,1.79851688 68.5522219,1.90116797 68.6268906,1.97583669 C68.7015593,2.05050541 68.8042104,2.09029373 68.909697,2.08545455 L72.3686364,2.08545455 L72.3630303,13.5778788 Z" id="Path"/>
                <path d="M87.8974242,13.594697 C87.8498702,13.310793 87.7670053,13.0339487 87.6507576,12.7706061 L83.3060606,1.1380303 C83.2219697,0.913787879 83.1210606,0.768030303 82.8968182,0.768030303 L82.3978788,0.768030303 C82.1736364,0.768030303 82.0727273,0.913787879 81.9886364,1.1380303 L77.6439394,12.7706061 C77.5276917,13.0339487 77.4448268,13.310793 77.3972727,13.594697 C77.378932,13.7007966 77.4116327,13.8093381 77.4855313,13.8876485 C77.5594298,13.9659589 77.665895,14.0048916 77.7728788,13.9927273 L78.4343939,13.9927273 C78.6579367,14.0172178 78.8628327,13.865985 78.905303,13.6451515 L80.1834848,10.0628788 L85.1224242,10.0628788 L86.4006061,13.6451515 C86.4477464,13.8630032 86.6494456,14.0118764 86.8715152,13.9927273 L87.5330303,13.9927273 C87.6381584,14.0011259 87.7412807,13.960548 87.812495,13.8827601 C87.8837094,13.8049721 87.9150482,13.698677 87.8974242,13.594697 Z M80.6095455,8.84075758 L82.0278788,4.91651515 C82.1960606,4.41757576 82.5436364,3.49257576 82.5436364,3.36924242 C82.5436364,3.24590909 82.5436364,3.18424242 82.6445455,3.18424242 C82.7454545,3.18424242 82.7510606,3.24590909 82.7510606,3.36924242 C82.8949329,3.89392911 83.067104,4.41044245 83.2668182,4.91651515 L84.6851515,8.84075758 L80.6095455,8.84075758 Z" id="Shape"/>
                <path d="M90.0165152,13.9927273 L90.6668182,13.9927273 C90.8923854,14.0203634 91.1007498,13.86838 91.1433333,13.6451515 L92.4159091,10.0628788 L97.3940909,10.0628788 L98.6722727,13.6451515 C98.7171322,13.864469 98.9203837,14.0144879 99.1431818,13.9927273 L99.804697,13.9927273 C99.9052283,14.0013686 100.004444,13.9651715 100.075793,13.893823 C100.147141,13.8224746 100.183338,13.7232586 100.174697,13.6227273 C100.127143,13.3388233 100.044278,13.061979 99.9280303,12.7986364 L95.555303,1.1380303 C95.4712121,0.913787879 95.370303,0.768030303 95.1404545,0.768030303 L94.6471212,0.768030303 C94.4228788,0.768030303 94.3163636,0.913787879 94.2378788,1.1380303 L89.8931818,12.7706061 C89.7743845,13.0330017 89.6914186,13.3101834 89.6465152,13.594697 C89.6285519,13.6997283 89.6605745,13.8071305 89.7331231,13.8851752 C89.8056716,13.9632198 89.9104538,14.0029864 90.0165152,13.9927273 Z M94.2771212,4.91651515 C94.439697,4.41757576 94.7928788,3.49257576 94.7928788,3.36924242 C94.7928788,3.24590909 94.7928788,3.18424242 94.8937879,3.18424242 C94.994697,3.18424242 95.000303,3.24590909 95.000303,3.36924242 C95.1415962,3.89404119 95.3119086,4.4105932 95.5104545,4.91651515 L96.9343939,8.84075758 L92.8587879,8.84075758 L94.2771212,4.91651515 Z" id="Shape"/>
                <path d="M111,13.224697 C110.809394,13.1630303 110.708485,13.0621212 110.523485,12.7706061 L108.281061,9.37333333 C108.056753,8.95833673 107.749538,8.59387582 107.378485,8.30257576 C109.138429,7.96859126 110.381114,6.38590406 110.28803,4.5969697 C110.28803,2.20878788 108.970606,0.768030303 106.251667,0.768030303 L102.916061,0.768030303 C102.810574,0.763191116 102.707923,0.80297944 102.633254,0.877648161 C102.558586,0.952316882 102.518797,1.05496797 102.523636,1.16045455 L102.523636,13.5778788 C102.520407,13.682411 102.560907,13.7835564 102.635387,13.8569731 C102.709868,13.9303899 102.811586,13.9694296 102.916061,13.964697 L103.656061,13.964697 C103.760073,13.9677694 103.860821,13.9281896 103.934928,13.855141 C104.009035,13.7820923 104.05006,13.6819245 104.048485,13.5778788 L104.048485,8.42590909 L105.730303,8.42590909 C106.038636,8.42590909 106.122727,8.54924242 106.290909,8.84075758 L108.718333,12.7313636 C109.419091,13.8525758 109.665758,13.964697 110.119848,13.964697 L110.943939,13.964697 C111.044471,13.9733383 111.143687,13.9371412 111.215035,13.8657927 C111.286384,13.7944442 111.322581,13.6952283 111.313939,13.594697 C111.347576,13.4321212 111.246667,13.3087879 111,13.224697 Z M105.803182,7.19257576 L104.076515,7.19257576 L104.076515,2.00136364 L105.909697,2.00136364 C107.843788,2.00136364 108.768788,2.7469697 108.768788,4.5969697 C108.768788,6.4469697 107.726061,7.19257576 105.803182,7.19257576 Z" id="Shape"/>
                <path d="M117.205909,13.9927273 C119.924848,13.9927273 121.612273,12.5127273 121.612273,10.2254545 C121.612273,8.59969697 120.788182,7.56818182 119.285758,6.93469697 C120.354079,6.41813869 121.014529,5.31738989 120.967576,4.13166667 C120.967576,2.11348485 119.504394,0.768030303 116.908788,0.768030303 L114.105758,0.768030303 C114.00075,0.76489363 113.899103,0.805230105 113.824818,0.87951479 C113.750533,0.953799474 113.710197,1.05544697 113.713333,1.16045455 L113.713333,13.5778788 C113.711758,13.6819245 113.752783,13.7820923 113.82689,13.855141 C113.900998,13.9281896 114.001745,13.9677694 114.105758,13.964697 L117.205909,13.9927273 Z M115.249394,2.00136364 L116.735,2.00136364 C118.585,2.00136364 119.51,2.62363636 119.51,4.12606061 C119.51,5.62848485 118.646667,6.45257576 116.936818,6.45257576 L115.255,6.45257576 L115.249394,2.00136364 Z M115.249394,7.66348485 L117.015303,7.66348485 C119.095152,7.66348485 120.065,8.53242424 120.065,10.1974242 C120.065,11.9465152 118.971818,12.7313636 117.037727,12.7313636 L115.243788,12.7313636 L115.249394,7.66348485 Z" id="Shape"/>
                <path d="M132.67303,13.9927273 L136.036667,13.9927273 C136.141142,13.9974599 136.242859,13.9584202 136.31734,13.8850034 C136.391821,13.8115867 136.43232,13.7104413 136.429091,13.6059091 L136.429091,13.045303 C136.432228,12.9402955 136.391891,12.838648 136.317606,12.7643633 C136.243322,12.6900786 136.141674,12.6497421 136.036667,12.6528788 L133.424242,12.6528788 L131.568636,7.69151515 L134.702424,7.69151515 C134.806956,7.69474414 134.908102,7.65424495 134.981519,7.57976419 C135.054935,7.50528342 135.093975,7.40356582 135.089242,7.29909091 L135.089242,6.73848485 C135.093975,6.63400994 135.054935,6.53229234 134.981519,6.45781157 C134.908102,6.3833308 134.806956,6.34283162 134.702424,6.34606061 L131.075303,6.34606061 L129.460758,2.08545455 L135.76197,2.08545455 C135.866502,2.08868354 135.967647,2.04818435 136.041064,1.97370358 C136.114481,1.89922281 136.153521,1.79750522 136.148788,1.6930303 L136.148788,1.16045455 C136.153521,1.05597963 136.114481,0.954262038 136.041064,0.879781269 C135.967647,0.8053005 135.866502,0.764801313 135.76197,0.768030303 L128.227424,0.768030303 C127.997576,0.768030303 127.896667,0.913787879 127.812576,1.1380303 L123.467879,12.7706061 C123.351631,13.0339487 123.268766,13.310793 123.221212,13.594697 C123.212571,13.6952283 123.248768,13.7944442 123.320116,13.8657927 C123.391465,13.9371412 123.490681,13.9733383 123.591212,13.964697 L124.252727,13.964697 C124.477031,13.9920448 124.683672,13.839524 124.723636,13.6171212 L125.985,10.0348485 L130.923939,10.0348485 L132.202121,13.6171212 C132.239146,13.8447914 132.442827,14.0072512 132.67303,13.9927273 L132.67303,13.9927273 Z M126.411061,8.86878788 L127.835,4.94454545 C127.997576,4.44560606 128.345152,3.52060606 128.345152,3.39727273 C128.345152,3.27393939 128.345152,3.21227273 128.451667,3.21227273 C128.558182,3.21227273 128.552576,3.27393939 128.552576,3.39727273 C128.696448,3.92195942 128.868619,4.43847276 129.068333,4.94454545 L130.486667,8.86878788 L126.411061,8.86878788 Z" id="Shape"/>
                <path d="M147.512273,13.224697 C147.301478,13.1242309 147.122871,12.966979 146.996515,12.7706061 L142.836818,7.47848485 C142.687291,7.26844377 142.481228,7.10514847 142.242576,7.00757576 C142.485434,6.93500518 142.700495,6.79032729 142.859242,6.59272727 L146.912424,1.96212121 C147.051259,1.77687434 147.226843,1.62228436 147.428182,1.5080303 C147.674848,1.42954545 147.781364,1.34545455 147.781364,1.1380303 C147.788055,1.03799842 147.751227,0.939949097 147.680336,0.869057788 C147.609445,0.798166479 147.511396,0.761338639 147.411364,0.768030303 L146.727424,0.768030303 C146.304957,0.79744613 145.92182,1.02649563 145.695909,1.38469697 L141.771667,5.91439394 C141.4548,6.28506365 140.986464,6.4913794 140.499091,6.475 L140.499091,1.16045455 C140.502228,1.05544697 140.461891,0.953799474 140.387606,0.87951479 C140.313322,0.805230105 140.211674,0.76489363 140.106667,0.768030303 L139.366667,0.768030303 C139.26118,0.763191116 139.158529,0.80297944 139.08386,0.877648161 C139.009192,0.952316882 138.969403,1.05496797 138.974242,1.16045455 L138.974242,13.5778788 C138.971013,13.682411 139.011513,13.7835564 139.085993,13.8569731 C139.160474,13.9303899 139.262192,13.9694296 139.366667,13.964697 L140.106667,13.964697 C140.210679,13.9677694 140.311427,13.9281896 140.385534,13.855141 C140.459641,13.7820923 140.500667,13.6819245 140.499091,13.5778788 L140.499091,7.68590909 C140.97919,7.67254483 141.430006,7.91611402 141.68197,8.325 L145.606212,13.3256061 C145.82042,13.7083011 146.2117,13.9586363 146.648939,13.9927273 L147.489848,13.9927273 C147.59038,14.0013686 147.689596,13.9651715 147.760944,13.893823 C147.832293,13.8224746 147.86849,13.7232586 147.859848,13.6227273 C147.848636,13.3928788 147.758939,13.3087879 147.512273,13.224697 Z" id="Path"/>
                <path d="M11.5092424,20.3668182 L1.16606061,20.3668182 C1.00058313,20.352804 0.83740857,20.4128782 0.720521852,20.5308472 C0.603635134,20.6488162 0.545067413,20.8125375 0.560606061,20.9778788 L0.560606061,40.2851515 C0.543279353,40.4514133 0.601052035,40.6167336 0.718164195,40.7360145 C0.835276356,40.8552955 0.999508923,40.9160916 1.16606061,40.9018182 L3.96909091,40.9018182 C4.13350514,40.9155935 4.29563935,40.8562436 4.4123051,40.7395778 C4.52897086,40.6229121 4.58832074,40.4607779 4.57454545,40.2963636 L4.57454545,31.8872727 L10.3263636,31.8872727 C10.4907779,31.901048 10.6529121,31.8416981 10.7695778,31.7250324 C10.8862436,31.6083666 10.9455935,31.4462324 10.9318182,31.2818182 L10.9318182,28.949697 C10.9473568,28.7843557 10.8887891,28.6206344 10.7719024,28.5026654 C10.6550157,28.3846964 10.4918411,28.3246222 10.3263636,28.3386364 L4.59136364,28.3386364 L4.59136364,23.8874242 L11.5092424,23.8874242 C11.6745837,23.9029629 11.838305,23.8443952 11.956274,23.7275085 C12.074243,23.6106217 12.1343172,23.4474472 12.120303,23.2819697 L12.120303,20.9778788 C12.1249985,20.8144212 12.0621281,20.6562524 11.9464985,20.5406227 C11.8308688,20.4249931 11.6727,20.3621227 11.5092424,20.3668182 Z" id="Path"/>
                <path d="M52.999697,39.7806061 C52.639371,39.6509545 52.3424407,39.388131 52.17,39.0462121 L49.4790909,34.5613636 C48.8063636,33.4401515 48.3578788,32.8010606 47.6571212,32.4815152 C50.4601515,31.7751515 51.8168182,29.2131818 51.8168182,26.5895455 C51.8168182,22.8783333 49.5127273,20.3780303 45.605303,20.3780303 L38.4968182,20.3780303 C38.3313407,20.3640162 38.1681661,20.4240903 38.0512794,20.5420593 C37.9343927,20.6600283 37.875825,20.8237496 37.8913636,20.9890909 L37.8913636,40.2851515 C37.8740369,40.4514133 37.9318096,40.6167336 38.0489218,40.7360145 C38.1660339,40.8552955 38.3302665,40.9160916 38.4968182,40.9018182 L41.2998485,40.9018182 C41.4642627,40.9155935 41.6263969,40.8562436 41.7430627,40.7395778 C41.8597284,40.6229121 41.9190783,40.4607779 41.905303,40.2963636 L41.905303,32.9187879 L43.5871212,32.9187879 C44.0356061,32.9187879 44.2262121,33.1093939 44.4840909,33.5578788 L47.5001515,38.8724242 C48.3354545,40.3804545 48.7839394,40.8906061 49.8042424,40.8906061 L52.8483333,40.8906061 C53.1579475,40.8906061 53.4090222,40.6396142 53.4090222,40.33 C53.4132981,40.0751241 53.2451532,39.8493953 52.999697,39.7806061 Z M44.1981818,29.7513636 L41.9221212,29.7513636 L41.9221212,23.584697 L44.2934848,23.584697 C46.5975758,23.584697 47.7524242,24.42 47.7524242,26.6624242 C47.7524242,28.9048485 46.5359091,29.7513636 44.1981818,29.7513636 Z" id="Shape"/>
                <path d="M62.2160606,28.5684848 C60.4221212,28.0863636 59.3345455,27.4192424 59.3345455,25.9784848 C59.3345455,24.1845455 60.5510606,23.5734848 62.0590909,23.5734848 C64.1669697,23.5734848 65.2265152,24.5993939 65.9833333,25.1095455 C66.2235275,25.32049 66.5274945,25.4448401 66.8466667,25.4627273 C67.2334848,25.4627273 67.5193939,25.2048485 67.5193939,24.6610606 L67.5193939,22.7662121 C67.5432808,22.1396169 67.1740724,21.5645467 66.5943939,21.3254545 C65.0178735,20.4523495 63.2386069,20.0114008 61.4368182,20.0472727 C58.1068182,20.0472727 55.0010606,21.9365152 55.0010606,25.9728788 C55.0010606,29.7177273 57.6919697,31.2874242 60.5062121,32.0218182 C62.5916667,32.5824242 63.7745455,33.2719697 63.7745455,34.965 C63.7745455,36.9551515 62.3001515,37.5606061 60.8313636,37.5606061 C59.1905079,37.4840693 57.6079966,36.9286312 56.2792424,35.9628788 C56.0311553,35.7468418 55.7166076,35.6222097 55.3878788,35.609697 C54.9674242,35.609697 54.6815152,35.8619697 54.6815152,36.4393939 L54.6815152,38.2669697 C54.6815152,38.939697 54.9057576,39.3209091 55.6401515,39.8030303 C57.3458126,40.7738814 59.2842478,41.2604286 61.2462121,41.2101515 C64.8340909,41.2101515 68.0687879,39.0966667 68.0687879,35.0434848 C68.1080303,30.8389394 65.579697,29.4598485 62.2160606,28.5684848 Z" id="Path"/>
                <path d="M84.9486364,20.3668182 L82.2913636,20.3668182 C81.9068531,20.3244585 81.5457568,20.5589366 81.4280303,20.9274242 L78.7034848,26.4998485 C78.2514404,27.3504873 77.8762146,28.2397724 77.5822727,29.1571212 C77.5822727,29.415 77.515,29.510303 77.3860606,29.510303 C77.2571212,29.510303 77.1954545,29.415 77.1954545,29.1571212 C76.8962807,28.2417187 76.5212421,27.3528773 76.0742424,26.4998485 L73.2880303,20.9106061 C73.1703038,20.5421184 72.8092075,20.3076403 72.424697,20.35 L69.7674242,20.35 C69.6102124,20.335792 69.4542956,20.3885217 69.3379782,20.4952348 C69.2216608,20.601948 69.1557229,20.7527548 69.156359,20.9106061 C69.2137681,21.3339228 69.3671693,21.7385187 69.6048485,22.0934848 L75.3398485,33.2663636 L75.3398485,40.2851515 C75.322255,40.4524766 75.3807423,40.6188567 75.4991668,40.7383676 C75.6175913,40.8578786 75.7834303,40.9178829 75.9509091,40.9018182 L78.7539394,40.9018182 C78.9183536,40.9155935 79.0804878,40.8562436 79.1971536,40.7395778 C79.3138193,40.6229121 79.3731692,40.4607779 79.3593939,40.2963636 L79.3593939,33.3 L85.0943939,22.1271212 C85.3317117,21.7724868 85.4833292,21.3675336 85.5372727,20.9442424 C85.5421718,20.7876761 85.4813426,20.6362009 85.3695195,20.5265078 C85.2576964,20.4168146 85.1050795,20.3589094 84.9486364,20.3668182 Z" id="Path"/>
                <path d="M101.772424,20.3668182 L99.3393939,20.3668182 C99.1759363,20.3621227 99.0177675,20.4249931 98.9021379,20.5406227 C98.7865082,20.6562524 98.7236378,20.8144212 98.7283333,20.9778788 L98.7283333,31.0687879 C98.7283333,32.094697 98.7619697,33.1206061 98.7956061,33.5690909 C98.8236364,33.7933333 98.7956061,33.855 98.694697,33.855 C98.5937879,33.855 98.5657576,33.855 98.5040909,33.6027273 C98.0632867,32.6262325 97.5711344,31.67374 97.029697,30.7492424 L91.2274242,20.8489394 C91.0648485,20.5574242 90.9022727,20.3668182 90.554697,20.3668182 L88.0880303,20.3668182 C87.9245727,20.3621227 87.7664039,20.4249931 87.6507742,20.5406227 C87.5351446,20.6562524 87.4722742,20.8144212 87.4769697,20.9778788 L87.4769697,40.2851515 C87.4687261,40.4520822 87.5318333,40.6146473 87.6505485,40.732293 C87.7692636,40.8499386 87.9323932,40.9115721 88.0992424,40.9018182 L90.5322727,40.9018182 C90.696687,40.9155935 90.8588212,40.8562436 90.9754869,40.7395778 C91.0921527,40.6229121 91.1515026,40.4607779 91.1377273,40.2963636 L91.1377273,30.1662121 C91.1377273,29.140303 91.109697,28.1143939 91.0760606,27.6659091 C91.0424242,27.4416667 91.0760606,27.38 91.1713636,27.38 C91.2666667,27.38 91.300303,27.4136364 91.3619697,27.6378788 C91.7946244,28.6164818 92.2870174,29.5675677 92.8363636,30.4857576 L98.6330303,40.4084848 C98.7956061,40.6663636 98.9525758,40.8906061 99.3057576,40.8906061 L101.772424,40.8906061 C101.934395,40.8953039 102.09114,40.8330249 102.205719,40.7184459 C102.320298,40.6038669 102.382577,40.4471226 102.377879,40.2851515 L102.377879,20.9778788 C102.38416,20.8149518 102.322582,20.6567178 102.207822,20.5408953 C102.093062,20.4250729 101.935402,20.3620386 101.772424,20.3668182 Z" id="Path"/>
                <path d="M106.845909,20.3667922 L109.648939,20.3667922 C109.809516,20.3667922 109.963516,20.430607 110.07706,20.5441517 C110.190605,20.6576965 110.254394,20.8116962 110.254394,20.9722727 L110.254394,40.2795455 C110.254394,40.440122 110.190605,40.5941217 110.07706,40.7076665 C109.963516,40.8212112 109.809516,40.885 109.648939,40.885 L106.845909,40.885 C106.50843,40.885 106.234848,40.6114188 106.234848,40.2739394 L106.234848,20.9722727 C106.234848,20.8107201 106.299399,20.6558647 106.414159,20.5421574 C106.52892,20.4284501 106.684363,20.3653223 106.845909,20.3667922 Z" id="Path"/>
                <path d="M128.373182,20.3668182 L125.940152,20.3668182 C125.776694,20.3621227 125.618525,20.4249931 125.502895,20.5406227 C125.387266,20.6562524 125.324395,20.8144212 125.329091,20.9778788 L125.329091,31.0687879 C125.329091,32.094697 125.362727,33.1206061 125.396364,33.5690909 C125.424394,33.7933333 125.396364,33.855 125.301061,33.855 C125.205758,33.855 125.172121,33.855 125.104848,33.6027273 C124.664292,32.6271122 124.174054,31.6747029 123.636061,30.7492424 L117.839394,20.8265152 C117.676818,20.535 117.519848,20.3443939 117.166667,20.3443939 L114.7,20.3443939 C114.534523,20.3303798 114.371348,20.390454 114.254461,20.508423 C114.137575,20.626392 114.079007,20.7901133 114.094545,20.9554545 L114.094545,40.2851515 C114.077219,40.4514133 114.134991,40.6167336 114.252104,40.7360145 C114.369216,40.8552955 114.533448,40.9160916 114.7,40.9018182 L117.13303,40.9018182 C117.295957,40.9080996 117.454191,40.8465211 117.570014,40.7317612 C117.685836,40.6170014 117.74887,40.4593416 117.744091,40.2963636 L117.744091,30.1662121 C117.744091,29.140303 117.710455,28.1143939 117.676818,27.6659091 C117.648788,27.4416667 117.676818,27.38 117.772121,27.38 C117.867424,27.38 117.901061,27.4136364 117.968333,27.6378788 C118.395688,28.6180026 118.886318,29.5693022 119.437121,30.4857576 L125.233788,40.4084848 C125.396364,40.6663636 125.553333,40.8906061 125.906515,40.8906061 L128.373182,40.8906061 C128.537596,40.9043813 128.69973,40.8450315 128.816396,40.7283657 C128.933062,40.6117 128.992412,40.4495657 128.978636,40.2851515 L128.978636,20.9778788 C128.994175,20.8125375 128.935607,20.6488162 128.818721,20.5308472 C128.701834,20.4128782 128.538659,20.352804 128.373182,20.3668182 Z" id="Path"/>
                <path d="M146.990909,30.0036364 L141.805303,30.0036364 C141.641845,29.9989409 141.483677,30.0618112 141.368047,30.1774409 C141.252417,30.2930706 141.189547,30.4512394 141.194242,30.614697 L141.194242,32.8851515 C141.189547,33.0486091 141.252417,33.2067779 141.368047,33.3224076 C141.483677,33.4380372 141.641845,33.5009076 141.805303,33.4962121 L143.924394,33.4962121 L143.924394,36.4730303 C143.924394,37.1457576 143.027424,37.6895455 141.328788,37.6895455 C137.774545,37.6895455 136.014242,35.4134848 136.014242,30.6427273 C136.014242,25.8719697 138.032424,23.5678788 141.71,23.5678788 C143.952424,23.5678788 144.468182,23.954697 146.037879,24.7227273 C146.254101,24.8500343 146.49147,24.9373863 146.738636,24.9806061 C146.896488,24.9812468 147.047294,24.9153089 147.154008,24.7989915 C147.260721,24.6826741 147.31345,24.5267573 147.299242,24.3695455 L147.299242,22.2224242 C147.246613,21.7422812 146.940646,21.3271928 146.497576,21.1348485 C144.896854,20.3511603 143.126505,19.9774414 141.345606,20.0472727 C135.997424,20.0472727 131.865758,22.7998485 131.865758,30.6427273 C131.865758,38.4856061 135.868485,41.2101515 141.18303,41.2101515 C145.023182,41.2101515 147.585152,40.1562121 147.585152,38.9677273 L147.585152,30.614697 C147.600245,30.4514501 147.543124,30.2897766 147.428827,30.1722452 C147.31453,30.0547138 147.154514,29.9931035 146.990909,30.0036364 Z" id="Path"/>
                <path d="M34.1465152,26.6063636 C33.9340342,26.6686355 33.7552581,26.8132538 33.6499701,27.0080367 C33.544682,27.2028195 33.5216175,27.4316063 33.5859091,27.6434848 C34.9008763,31.884398 33.1036494,36.4705877 29.2574353,38.6889474 C25.4112212,40.9073072 20.5415004,40.1663763 17.5291111,36.904476 C14.5167218,33.6425756 14.1648296,28.7293962 16.6816075,25.0714854 C19.1983854,21.4135745 23.9128082,19.9862071 28.0359091,21.6337879 L27.2678788,22.9960606 C27.1623426,23.1834389 27.164122,23.4127372 27.2725536,23.598455 C27.3809851,23.7841728 27.5797939,23.8984353 27.7948485,23.8986364 L27.8789394,23.8986364 L31.8480303,23.4389394 C32.0421739,23.4182855 32.2141192,23.3044387 32.3089357,23.133769 C32.4037522,22.9630993 32.4095756,22.7569625 32.3245455,22.5812121 L30.6090909,19.0381818 C30.5080866,18.837385 30.3066473,18.7066638 30.0821212,18.6962121 L30.0821212,18.6962121 C29.8637085,18.6962121 29.6623355,18.8142411 29.5551515,19.0045455 L28.8656061,20.1593939 C24.8163628,18.4470629 20.1394191,19.2672328 16.9144419,22.2552037 C13.6894648,25.2431747 12.5153729,29.8440431 13.9142424,34.0119697 C15.4469244,38.5656358 19.7106312,41.6365869 24.515303,41.6474242 C28.0644849,41.6401404 31.399314,39.9478491 33.500764,37.0876651 C35.602214,34.227481 36.2205469,30.5393108 35.1668182,27.1501515 C35.0297803,26.7227583 34.5777157,26.4818228 34.1465152,26.6063636 L34.1465152,26.6063636 Z" id="Path"/>
                <path d="M28.3274242,34.7351515 C27.7712834,34.7255928 27.2248724,34.8817102 26.7577273,35.1836364 C26.1719596,35.5564537 25.4953755,35.7619492 24.8012121,35.7778788 L24.4760606,35.7778788 C23.7175649,35.7946456 22.9708841,35.5879925 22.3289394,35.1836364 C21.3497847,34.5783277 20.1126396,34.5783277 19.1334848,35.1836364 C18.8655997,35.3447863 18.5819563,35.478155 18.2869697,35.5816667 C19.8029322,37.4533532 22.0852779,38.537409 24.4938655,38.5297835 C26.9024532,38.5221579 29.177889,37.4236722 30.6819697,35.5424242 C30.4264776,35.4419581 30.1790828,35.3220091 29.9419697,35.1836364 C29.4631667,34.8706633 28.8990496,34.7139641 28.3274242,34.7351515 Z" id="Path"/>
                <path d="M32.1787879,32.4927273 L32.0722727,32.4927273 C31.313777,32.5094941 30.5670963,32.302841 29.9251515,31.8984848 C28.9459968,31.2931762 27.7088517,31.2931762 26.729697,31.8984848 C26.1439293,32.2713022 25.4673452,32.4767977 24.7731818,32.4927273 L24.4480303,32.4927273 C23.6895346,32.5094941 22.9428538,32.302841 22.3009091,31.8984848 C21.3217544,31.2931762 20.0846093,31.2931762 19.1054545,31.8984848 C18.4656541,32.3030048 17.7207037,32.5097188 16.9639394,32.4927273 L16.7116667,32.4927273 C16.9008496,33.2450753 17.1972688,33.966299 17.5918182,34.6342424 C17.9353855,34.5576895 18.2633738,34.4230816 18.5616667,34.2362121 C19.8813835,33.4437349 21.5305862,33.4437349 22.850303,34.2362121 C23.2443299,34.4941023 23.6979314,34.6465896 24.1677273,34.6790909 L24.4592424,34.6790909 L24.5881818,34.6790909 C25.1576091,34.6965722 25.7188452,34.54013 26.1971212,34.2306061 C27.516838,33.4381288 29.1660408,33.4381288 30.4857576,34.2306061 C30.7467384,34.3938699 31.0299784,34.5184954 31.3266667,34.6006061 C31.7107293,33.9426793 31.9977336,33.2327212 32.1787879,32.4927273 Z" id="Path"/>
                <path d="M32.3918182,31.1977273 C32.3918182,30.990303 32.4198485,30.7828788 32.4198485,30.5698485 L32.4198485,30.2222727 L32.0330303,30.2222727 C31.4444683,30.2312347 30.8747945,30.0145982 30.4409091,29.6168182 C29.2176132,28.5477921 27.3923868,28.5477921 26.1690909,29.6168182 C25.7417449,30.021166 25.176497,30.247666 24.5881818,30.250303 L24.4592424,30.250303 L24.1789394,30.250303 C23.6744758,30.1915927 23.2025168,29.9713452 22.8334848,29.6224242 C21.6101889,28.5533982 19.7849626,28.5533982 18.5616667,29.6224242 C18.136283,30.0220943 17.5756407,30.2463512 16.9919697,30.250303 L16.8630303,30.250303 L16.4817588,30.250303 L16.4817588,30.6090909 L16.4817588,30.6090909 C16.4807597,30.8600337 16.4938614,31.1108364 16.5210606,31.360303 L16.5210606,31.3715152 L16.835,31.3715152 L16.9695455,31.3715152 C17.5354995,31.3829589 18.0919346,31.2248142 18.5672727,30.9174242 C19.8848892,30.1174053 21.5382926,30.1174053 22.8559091,30.9174242 C23.2574489,31.1768958 23.7186812,31.3293533 24.1957576,31.360303 L24.4648485,31.360303 L24.5937879,31.360303 C25.1578172,31.386665 25.7166594,31.2420695 26.1971212,30.9454545 C27.5147377,30.1454356 29.1681411,30.1454356 30.4857576,30.9454545 C30.9602251,31.2547612 31.5172632,31.4130773 32.0834848,31.3995455 L32.3637879,31.3995455 L32.3918182,31.1977273 Z" id="Path"/>
            </g>
        </g>
    </g>
</svg>