
<svg width="117" height="30" viewBox="0 0 117 30" fill="none" xmlns="http://www.w3.org/2000/svg">
    <g clip-path="url(#clip0_97_29139)">
        <path d="M57.0036 0C47.916 0 41.1675 6.72065 41.1675 15V15.1075C41.1675 23.3868 47.8612 30 56.8939 30C65.9267 30 72.7301 23.2803 72.7301 15V14.8925C72.731 6.61318 66.0364 0 57.0036 0ZM64.5675 15.1075C64.5675 19.3546 61.7375 22.957 57.0036 22.957C52.2697 22.957 49.331 19.2471 49.331 15V14.8925C49.331 10.6454 52.1609 7.04305 56.8948 7.04305C61.6288 7.04305 64.5675 10.7529 64.5675 15V15.1075Z" fill="black"></path>
        <path d="M8.27135 0.429932H0V29.5693H8.27135V0.429932Z" fill="black"></path>
        <path d="M37.0314 0.429932H28.76V29.5693H37.0314V0.429932Z" fill="black"></path>
        <path d="M8.27124 0.429932L20.4886 29.5702H28.76L16.5435 0.429932H8.27124Z" fill="black"></path>
        <path d="M117 0.429932H108.729V29.5693H117V0.429932Z" fill="black"></path>
        <path d="M85.1376 0.429932H76.8662V29.5693H85.1376V0.429932Z" fill="black"></path>
        <path d="M85.1377 29.5702H93.41L105.626 0.429932H97.3551L85.1377 29.5702Z" fill="black"></path>
    </g>
    <defs>
        <clipPath id="clip0_97_29139">
            <rect width="117" height="30" fill="white"></rect>
        </clipPath>
    </defs>
</svg>
