<svg xmlns="http://www.w3.org/2000/svg" width="116" height="35.969" viewBox="0 0 115.99 35.98">
                <defs>
                    <style type="text/css">
                        .primary {
                            fill: #003883;
                        }

                        .secondary {
                            fill: #2b94ff;
                        }
                    </style>
                </defs>
                <title>provas-color</title>
                <path class="primary" d="M111.86,16c-1.24,0-1.91.6-1.91,1.41s0.65,1.22,2.39,1.84c2.5,0.84,3.63,2.06,3.65,4,0,2.41-1.94,4.15-5.57,4.15a9.1,9.1,0,0,1-4.16-.92L107,24a7.71,7.71,0,0,0,3.49,1c1.52,0,2.19-.62,2.19-1.49s-0.56-1.33-2.25-1.92c-2.67-.87-3.77-2.28-3.77-3.85,0-2.33,2-4.12,5.17-4.12a8.15,8.15,0,0,1,3.65.79l-0.7,2.33A6.2,6.2,0,0,0,111.86,16Zm-11.55,9.67h-0.08a5.08,5.08,0,0,1-4,1.76,4,4,0,0,1-4.3-3.93c0-3.31,3.06-5,8.12-5V18.28c0-.87-0.37-2.3-2.78-2.3a7.46,7.46,0,0,0-3.68,1l-0.67-2.17a10.15,10.15,0,0,1,4.95-1.16c4.38,0,5.65,2.68,5.65,5.58v4.74a17.23,17.23,0,0,0,.22,3.17h-3.12Zm-0.22-5c-2.44,0-4.78.46-4.78,2.47a1.78,1.78,0,0,0,2,1.9A2.83,2.83,0,0,0,100,23.21a2.18,2.18,0,0,0,.08-0.73V20.67ZM82.27,27.12l-5.09-13.2h3.74l2.22,6.69q0.55,1.63.93,3.31h0.08c0.25-1.08.56-2.11,0.93-3.31l2.19-6.69H90.9l-5.23,13.2h-3.4Zm-13.18.3a6.5,6.5,0,0,1-6.86-6.8c0-4.34,3-7,7.08-7a6.44,6.44,0,0,1,6.8,6.77C76.12,25.25,72.57,27.42,69.09,27.42ZM69.23,16c-2.44,0-3.43,2.3-3.43,4.5,0,2.55,1.32,4.47,3.4,4.47s3.35-1.84,3.35-4.52C72.55,18.42,71.59,16,69.23,16ZM56.89,19.26a5.71,5.71,0,0,0-.08,1v6.86H53.35V18.17c0-1.79,0-3.09-.11-4.26h3l0.14,2.49h0.08a4.08,4.08,0,0,1,3.77-2.79,3.78,3.78,0,0,1,.81.08v3.12a5.68,5.68,0,0,0-1-.08A3,3,0,0,0,56.89,19.26ZM43.23,20.34a7.79,7.79,0,0,1-1.69-.14v6.91H38.12V9.1a31.62,31.62,0,0,1,5.28-.38c2.53,0,4.36.52,5.57,1.49a5.08,5.08,0,0,1,1.85,4,5.45,5.45,0,0,1-1.6,4.12A8.61,8.61,0,0,1,43.23,20.34Zm0.31-9.05a9.83,9.83,0,0,0-2,.16v6.13a6,6,0,0,0,1.69.16c2.59,0,4.16-1.25,4.16-3.36S45.93,11.29,43.54,11.29Z" transform="translate(0 -0.5)"></path>
                <path class="secondary" d="M17.58,33.5l-1.5-8a27.29,27.29,0,0,0,4.38-4.3c3-3.67,4.75-7.62,5-10.74l7.37-3.53c1.1,5.12-1.26,12.47-6.6,19A33.93,33.93,0,0,1,17.58,33.5Zm6.25-28c-2.18-1.66-6-.78-9.77,1.89a8.38,8.38,0,0,0-3.59-.09C17.35,1,25.45-1.36,30,2.09a7.57,7.57,0,0,1,2.57,3.68l-7,3.38A4.69,4.69,0,0,0,23.84,5.5ZM5.46,28c2.14,1.63,5.84.81,9.57-1.75l1.48,7.9c-5.11,2.75-10.15,3.24-13.37.79-4.48-3.41-4-11.42.56-19.26a7.46,7.46,0,0,0,1.05,3.54C3.3,23,3.43,26.41,5.46,28Z" transform="translate(0 -0.5)"></path>
                <path class="primary" d="M12.87,8.32A7.4,7.4,0,0,1,15.34,9a6.94,6.94,0,0,1,4,6.21,7.09,7.09,0,0,1-7.22,7A7.28,7.28,0,0,1,6,19a6.75,6.75,0,0,1-1.16-3.79,7.09,7.09,0,0,1,7.22-7A7.56,7.56,0,0,1,12.87,8.32Z" transform="translate(0 -0.5)"></path>
            </svg>