<svg xmlns="http://www.w3.org/2000/svg" viewBox="0 0 381 64"><defs><linearGradient id="7zxxa" x1="30.89" x2="30.89" y1="63.49" y2=".02" gradientUnits="userSpaceOnUse"><stop offset="0" stop-color="#87a4c6"/><stop offset=".08" stop-color="#6a93b5"/><stop offset=".26" stop-color="#2b6f8f"/><stop offset=".44" stop-color="#00506c"/><stop offset=".6" stop-color="#00364f"/><stop offset=".76" stop-color="#002238"/><stop offset=".89" stop-color="#000b15"/><stop offset="1"/></linearGradient><linearGradient id="7zxxb" x1="31.87" x2="31.87" y1="63.48" y2=".01" gradientUnits="userSpaceOnUse"><stop offset="0" stop-color="#87a4c6"/><stop offset=".08" stop-color="#6a93b5"/><stop offset=".26" stop-color="#2b6f8f"/><stop offset=".44" stop-color="#00506c"/><stop offset=".6" stop-color="#00364f"/><stop offset=".76" stop-color="#002238"/><stop offset=".89" stop-color="#000b15"/><stop offset="1"/></linearGradient><linearGradient id="7zxxc" x1="46.74" x2="46.74" y1="63.48" y2=".01" gradientUnits="userSpaceOnUse"><stop offset="0" stop-color="#87a4c6"/><stop offset=".08" stop-color="#6a93b5"/><stop offset=".26" stop-color="#2b6f8f"/><stop offset=".44" stop-color="#00506c"/><stop offset=".6" stop-color="#00364f"/><stop offset=".76" stop-color="#002238"/><stop offset=".89" stop-color="#000b15"/><stop offset="1"/></linearGradient><linearGradient id="7zxxd" x1="7.94" x2="7.94" y1="63.5" y2="0" gradientUnits="userSpaceOnUse"><stop offset="0" stop-color="#87a4c6"/><stop offset=".08" stop-color="#6a93b5"/><stop offset=".26" stop-color="#2b6f8f"/><stop offset=".44" stop-color="#00506c"/><stop offset=".6" stop-color="#00364f"/><stop offset=".76" stop-color="#002238"/><stop offset=".89" stop-color="#000b15"/><stop offset="1"/></linearGradient><linearGradient id="7zxxe" x1="36.09" x2="36.09" y1="63.47" y2=".05" gradientUnits="userSpaceOnUse"><stop offset="0" stop-color="#87a4c6"/><stop offset=".08" stop-color="#6a93b5"/><stop offset=".26" stop-color="#2b6f8f"/><stop offset=".44" stop-color="#00506c"/><stop offset=".6" stop-color="#00364f"/><stop offset=".76" stop-color="#002238"/><stop offset=".89" stop-color="#000b15"/><stop offset="1"/></linearGradient><linearGradient id="7zxxf" x1="33.25" x2="33.25" y1="63.48" y2=".01" gradientUnits="userSpaceOnUse"><stop offset="0" stop-color="#87a4c6"/><stop offset=".08" stop-color="#6a93b5"/><stop offset=".26" stop-color="#2b6f8f"/><stop offset=".44" stop-color="#00506c"/><stop offset=".6" stop-color="#00364f"/><stop offset=".76" stop-color="#002238"/><stop offset=".89" stop-color="#000b15"/><stop offset="1"/></linearGradient><linearGradient id="7zxxg" x1="8.61" x2="8.61" y1="63.48" y2=".01" gradientUnits="userSpaceOnUse"><stop offset="0" stop-color="#87a4c6"/><stop offset=".08" stop-color="#6a93b5"/><stop offset=".26" stop-color="#2b6f8f"/><stop offset=".44" stop-color="#00506c"/><stop offset=".6" stop-color="#00364f"/><stop offset=".76" stop-color="#002238"/><stop offset=".89" stop-color="#000b15"/><stop offset="1"/></linearGradient><linearGradient id="7zxxh" x1="6.81" x2="25.07" y1="32.81" y2="71.95" gradientUnits="userSpaceOnUse"><stop offset="0" stop-color="#fff"/><stop offset=".67" stop-color="#115a71"/><stop offset="1"/></linearGradient><linearGradient id="7zxxi" x1="30.95" x2="30.95" y1="63.49" y2="0" gradientUnits="userSpaceOnUse"><stop offset="0" stop-color="#87a4c6"/><stop offset=".08" stop-color="#6a93b5"/><stop offset=".26" stop-color="#2b6f8f"/><stop offset=".44" stop-color="#00506c"/><stop offset=".6" stop-color="#00364f"/><stop offset=".76" stop-color="#002238"/><stop offset=".89" stop-color="#000b15"/><stop offset="1"/></linearGradient><linearGradient id="7zxxj" x1="19.98" x2="38.23" y1="26.67" y2="65.82" gradientUnits="userSpaceOnUse"><stop offset="0" stop-color="#fff"/><stop offset=".67" stop-color="#115a71"/><stop offset="1"/></linearGradient><linearGradient id="7zxxk" x1="49.08" x2="49.08" y1="63.49" y2="-.01" gradientUnits="userSpaceOnUse"><stop offset="0" stop-color="#87a4c6"/><stop offset=".08" stop-color="#6a93b5"/><stop offset=".26" stop-color="#2b6f8f"/><stop offset=".44" stop-color="#00506c"/><stop offset=".6" stop-color="#00364f"/><stop offset=".76" stop-color="#002238"/><stop offset=".89" stop-color="#000b15"/><stop offset="1"/></linearGradient><linearGradient id="7zxxl" x1="27.41" x2="56.84" y1="4.97" y2="36.55" gradientUnits="userSpaceOnUse"><stop offset="0" stop-color="#fffdfe"/><stop offset=".1" stop-color="#e6ecf1"/><stop offset=".3" stop-color="#a8c1ce"/><stop offset=".57" stop-color="#4a7d92"/><stop offset=".91" stop-color="#00283e"/><stop offset="1"/></linearGradient><linearGradient id="7zxxm" x1="39.9" x2="39.9" y1="63.46" y2="0" gradientUnits="userSpaceOnUse"><stop offset="0" stop-color="#87a4c6"/><stop offset=".08" stop-color="#6a93b5"/><stop offset=".26" stop-color="#2b6f8f"/><stop offset=".44" stop-color="#00506c"/><stop offset=".6" stop-color="#00364f"/><stop offset=".76" stop-color="#002238"/><stop offset=".89" stop-color="#000b15"/><stop offset="1"/></linearGradient><linearGradient id="7zxxn" x1="28.56" x2="57.99" y1="3.89" y2="35.45" gradientUnits="userSpaceOnUse"><stop offset="0" stop-color="#fffdfe"/><stop offset=".16" stop-color="#cddbe3"/><stop offset=".5" stop-color="#58869b"/><stop offset="1"/></linearGradient></defs><g><g><g><g><path d="M87.888 32.096H82.19V25.66h18.976v6.435h-5.7v22.643h-7.577z"/></g><g><path d="M110.57 19.66c0-1.024.822-1.835 1.836-1.835 1.024 0 1.835.811 1.835 1.835a1.829 1.829 0 0 1-1.835 1.836 1.829 1.829 0 0 1-1.836-1.836zm3.949 24.262h-4.237l2.081-12.32h.086zm-6.638-24.25c0 2.485 2.038 4.524 4.525 4.524 2.486 0 4.525-2.039 4.525-4.525s-2.039-4.524-4.525-4.524c-2.487 0-4.515 2.038-4.525 4.524zm-7.343 35.064h8.069l.779-5.09h6.03l.779 5.09h8.068l-7.087-29.078h-9.53z"/></g><g><path d="M133.11 37.954v-6.84h1.463c2.273 0 3.212 1.024 3.212 3.382 0 2.07-1.024 3.458-3.18 3.458zm-7.609-12.293V54.75h7.578V43.108h1.995c1.836 0 2.487.854 2.487 4.15v1.954c0 1.227 0 3.99.736 5.538h8.069v-.406c-.491-.245-.651-.565-.854-.896-.363-.576-.363-2.529-.363-4.034v-2.486c0-3.873-1.1-6.2-4.76-6.52v-.085c3.469-.534 4.973-3.052 4.973-6.926 0-4.481-2.198-7.736-7.982-7.736z"/></g><g><path d="M148.895 25.66h8.474l4.887 17.917h.086V25.661h7.086v29.078h-8.313l-5.048-17.959h-.086v17.96h-7.086V25.66z"/></g><g><path d="M180.826 42.19h2.113c1.387 0 2.69 1.26 2.69 3.5 0 2.359-1.303 3.586-2.69 3.586h-2.113zm0-11.076h1.835c1.548 0 2.402 1.376 2.402 3.009 0 1.547-.854 2.935-2.402 2.935h-1.835zm-7.567-5.453v29.078h11.44c6.308 0 8.752-3.543 8.752-8.59 0-3.01-1.548-6.274-5.379-6.637v-.086c3.212-.65 4.557-3.425 4.557-6.52 0-4.353-2.518-7.245-7.94-7.245z"/></g><g><path d="M201.392 43.29l-7.417-17.629h8.313l2.85 10.137h.085l2.85-10.137h8.313l-7.417 17.628v11.44h-7.577v-11.44z"/></g><g><path d="M218.252 25.66h13.927v1.548h-12.22v11.61h11.367v1.548H219.96v14.373h-1.708z"/></g><g><path d="M243.301 26.56c5.902 0 7.652 5.774 7.652 13.638 0 9.241-2.316 13.637-7.652 13.637-6.062 0-7.694-5.655-7.694-13.637s1.995-13.637 7.694-13.637zm0-1.387c-5.336 0-9.413 3.746-9.413 15.025 0 11.28 3.832 15.025 9.413 15.025 4.12 0 9.37-2.273 9.37-15.025 0-11.28-3.585-15.025-9.37-15.025z"/></g><g><path d="M258.41 39.875V27.048h6.553c3.543 0 5.742 2.326 5.742 6.232 0 5.538-3.618 6.595-6.841 6.595zm-1.707-14.214v29.068h1.707V41.25h6.275c4.686 0 5.827 2.401 5.827 6.552v2.977c0 1.708.289 3.095.737 3.949h1.953c-.736-1.174-.982-2.241-.982-3.906v-3.052c0-3.99-.864-6.915-5.624-7.203v-.085c3.788-.406 5.827-3.372 5.827-7.203 0-5.293-3.17-7.619-7.204-7.619z"/></g><g><path d="M277.72 47.279c0 3.703 2.4 6.552 6.595 6.552 4.034 0 6.723-2.892 6.723-6.595 0-3.788-2.038-5.09-5.293-6.232l-3.298-1.141c-3.831-1.302-5.902-3.18-5.902-7.129 0-4.684 3.213-7.576 7.78-7.576 5.38 0 7.78 3.052 7.78 7.897h-1.707c0-3.906-1.793-6.52-5.902-6.52-3.255 0-6.233 1.504-6.233 6.029 0 3.222 1.75 4.77 4.28 5.623l4.312 1.505c3.746 1.302 5.901 3.137 5.901 7.416 0 5.176-3.83 8.1-8.43 8.1-6.724 0-8.314-4.728-8.314-7.534v-1.91h1.707v1.515z"/></g><g><path d="M302.346 42.766l-7.94-17.105h1.879l6.926 15.313 7.086-15.313h1.708l-7.94 17.105V54.74h-1.708V42.766z"/></g><g><path d="M316.73 25.66l12.669 26.39h.085V25.66h1.708v29.08h-2.241L316.24 28.35h-.085v26.39h-1.708V25.66z"/></g><g><path d="M335.874 25.66h1.708v29.08h-1.708z"/></g><g><path d="M344.544 25.66l12.668 26.39h.085V25.66h1.708v29.08h-2.241l-12.711-26.39h-.085v26.39h-1.708V25.66z"/></g><g><path d="M379.417 48.873h-.085c-.94 3.949-3.543 6.35-7.652 6.35-6.35 0-8.922-5.581-8.922-14.982 0-9.124 2.561-15.068 9.327-15.068 6.799 0 8.143 5.987 8.143 8.836h-1.707c0-3.906-2.081-7.448-6.35-7.448-5.785 0-7.695 5.42-7.695 13.605 0 7.822 1.59 13.68 7.45 13.68 5.495 0 7.171-5.335 7.171-10.468v-1.793h-7.983v-1.387h9.69v14.534h-1.387z"/></g></g><g><g><path d="M30.4 2.267c1.644 1.44 11.12 9.998 9.84 20.936-.053.416-.074.822-.085 1.227-6.2.662-14.269.822-20.267 1.046C32.567 17.89 39.995 10.313 26.644.016c0 0 2.646 1.354 6.617 3.68 2.678 1.9 5.805 4.27 8.612 6.755C35.544 5.468 29.824 1.765 30.4 2.267z"/></g><g><path fill="url(#7zxxa)" d="M30.4 2.267c1.644 1.44 11.12 9.998 9.84 20.936-.053.416-.074.822-.085 1.227-6.2.662-14.269.822-20.267 1.046C32.567 17.89 39.995 10.313 26.644.016c0 0 2.646 1.354 6.617 3.68 2.678 1.9 5.805 4.27 8.612 6.755C35.544 5.468 29.824 1.765 30.4 2.267z"/></g><g><path d="M1.617 47.084c4.546 13.637 32.71 19.08 49.637 12.58 3.916-1.504 7.065-3.788 9.36-5.879 1.013-.15 1.995-.31 2.934-.48a28.896 28.896 0 0 1-2.753 2.198C36.782 72.438-.251 59.345.187 44.693c.363.278.736.545 1.12.822.032.523.128 1.046.31 1.569z"/></g><g><path fill="url(#7zxxb)" d="M1.617 47.084c4.546 13.637 32.71 19.08 49.637 12.58 3.916-1.504 7.065-3.788 9.36-5.879 1.013-.15 1.995-.31 2.934-.48a28.896 28.896 0 0 1-2.753 2.198C36.782 72.438-.251 59.345.187 44.693c.363.278.736.545 1.12.822.032.523.128 1.046.31 1.569z"/></g><g><path d="M24.887 28.767c4.216-1.11 10.043-1.43 15.432-1.846 1.91 12.506 20.427 18.482 17.119.822-.3-1.612-1.398-3.49-2.967-5.485.202-2.71-3.49-6.467-8.24-10.159 12.86 9.262 26.553 22.42 22.231 34.275C55.581 39.94 18.74 30.378 24.887 28.767z"/></g><g><path fill="url(#7zxxc)" d="M24.887 28.767c4.216-1.11 10.043-1.43 15.432-1.846 1.91 12.506 20.427 18.482 17.119.822-.3-1.612-1.398-3.49-2.967-5.485.202-2.71-3.49-6.467-8.24-10.159 12.86 9.262 26.553 22.42 22.231 34.275C55.581 39.94 18.74 30.378 24.887 28.767z"/></g><g><path d="M1.33 44.337a54.176 54.176 0 0 1-1.056-.619c.288-2.017 1.292-4.044 3.149-6.018 3.287-3.479 7.257-6.606 11.408-9.22.246.128.502.256.78.395-3.672 2.23-13.576 8.857-14.28 15.462z"/></g><g><path fill="url(#7zxxd)" d="M1.33 44.337a54.176 54.176 0 0 1-1.056-.619c.288-2.017 1.292-4.044 3.149-6.018 3.287-3.479 7.257-6.606 11.408-9.22.246.128.502.256.78.395-3.672 2.23-13.576 8.857-14.28 15.462z"/></g><g><path d="M13.868 51.794c4.301 1.388 9.595 2.508 16.382 3.19 6.724.673 18.41.342 28.047-.874-15.806 9.785-35.528 6.328-44.429-2.316z"/></g><g><path fill="url(#7zxxe)" d="M13.868 51.794c4.301 1.388 9.595 2.508 16.382 3.19 6.724.673 18.41.342 28.047-.874-15.806 9.785-35.528 6.328-44.429-2.316z"/></g><g><path d="M15.886 29.013c9.328 4.354 35.667 11.589 39.338 13.798 10.875 6.52-21.76 13.221-43.65 6.317-3.959-5.72-3.564-12.986 4.312-20.115z"/></g><g><path fill="url(#7zxxf)" d="M15.886 29.013c9.328 4.354 35.667 11.589 39.338 13.798 10.875 6.52-21.76 13.221-43.65 6.317-3.959-5.72-3.564-12.986 4.312-20.115z"/></g><g><path d="M15.605 28.876c.096.043.192.086.289.139-7.877 7.128-8.271 14.395-4.312 20.115-2.721-.854-5.262-1.921-7.545-3.223a827.474 827.474 0 0 1-2.711-1.558c.704-6.616 10.608-13.243 14.28-15.473z"/></g><g><path fill="url(#7zxxg)" d="M15.605 28.876c.096.043.192.086.289.139-7.877 7.128-8.271 14.395-4.312 20.115-2.721-.854-5.262-1.921-7.545-3.223a827.474 827.474 0 0 1-2.711-1.558c.704-6.616 10.608-13.243 14.28-15.473z"/></g><g opacity=".5"><path fill="url(#7zxxh)" d="M15.605 28.876c.096.043.192.086.289.139-7.877 7.128-8.271 14.395-4.312 20.115-2.721-.854-5.262-1.921-7.545-3.223a827.474 827.474 0 0 1-2.711-1.558c.704-6.616 10.608-13.243 14.28-15.473z"/></g><g><path d="M58.3 54.102c.79-.096 1.559-.203 2.316-.32-2.305 2.091-5.453 4.385-9.36 5.88C34.32 66.16 6.157 60.717 1.62 47.08a6.782 6.782 0 0 1-.31-1.579c3.224 2.305 7.076 4.514 12.562 6.285 8.89 8.654 28.612 12.112 44.429 2.316z"/></g><g><path fill="url(#7zxxi)" d="M58.3 54.102c.79-.096 1.559-.203 2.316-.32-2.305 2.091-5.453 4.385-9.36 5.88C34.32 66.16 6.157 60.717 1.62 47.08a6.782 6.782 0 0 1-.31-1.579c3.224 2.305 7.076 4.514 12.562 6.285 8.89 8.654 28.612 12.112 44.429 2.316z"/></g><g opacity=".5"><path fill="url(#7zxxj)" d="M58.3 54.102c.79-.096 1.559-.203 2.316-.32-2.305 2.091-5.453 4.385-9.36 5.88C34.32 66.16 6.157 60.717 1.62 47.08a6.782 6.782 0 0 1-.31-1.579c3.224 2.305 7.076 4.514 12.562 6.285 8.89 8.654 28.612 12.112 44.429 2.316z"/></g><g><path d="M54.476 22.263c1.57 1.985 2.669 3.863 2.967 5.485 3.309 17.66-15.208 11.684-17.118-.822 4.642-.363 8.954-.79 11.611-1.867 1.676-.705 2.455-1.654 2.54-2.796z"/></g><g><path fill="url(#7zxxk)" d="M54.476 22.263c1.57 1.985 2.669 3.863 2.967 5.485 3.309 17.66-15.208 11.684-17.118-.822 4.642-.363 8.954-.79 11.611-1.867 1.676-.705 2.455-1.654 2.54-2.796z"/></g><g><path fill="url(#7zxxl)" d="M54.476 22.263c1.57 1.985 2.669 3.863 2.967 5.485 3.309 17.66-15.208 11.684-17.118-.822 4.642-.363 8.954-.79 11.611-1.867 1.676-.705 2.455-1.654 2.54-2.796z"/></g><g><path d="M30.398 2.255c-.576-.501 5.144 3.19 11.473 8.185 4.28 3.799 7.759 7.854 7.567 10.884-.107 1.611-4.013 2.53-9.285 3.095.01-.406.032-.811.085-1.227 1.28-10.938-8.196-19.496-9.84-20.937z"/></g><g><path fill="url(#7zxxm)" d="M30.398 2.255c-.576-.501 5.144 3.19 11.473 8.185 4.28 3.799 7.759 7.854 7.567 10.884-.107 1.611-4.013 2.53-9.285 3.095.01-.406.032-.811.085-1.227 1.28-10.938-8.196-19.496-9.84-20.937z"/></g><g><path fill="url(#7zxxn)" d="M30.398 2.255c-.576-.501 5.144 3.19 11.473 8.185 4.28 3.799 7.759 7.854 7.567 10.884-.107 1.611-4.013 2.53-9.285 3.095.01-.406.032-.811.085-1.227 1.28-10.938-8.196-19.496-9.84-20.937z"/></g></g></g></g></svg>