<?xml version="1.0" encoding="utf-8"?>
<!-- Generator: Adobe Illustrator 23.0.1, SVG Export Plug-In . SVG Version: 6.00 Build 0)  -->
<svg version="1.1" id="Layer_1" xmlns="http://www.w3.org/2000/svg" xmlns:xlink="http://www.w3.org/1999/xlink" x="0px" y="0px"
	 width="118.7px" height="76.9px" viewBox="0 0 118.7 76.9" style="enable-background:new 0 0 118.7 76.9;" xml:space="preserve">
<style type="text/css">
	.st0{clip-path:url(#SVGID_2_);fill:#002A49;}
</style>
<g>
	<defs>
		<rect id="SVGID_1_" x="2.4" y="2.4" width="114" height="71.4"/>
	</defs>
	<clipPath id="SVGID_2_">
		<use xlink:href="#SVGID_1_"  style="overflow:visible;"/>
	</clipPath>
	<path class="st0" d="M29.1,54.7c0-1.1,1.7-1.3,2.7-1.3h0.4v0.2c0,1-0.8,2.2-1.9,2.2C29.6,55.7,29.1,55.2,29.1,54.7"/>
	<path class="st0" d="M113.3,60.9c0,2.2,1.2,2.5,2.4,2.5c0.4,0,0.7,0,0.7,0v-1.9c0,0-0.1,0-0.3,0c-0.5,0-0.6-0.2-0.6-0.8v-6.3h-2.2
		V60.9z M108.1,59.2c0.1-0.5,0.4-0.9,1-0.9c0.5,0,0.9,0.4,0.9,0.9H108.1z M105.9,60c0,1.7,1.2,3.4,3.6,3.4c1.7,0,2.8-0.9,2.8-0.9
		l-0.8-1.5c0,0-0.9,0.7-1.8,0.7c-0.7,0-1.3-0.4-1.5-1.2h4.1c0,0,0.1-0.5,0.1-0.7c0-1.8-1.1-3.1-3-3.1
		C107.2,56.6,105.9,58.1,105.9,60 M100.1,60c0-1,0.6-1.5,1.3-1.5c0.9,0,1.3,0.8,1.3,1.5c0,1.1-0.6,1.6-1.3,1.6
		C100.6,61.6,100.1,61,100.1,60 M97.9,60c0,2,1.2,3.4,2.9,3.4c1.3,0,1.9-0.9,1.9-0.9h0c0,0,0,0.2,0,0.4v0.4h2v-9h-2.2v2.6
		c0,0.2,0,0.3,0,0.3h0c0,0-0.4-0.5-1.7-0.5C99.1,56.6,97.9,58,97.9,60 M90.3,63.3h2.2v-2.9c0-0.3,0-0.6,0.1-0.9
		c0.2-0.6,0.6-0.9,1.3-0.9c0.5,0,0.7,0.3,0.7,0.9v3.8h2.2V59c0-1.8-1-2.4-2.3-2.4c-1.1,0-1.8,0.6-2.1,1.1h0c0,0,0-0.2,0-0.4v-0.6
		h-2.1V63.3z M85.3,56.3c0,0,0.2,1,0.4,1.5l0.5,1.8h-1.8l0.5-1.8C85.1,57.3,85.3,56.3,85.3,56.3L85.3,56.3z M87.3,63.3h2.3l-3.1-9
		h-2.3l-3.1,9h2.3l0.5-1.9h2.8L87.3,63.3z M72,62.4c0,0,1,1,2.6,1c1.7,0,2.7-0.9,2.7-2.1c0-2.1-3-2.2-3-2.7c0-0.2,0.3-0.3,0.6-0.3
		c0.9,0,1.5,0.5,1.5,0.5l0.7-1.5c0,0-0.8-0.7-2.3-0.7c-1.5,0-2.7,0.8-2.7,2c0,2.1,3,2.2,3,2.7c0,0.2-0.3,0.3-0.6,0.3
		C73.7,61.6,73,61,73,61L72,62.4z M66.3,60c0-1,0.6-1.5,1.3-1.5c0.9,0,1.3,0.8,1.3,1.5c0,1.1-0.6,1.6-1.3,1.6
		C66.8,61.6,66.3,61,66.3,60 M64.1,60c0,2,1.2,3.4,2.9,3.4c1.3,0,1.9-0.9,1.9-0.9h0c0,0,0,0.2,0,0.4v0.4h2v-9h-2.2v2.6
		c0,0.2,0,0.3,0,0.3h0c0,0-0.4-0.5-1.7-0.5C65.3,56.6,64.1,58,64.1,60 M56.5,63.3h2.2v-2.9c0-0.3,0-0.6,0.1-0.9
		c0.2-0.6,0.6-0.9,1.3-0.9c0.5,0,0.7,0.3,0.7,0.9v3.8H63V59c0-1.8-1-2.4-2.3-2.4c-1.1,0-1.8,0.6-2.1,1.1h0c0,0,0-0.2,0-0.4v-0.6
		h-2.1V63.3z M51.2,61.2c0-0.5,0.8-0.7,1.5-0.7h0.2v0.1c0,0.5-0.5,1.1-1.1,1.1C51.3,61.7,51.2,61.5,51.2,61.2 M49,61.3
		c0,1.3,1,2.1,2.2,2.1c1.4,0,1.8-0.9,1.8-0.9h0c0,0,0,0.2,0,0.4v0.4h2v-4c0-1.6-1.1-2.6-2.9-2.6c-1.6,0-2.7,0.8-2.7,0.8l0.8,1.5
		c0,0,0.9-0.6,1.7-0.6c0.5,0,1,0.2,1,0.7v0.1h-0.1C51.7,59.2,49,59.4,49,61.3 M44.7,60.9c0,2.2,1.2,2.5,2.4,2.5c0.4,0,0.7,0,0.7,0
		v-1.9c0,0-0.1,0-0.3,0c-0.5,0-0.6-0.2-0.6-0.8v-6.3h-2.2V60.9z M40.5,60.9c0,2.2,1.2,2.5,2.4,2.5c0.4,0,0.7,0,0.7,0v-1.9
		c0,0-0.1,0-0.3,0c-0.5,0-0.6-0.2-0.6-0.8v-6.3h-2.2V60.9z M32.9,65.4c0,0,0.7,0.5,1.5,0.5c1,0,2.2-0.5,2.7-2l2.7-7.2h-2.4l-0.8,3
		c-0.1,0.4-0.2,1-0.2,1h0c0,0-0.1-0.7-0.2-1l-1-3h-2.5l2.8,6.4l-0.1,0.3c-0.2,0.6-0.7,0.7-1,0.7c-0.3,0-0.7-0.2-0.7-0.2L32.9,65.4z
		 M29.4,56.8v6.4c0,0.7-0.7,0.8-1.2,0.8c-0.2,0-0.3,0-0.3,0v1.8c0,0,0.2,0,0.6,0c1,0,3-0.3,3-2.5v-6.6H29.4z M24.3,60.9
		c0,2.2,2,2.5,3,2.5c0.4,0,0.6,0,0.6,0v-1.9c0,0-0.1,0-0.3,0c-0.4,0-1.2-0.1-1.2-0.8v-2h1.4v-1.7h-1.4V55h-2.1v1.9h-0.9v1.7h0.8
		V60.9z M17.5,62.4c0,0,1,1,2.6,1c1.7,0,2.7-0.9,2.7-2.1c0-2.1-3-2.2-3-2.7c0-0.2,0.3-0.3,0.6-0.3c0.9,0,1.5,0.5,1.5,0.5l0.7-1.5
		c0,0-0.8-0.7-2.3-0.7c-1.5,0-2.7,0.8-2.7,2c0,2.1,3,2.2,3,2.7c0,0.2-0.3,0.3-0.6,0.3c-0.9,0-1.6-0.7-1.6-0.7L17.5,62.4z M12.7,59.2
		c0.1-0.5,0.4-0.9,1-0.9c0.5,0,0.9,0.4,0.9,0.9H12.7z M10.4,60c0,1.7,1.2,3.4,3.6,3.4c1.7,0,2.8-0.9,2.8-0.9L16,60.9
		c0,0-0.9,0.7-1.8,0.7c-0.7,0-1.3-0.4-1.5-1.2h4.1c0,0,0.1-0.5,0.1-0.7c0-1.8-1.1-3.1-3-3.1C11.7,56.6,10.4,58.1,10.4,60 M5.6,63.3
		h2.3l3.2-9H8.7l-1.6,5.1c-0.2,0.6-0.3,1.4-0.3,1.4h0c0,0-0.2-0.9-0.3-1.4l-1.6-5.1H2.4L5.6,63.3z"/>
	<path class="st0" d="M59,46.9c-12.3,0-22.2-10-22.2-22.2c0-12.3,10-22.2,22.2-22.2c12.3,0,22.2,10,22.2,22.2
		C81.2,36.9,71.3,46.9,59,46.9 M59,2.9c-12,0-21.7,9.7-21.7,21.7c0,12,9.7,21.7,21.7,21.7c12,0,21.7-9.7,21.7-21.7
		C80.7,12.7,71,2.9,59,2.9"/>
	<polygon class="st0" points="69.4,11.9 65.8,22.2 69.1,29.2 63.3,29.2 60.3,37.6 81.4,37.6 75.8,25.7 	"/>
	<polygon class="st0" points="57.2,11.8 52.3,27.2 47.4,11.8 36.8,11.8 37.8,14.4 46,37.6 57.8,37.6 67.3,11.8 	"/>
	<path class="st0" d="M19.3,72c0,0,0.4,0.4,1,0.4c0.4,0,0.8-0.3,0.8-0.7c0-1-1.9-0.7-1.9-1.9c0-0.6,0.5-1,1.2-1c0.7,0,1,0.4,1,0.4
		l-0.2,0.3c0,0-0.3-0.3-0.8-0.3c-0.5,0-0.8,0.3-0.8,0.7c0,0.9,1.9,0.7,1.9,1.9c0,0.6-0.4,1-1.2,1c-0.8,0-1.2-0.5-1.2-0.5L19.3,72z"
		/>
	<path class="st0" d="M23.7,71h0.2v-0.1c0-0.5-0.3-0.7-0.7-0.7c-0.5,0-0.8,0.3-0.8,0.3l-0.2-0.3c0,0,0.4-0.3,1-0.3
		c0.7,0,1,0.4,1,1.1v1.8h-0.4v-0.3c0-0.1,0-0.2,0-0.2h0c0,0-0.2,0.6-0.9,0.6c-0.5,0-0.9-0.3-0.9-0.8C22,71,23.2,71,23.7,71 M23,72.5
		c0.5,0,0.8-0.5,0.8-1v-0.1h-0.2c-0.4,0-1.3,0-1.3,0.6C22.4,72.2,22.6,72.5,23,72.5"/>
	<path class="st0" d="M25.1,70h0.4v0.4c0,0.1,0,0.2,0,0.2h0c0.1-0.4,0.6-0.7,1-0.7c0.5,0,0.8,0.2,0.9,0.7h0c0.1-0.4,0.5-0.7,1-0.7
		c0.7,0,0.9,0.4,0.9,1.1v1.8h-0.4v-1.7c0-0.4-0.1-0.8-0.6-0.8c-0.4,0-0.8,0.4-0.9,0.8c0,0.1,0,0.3,0,0.4v1.3H27v-1.7
		c0-0.4-0.1-0.8-0.6-0.8c-0.4,0-0.8,0.4-0.9,0.8c0,0.1,0,0.2,0,0.4v1.3h-0.4V70z"/>
	<path class="st0" d="M30.1,70h0.4v0.4c0,0.1,0,0.2,0,0.2h0c0.1-0.4,0.6-0.7,1-0.7c0.5,0,0.8,0.2,0.9,0.7h0c0.1-0.4,0.5-0.7,1-0.7
		c0.7,0,0.9,0.4,0.9,1.1v1.8h-0.4v-1.7c0-0.4-0.1-0.8-0.6-0.8c-0.4,0-0.8,0.4-0.9,0.8c0,0.1,0,0.3,0,0.4v1.3H32v-1.7
		c0-0.4-0.1-0.8-0.6-0.8c-0.4,0-0.8,0.4-0.9,0.8c0,0.1,0,0.2,0,0.4v1.3h-0.4V70z"/>
	<path class="st0" d="M36.3,69.9c0.8,0,1.2,0.6,1.2,1.3c0,0.1,0,0.2,0,0.2h-2.1c0,0.7,0.5,1.1,1.1,1.1c0.5,0,0.8-0.3,0.8-0.3
		l0.2,0.3c0,0-0.4,0.4-1,0.4c-0.8,0-1.4-0.6-1.4-1.4C34.9,70.4,35.5,69.9,36.3,69.9 M37.1,71.1c0-0.6-0.4-0.8-0.8-0.8
		c-0.5,0-0.9,0.3-0.9,0.8H37.1z"/>
	<path class="st0" d="M38.1,70h0.4v0.4c0,0.1,0,0.2,0,0.2h0c0.1-0.3,0.4-0.7,1.1-0.7c0.7,0,0.9,0.4,0.9,1.1v1.8h-0.4v-1.7
		c0-0.4-0.1-0.8-0.6-0.8c-0.5,0-0.9,0.3-1,0.8c0,0.1,0,0.2,0,0.4v1.3h-0.4V70z"/>
	<path class="st0" d="M44.1,69.9c0.8,0,1.5,0.6,1.5,1.4c0,0.8-0.7,1.5-1.5,1.5c-0.8,0-1.5-0.6-1.5-1.5
		C42.7,70.5,43.3,69.9,44.1,69.9 M44.1,72.5c0.6,0,1.1-0.5,1.1-1.1c0-0.6-0.5-1.1-1.1-1.1c-0.6,0-1.1,0.5-1.1,1.1
		C43.1,72,43.5,72.5,44.1,72.5"/>
	<path class="st0" d="M46.3,70h0.4v0.4c0,0.1,0,0.2,0,0.2h0c0.1-0.4,0.6-0.7,1-0.7c0.5,0,0.8,0.2,0.9,0.7h0c0.1-0.4,0.5-0.7,1-0.7
		c0.7,0,0.9,0.4,0.9,1.1v1.8h-0.4v-1.7c0-0.4-0.1-0.8-0.6-0.8c-0.4,0-0.8,0.4-0.9,0.8c0,0.1,0,0.3,0,0.4v1.3h-0.4v-1.7
		c0-0.4-0.1-0.8-0.6-0.8c-0.4,0-0.8,0.4-0.9,0.8c0,0.1,0,0.2,0,0.4v1.3h-0.4V70z"/>
	<path class="st0" d="M52.8,70h0.4v0.3c0,0.1,0,0.2,0,0.2h0c0,0,0.2-0.5,1-0.5c0.7,0,1.2,0.6,1.2,1.4c0,0.9-0.5,1.4-1.2,1.4
		c-0.7,0-0.9-0.5-0.9-0.5h0c0,0,0,0.1,0,0.2v1.3h-0.4V70z M54,72.5c0.5,0,0.9-0.4,0.9-1.1c0-0.7-0.4-1.1-0.9-1.1
		c-0.5,0-0.9,0.3-0.9,1.1C53.2,71.9,53.5,72.5,54,72.5"/>
	<path class="st0" d="M56,70h0.4v0.5c0,0.1,0,0.2,0,0.2h0c0.1-0.4,0.4-0.7,0.9-0.7c0.1,0,0.1,0,0.1,0v0.4c0,0-0.1,0-0.1,0
		c-0.4,0-0.7,0.3-0.8,0.7c-0.1,0.2-0.1,0.4-0.1,0.5v1.2H56V70z"/>
	<path class="st0" d="M59.4,71h0.2v-0.1c0-0.5-0.3-0.7-0.7-0.7c-0.5,0-0.8,0.3-0.8,0.3L58,70.2c0,0,0.4-0.3,1-0.3c0.7,0,1,0.4,1,1.1
		v1.8h-0.4v-0.3c0-0.1,0-0.2,0-0.2h0c0,0-0.2,0.6-0.9,0.6c-0.5,0-0.9-0.3-0.9-0.8C57.8,71,59,71,59.4,71 M58.8,72.5
		c0.5,0,0.8-0.5,0.8-1v-0.1h-0.2c-0.4,0-1.3,0-1.3,0.6C58.1,72.2,58.3,72.5,58.8,72.5"/>
	<polygon class="st0" points="60.8,68.9 61.2,68.9 61.2,71 61.6,71 62.5,70 62.9,70 62,71.2 62,71.2 63,72.7 62.6,72.7 61.7,71.3 
		61.2,71.3 61.2,72.7 60.8,72.7 	"/>
	<path class="st0" d="M63.7,70.3h-0.4V70h0.4v-0.8h0.4V70h0.7v0.3h-0.7v1.4c0,0.6,0.4,0.7,0.6,0.7c0.1,0,0.1,0,0.1,0v0.3
		c0,0-0.1,0-0.2,0c-0.3,0-1-0.1-1-1V70.3z"/>
	<path class="st0" d="M65.4,68.9h0.4v0.5h-0.4V68.9z M65.4,70h0.4v2.8h-0.4V70z"/>
	<path class="st0" d="M66.7,72.1c0,0,0.3,0.3,0.8,0.3c0.3,0,0.6-0.1,0.6-0.4c0-0.6-1.5-0.5-1.5-1.4c0-0.5,0.4-0.8,0.9-0.8
		c0.6,0,0.9,0.3,0.9,0.3l-0.2,0.3c0,0-0.2-0.3-0.7-0.3c-0.3,0-0.5,0.1-0.5,0.4c0,0.6,1.5,0.4,1.5,1.4c0,0.4-0.4,0.8-0.9,0.8
		c-0.7,0-1-0.4-1-0.4L66.7,72.1z"/>
	<polygon class="st0" points="69.1,68.9 69.5,68.9 69.5,71 69.9,71 70.8,70 71.2,70 70.3,71.2 70.3,71.2 71.3,72.7 70.9,72.7 
		69.9,71.3 69.5,71.3 69.5,72.7 69.1,72.7 	"/>
	<path class="st0" d="M73.4,68.9h0.4v0.5h-0.4V68.9z M73.4,70h0.4v2.8h-0.4V70z"/>
	<path class="st0" d="M74.6,70H75v0.4c0,0.1,0,0.2,0,0.2h0c0.1-0.3,0.4-0.7,1.1-0.7c0.7,0,0.9,0.4,0.9,1.1v1.8h-0.4v-1.7
		c0-0.4-0.1-0.8-0.6-0.8c-0.5,0-0.9,0.3-1,0.8c0,0.1,0,0.2,0,0.4v1.3h-0.4V70z"/>
	<path class="st0" d="M77.9,70h0.4v0.4c0,0.1,0,0.2,0,0.2h0c0.1-0.3,0.4-0.7,1.1-0.7c0.7,0,0.9,0.4,0.9,1.1v1.8h-0.4v-1.7
		c0-0.4-0.1-0.8-0.6-0.8c-0.5,0-0.9,0.3-1,0.8c0,0.1,0,0.2,0,0.4v1.3h-0.4V70z"/>
	<path class="st0" d="M82.4,69.9c0.8,0,1.5,0.6,1.5,1.4c0,0.8-0.7,1.5-1.5,1.5c-0.8,0-1.5-0.6-1.5-1.5
		C80.9,70.5,81.6,69.9,82.4,69.9 M82.4,72.5c0.6,0,1.1-0.5,1.1-1.1c0-0.6-0.5-1.1-1.1-1.1c-0.6,0-1.1,0.5-1.1,1.1
		C81.3,72,81.8,72.5,82.4,72.5"/>
	<path class="st0" d="M84.2,70h0.4l0.8,2c0,0.1,0.1,0.3,0.1,0.3h0c0,0,0-0.2,0.1-0.3l0.8-2h0.4l-1.1,2.8h-0.4L84.2,70z"/>
	<path class="st0" d="M88.7,71h0.2v-0.1c0-0.5-0.3-0.7-0.7-0.7c-0.5,0-0.8,0.3-0.8,0.3l-0.2-0.3c0,0,0.4-0.3,1-0.3
		c0.7,0,1,0.4,1,1.1v1.8h-0.4v-0.3c0-0.1,0-0.2,0-0.2h0c0,0-0.2,0.6-0.9,0.6c-0.5,0-0.9-0.3-0.9-0.8C87,71,88.2,71,88.7,71 M88,72.5
		c0.5,0,0.8-0.5,0.8-1v-0.1h-0.2c-0.4,0-1.3,0-1.3,0.6C87.4,72.2,87.6,72.5,88,72.5"/>
	<path class="st0" d="M90.2,70.3h-0.4V70h0.4v-0.8h0.4V70h0.7v0.3h-0.7v1.4c0,0.6,0.4,0.7,0.6,0.7c0.1,0,0.1,0,0.1,0v0.3
		c0,0-0.1,0-0.2,0c-0.3,0-1-0.1-1-1V70.3z"/>
	<path class="st0" d="M91.9,68.9h0.4v0.5h-0.4V68.9z M91.9,70h0.4v2.8h-0.4V70z"/>
	<path class="st0" d="M94.4,69.9c0.8,0,1.5,0.6,1.5,1.4c0,0.8-0.7,1.5-1.5,1.5c-0.8,0-1.5-0.6-1.5-1.5C93,70.5,93.6,69.9,94.4,69.9
		 M94.4,72.5c0.6,0,1.1-0.5,1.1-1.1c0-0.6-0.5-1.1-1.1-1.1c-0.6,0-1.1,0.5-1.1,1.1C93.3,72,93.8,72.5,94.4,72.5"/>
	<path class="st0" d="M96.6,70h0.4v0.4c0,0.1,0,0.2,0,0.2h0c0.1-0.3,0.4-0.7,1.1-0.7c0.7,0,0.9,0.4,0.9,1.1v1.8h-0.4v-1.7
		c0-0.4-0.1-0.8-0.6-0.8c-0.5,0-0.9,0.3-1,0.8c0,0.1,0,0.2,0,0.4v1.3h-0.4V70z"/>
</g>
</svg>
