<svg viewBox="0 0 220 46" xmlns="http://www.w3.org/2000/svg"><g fill="#3D505A"><path d="M64.8 29.3c-.1.3-.2.5-.7.5h-2.5c-.5 0-.6-.1-.7-.5l-3.4-11.2c-.2-.5.2-.6.6-.6h2c.4 0 .4.1.5.4l2.5 8.2 2.5-8.2c.1-.4.1-.4.5-.4h1.5c.5 0 .8 0 .6.5l-3.4 11.3zm12.2.5h-7.1c-.2 0-.5-.1-.5-.5V18.1c0-.3 0-.6.4-.6h6.8c.4 0 .5.1.5.4v1.6c0 .3-.3.4-.8.4h-3.4c-.4 0-.4.1-.4.3V22c0 .3.1.4.4.4H76c.5 0 .6.2.5.4l-.1 1.6c-.1.5-.6.4-.8.4h-2.5c-.3 0-.5.1-.5.4v2c0 .4.3.4.6.4h3.5c.6 0 .9.1.9.4v1.6c-.3.1-.4.2-.6.2zm5.5.3c-2.2 0-3.4-.4-3.8-.7-.2-.2-.1-2.5.3-2.4.5.1 1.3.5 3.1.5 1.2 0 2.1-.3 2.1-1.1 0-.7-.5-1.1-1.7-1.5-1.6-.7-3.5-1.5-3.5-3.9 0-2.2 1.8-3.5 4.7-3.5 2.2 0 2.9.3 3.2.4.4.1-.1 2.5-.6 2.4-.6-.1-1.7-.4-2.4-.4-1.2 0-1.7.3-1.7 1 0 .6.6 1 1.7 1.4 1.8.8 3.7 2 3.7 4.2-.2 3-2.9 3.6-5.1 3.6zm14.8-10.2h-2.6c-.3 0-.4.1-.4.3v9c0 .4-.2.6-.7.6h-1.8c-.5 0-.7-.1-.7-.6v-9c0-.3-.1-.3-.4-.3h-2.4c-.4 0-.4-.2-.4-.4v-1.6c0-.3.2-.4.6-.4H97c.4 0 .6 0 .6.4v1.6c.2.2.1.4-.3.4zm8.2 0h-3.4c-.4 0-.4.1-.4.3v2.1c0 .3.2.4.4.4h2.9c.5 0 .6.2.5.4l-.1 1.5c-.1.5-.6.5-.8.5h-2.5c-.3 0-.4.2-.4.4v4c0 .3-.2.4-.3.4h-2.2c-.2 0-.5-.1-.5-.5V18.1c0-.3 0-.6.4-.6h6.7c.4 0 .5.2.5.4v1.5c-.1.4-.3.5-.8.5zm6.7 10.1c-1.6 0-4.8-.2-4.8-3.6v-4.8c0-3 1.5-4.2 4.6-4.2 2.5 0 5 .9 5 4.3V26c.1 4-3.3 4-4.8 4zm1.7-8.1c0-1.2-.6-1.9-1.7-1.9-1.4 0-1.8 1-1.8 1.9v3.6c0 1.4.9 1.9 1.7 1.9 1.1 0 1.7-.6 1.7-2.1v-3.4zm12.7 2.6c-.2.1-.2.1-.1.3l2 4.5c.2.4.2.6-.2.6h-2.4c-.5 0-.5-.2-.6-.5l-1.8-3.9c-.1-.1-.1-.1-.3-.1h-1c-.2 0-.2.1-.2.3v3.7c0 .4-.2.5-.6.5h-2.1c-.5 0-.4-.2-.4-.6V18c0-.3.1-.4.5-.4h4.4c3.2 0 4.8 1.6 4.8 3.9 0 1.6-1.2 2.7-2 3zm-3.1-4.6h-1.2c-.3 0-.3.2-.3.3v2.4c0 .3.1.3.3.3h1.6c.8 0 1.5-.5 1.5-1.5s-.9-1.5-1.9-1.5zm12 9.9h-4.8c-.4 0-.5-.1-.5-.4V18.2c0-.4 0-.6.4-.6h4.2c3.1 0 4.6 1 4.6 3.1 0 1.5-.7 2.5-1.7 3 .9.4 1.9 1 1.9 3 .1 2-1.3 3.1-4.1 3.1zm-.9-10.2h-1.1c-.3 0-.3.2-.3.3v2.2c0 .2.1.3.3.3h1.1c1.1 0 1.7-.3 1.7-1.4.1-1.1-.6-1.4-1.7-1.4zm.1 5.2h-1.1c-.3 0-.3.1-.3.3v2.3c0 .1.1.3.3.3h1.1c1.2 0 2-.3 2-1.4-.1-1.1-1-1.5-2-1.5zm14.2-.3c-.2.1-.2.1-.1.3l2 4.5c.2.4.2.6-.2.6h-2.4c-.5 0-.5-.2-.6-.5l-1.8-3.9c-.1-.1-.1-.1-.3-.1h-1c-.2 0-.2.1-.2.3v3.7c0 .4-.2.5-.6.5h-2.1c-.5 0-.4-.2-.4-.6V18c0-.3.1-.4.5-.4h4.4c3.2 0 4.8 1.6 4.8 3.9 0 1.6-1.2 2.7-2 3zm-3.1-4.6h-1.2c-.3 0-.3.2-.3.3v2.4c0 .3.1.3.3.3h1.6c.8 0 1.5-.5 1.5-1.5s-.9-1.5-1.9-1.5z"/><path d="M164.9 29.8h-7.1c-.2 0-.5-.1-.5-.5V28c0-.2-.1-.4-.3-.4h-2.6l-.8 1.8c-.1.3-.3.4-.6.4h-2c-.3 0-.4-.1-.3-.5l5.1-11.2c.2-.4.3-.5.7-.5h7.9c.4 0 .5.1.5.4v1.6c0 .3-.3.4-.8.4h-3.4c-.4 0-.4.1-.4.3v1.8c0 .3.2.4.4.4h3.1c.5 0 .6.2.5.4l-.1 1.6c-.1.5-.6.4-.8.4h-2.5c-.3 0-.5.1-.5.4v2c0 .4.3.4.6.4h3.4c.6 0 .9.1.9.4v1.6c-.1 0-.3.1-.4.1zm-7.6-9.5l-2.3 5.3h1.9c.3 0 .3-.2.3-.4v-4.9zm19 9.6l-1.8-.1c-.4 0-.5-.1-.7-.4l-3.9-6.2c-.2-.4-.4-.5-.4 0v6c0 .5-.1.6-.6.6h-1.7c-.2 0-.6.1-.6-.5V18.1c0-.1 0-.5.4-.5h1.8c.6 0 .6.1.8.4l3.9 6.4c.2.3.4.3.4-.3v-5.9c0-.3.1-.6.4-.5h2.1c.3 0 .4.2.4.6v11.1c0 .3-.1.5-.5.5zm7.9-.1h-4.9c-.3 0-.6-.2-.6-.6v-11c0-.4.1-.7.5-.7h3.8c2.6 0 5.2.7 5.2 4.1V26c-.1 3.3-2.9 3.8-4 3.8zm.7-7.9c0-1.1-.7-1.9-1.9-1.9h-.8c-.4 0-.5.1-.5.4v6.5c0 .2.1.4.5.4h.8c1 0 1.9-.6 1.9-2v-3.4zm7.6 7.9h-2c-.5 0-.6-.1-.6-.5V18c0-.4.1-.5.6-.5h2.1c.4 0 .4.2.4.5v11.3c0 .4-.1.5-.5.5zm12 .1l-1.8-.1c-.4 0-.5-.1-.7-.4l-3.9-6.2c-.2-.4-.4-.5-.4 0v6c0 .5-.1.6-.6.6h-1.7c-.2 0-.6.1-.6-.5V18.1c0-.1 0-.5.4-.5h1.8c.6 0 .6.1.8.4l3.9 6.4c.2.3.4.3.4-.3v-5.9c0-.3.1-.6.4-.5h2.1c.3 0 .4.2.4.6v11.1c-.1.3-.1.5-.5.5zm7.3.1c-3.8 0-5.1-1.9-5.1-4.2v-3.7c0-2.5 1-4.7 5.6-4.7 2.2 0 3.1.6 3.3.8.2.2-.5 2.2-.8 2.1-.4-.2-1-.4-2.3-.4-1.5 0-2.6.4-2.6 2.5v3.1c0 1.6.4 2.3 1.8 2.3 1.2 0 1.5-.5 1.5-1.4v-1.3c0-.2 0-.4-.3-.4h-.8c-.2 0-.3 0-.3-.4V23c0-.2 0-.4.2-.4h3.5c.7 0 .8.1.8.7v2.6c0 2-.5 4.1-4.5 4.1z"/></g><path fill-rule="evenodd" clip-rule="evenodd" fill="#006F3C" d="M47 1.2L6.3 7.7c-2.5.4-3.9 2.9-2.6 5.1l18.3 31c1.3 2.2 3.5 2.1 4.8-.2L49.3 4.5c1.3-2.2.2-3.7-2.3-3.3zm-5.4 6.2l-1.7 2.9c-.2.4-.8.8-1.3.9l-3 .4c-.6.1-1 .5-1.3.9L22.1 34.1c-.2.4-.6.4-.9 0L8.5 12.7c-.2-.4-.1-.8.4-.9l3.1-.5c.5-.1 1 .2 1.3.6l8 13.1c.2.4.6.4.9 0l8.9-16c.3-.5.7-.8 1.3-.9l8.7-1.3c.5 0 .7.2.5.6z"/></svg>