<?xml version="1.0" encoding="UTF-8" standalone="no"?>
<!-- Created with Inkscape (http://www.inkscape.org/) -->

<svg
   xmlns:dc="http://purl.org/dc/elements/1.1/"
   xmlns:cc="http://creativecommons.org/ns#"
   xmlns:rdf="http://www.w3.org/1999/02/22-rdf-syntax-ns#"
   xmlns:svg="http://www.w3.org/2000/svg"
   xmlns="http://www.w3.org/2000/svg"
   xmlns:sodipodi="http://sodipodi.sourceforge.net/DTD/sodipodi-0.dtd"
   xmlns:inkscape="http://www.inkscape.org/namespaces/inkscape"
   width="400.9075"
   height="400.90747"
   id="svg5321"
   version="1.1"
   inkscape:version="0.47 r22583"
   sodipodi:docname="Denmark road sign D27.1.svg">
  <defs
     id="defs5323">
    <inkscape:perspective
       sodipodi:type="inkscape:persp3d"
       inkscape:vp_x="0 : 526.18109 : 1"
       inkscape:vp_y="0 : 1000 : 0"
       inkscape:vp_z="744.09448 : 526.18109 : 1"
       inkscape:persp3d-origin="372.04724 : 350.78739 : 1"
       id="perspective5329" />
    <inkscape:perspective
       id="perspective5339"
       inkscape:persp3d-origin="0.5 : 0.33333333 : 1"
       inkscape:vp_z="1 : 0.5 : 1"
       inkscape:vp_y="0 : 1000 : 0"
       inkscape:vp_x="0 : 0.5 : 1"
       sodipodi:type="inkscape:persp3d" />
    <clipPath
       clipPathUnits="userSpaceOnUse"
       id="clipPath4202">
      <path
         d="m 20.045,731.714 42.114,0 0,37.012 -42.114,0 0,-37.012 z"
         id="path4204" />
    </clipPath>
    <inkscape:perspective
       id="perspective5396"
       inkscape:persp3d-origin="425 : 140 : 1"
       inkscape:vp_z="850 : 210 : 1"
       inkscape:vp_y="0 : 1000 : 0"
       inkscape:vp_x="0 : 210 : 1"
       sodipodi:type="inkscape:persp3d" />
    <inkscape:perspective
       id="perspective5429"
       inkscape:persp3d-origin="0.5 : 0.33333333 : 1"
       inkscape:vp_z="1 : 0.5 : 1"
       inkscape:vp_y="0 : 1000 : 0"
       inkscape:vp_x="0 : 0.5 : 1"
       sodipodi:type="inkscape:persp3d" />
    <clipPath
       clipPathUnits="userSpaceOnUse"
       id="clipPath2840">
      <path
         d="m 77.057,731.714 42.114,0 0,37.012 -42.114,0 0,-37.012 z"
         id="path2842" />
    </clipPath>
    <inkscape:perspective
       id="perspective5499"
       inkscape:persp3d-origin="0.5 : 0.33333333 : 1"
       inkscape:vp_z="1 : 0.5 : 1"
       inkscape:vp_y="0 : 1000 : 0"
       inkscape:vp_x="0 : 0.5 : 1"
       sodipodi:type="inkscape:persp3d" />
    <clipPath
       clipPathUnits="userSpaceOnUse"
       id="clipPath3036">
      <path
         d="m 134.072,731.751 42.114,0 0,36.975 -42.114,0 0,-36.975 z"
         id="path3038" />
    </clipPath>
    <inkscape:perspective
       id="perspective5621"
       inkscape:persp3d-origin="0.5 : 0.33333333 : 1"
       inkscape:vp_z="1 : 0.5 : 1"
       inkscape:vp_y="0 : 1000 : 0"
       inkscape:vp_x="0 : 0.5 : 1"
       sodipodi:type="inkscape:persp3d" />
    <clipPath
       clipPathUnits="userSpaceOnUse"
       id="clipPath2952">
      <path
         d="m 191.084,731.751 42.113,0 0,36.975 -42.113,0 0,-36.975 z"
         id="path2954" />
    </clipPath>
    <clipPath
       clipPathUnits="userSpaceOnUse"
       id="clipPath2936">
      <path
         d="m 191.084,731.751 42.113,0 0,36.975 -42.113,0 0,-36.975 z"
         id="path2938" />
    </clipPath>
    <inkscape:perspective
       id="perspective5694"
       inkscape:persp3d-origin="0.5 : 0.33333333 : 1"
       inkscape:vp_z="1 : 0.5 : 1"
       inkscape:vp_y="0 : 1000 : 0"
       inkscape:vp_x="0 : 0.5 : 1"
       sodipodi:type="inkscape:persp3d" />
    <inkscape:perspective
       inkscape:vp_x="0 : 226.5 : 1"
       inkscape:vp_y="0 : 1000 : 0"
       inkscape:vp_z="510 : 226.5 : 1"
       inkscape:persp3d-origin="255 : 151 : 1"
       id="perspective18"
       sodipodi:type="inkscape:persp3d" />
    <inkscape:perspective
       id="perspective5722"
       inkscape:persp3d-origin="0.5 : 0.33333333 : 1"
       inkscape:vp_z="1 : 0.5 : 1"
       inkscape:vp_y="0 : 1000 : 0"
       inkscape:vp_x="0 : 0.5 : 1"
       sodipodi:type="inkscape:persp3d" />
    <clipPath
       clipPathUnits="userSpaceOnUse"
       id="clipPath3216">
      <path
         d="m 248.098,731.74 42.114,0 0,36.986 -42.114,0 0,-36.986 z"
         id="path3218" />
    </clipPath>
    <inkscape:perspective
       id="perspective5860"
       inkscape:persp3d-origin="0.5 : 0.33333333 : 1"
       inkscape:vp_z="1 : 0.5 : 1"
       inkscape:vp_y="0 : 1000 : 0"
       inkscape:vp_x="0 : 0.5 : 1"
       sodipodi:type="inkscape:persp3d" />
    <clipPath
       clipPathUnits="userSpaceOnUse"
       id="clipPath2880">
      <path
         d="m 305.111,731.751 42.114,0 0,36.975 -42.114,0 0,-36.975 z"
         id="path2882" />
    </clipPath>
    <inkscape:perspective
       id="perspective5456"
       inkscape:persp3d-origin="0.5 : 0.33333333 : 1"
       inkscape:vp_z="1 : 0.5 : 1"
       inkscape:vp_y="0 : 1000 : 0"
       inkscape:vp_x="0 : 0.5 : 1"
       sodipodi:type="inkscape:persp3d" />
    <clipPath
       clipPathUnits="userSpaceOnUse"
       id="clipPath3316">
      <path
         d="m 77.057,409.341 42.114,0 0,42.114 -42.114,0 0,-42.114 z"
         id="path3318" />
    </clipPath>
    <inkscape:perspective
       id="perspective6307"
       inkscape:persp3d-origin="0.5 : 0.33333333 : 1"
       inkscape:vp_z="1 : 0.5 : 1"
       inkscape:vp_y="0 : 1000 : 0"
       inkscape:vp_x="0 : 0.5 : 1"
       sodipodi:type="inkscape:persp3d" />
    <clipPath
       clipPathUnits="userSpaceOnUse"
       id="clipPath3802">
      <path
         d="m 134.072,409.341 42.114,0 0,56.174 -42.114,0 0,-56.174 z"
         id="path3804" />
    </clipPath>
    <inkscape:perspective
       id="perspective6372"
       inkscape:persp3d-origin="0.5 : 0.33333333 : 1"
       inkscape:vp_z="1 : 0.5 : 1"
       inkscape:vp_y="0 : 1000 : 0"
       inkscape:vp_x="0 : 0.5 : 1"
       sodipodi:type="inkscape:persp3d" />
    <clipPath
       clipPathUnits="userSpaceOnUse"
       id="clipPath3564">
      <path
         d="m 191.084,409.341 42.113,0 0,42.113 -42.113,0 0,-42.113 z"
         id="path3566" />
    </clipPath>
    <inkscape:perspective
       id="perspective6525"
       inkscape:persp3d-origin="0.5 : 0.33333333 : 1"
       inkscape:vp_z="1 : 0.5 : 1"
       inkscape:vp_y="0 : 1000 : 0"
       inkscape:vp_x="0 : 0.5 : 1"
       sodipodi:type="inkscape:persp3d" />
    <clipPath
       clipPathUnits="userSpaceOnUse"
       id="clipPath3420">
      <path
         d="m 305.125,409.34 42.114,0 0,42.114 -42.114,0 0,-42.114 z"
         id="path3422" />
    </clipPath>
    <inkscape:perspective
       id="perspective6601"
       inkscape:persp3d-origin="0.5 : 0.33333333 : 1"
       inkscape:vp_z="1 : 0.5 : 1"
       inkscape:vp_y="0 : 1000 : 0"
       inkscape:vp_x="0 : 0.5 : 1"
       sodipodi:type="inkscape:persp3d" />
    <clipPath
       clipPathUnits="userSpaceOnUse"
       id="clipPath3822">
      <path
         d="m 362.126,409.341 42.114,0 0,42.114 -42.114,0 0,-42.114 z"
         id="path3824" />
    </clipPath>
    <inkscape:perspective
       id="perspective6677"
       inkscape:persp3d-origin="0.5 : 0.33333333 : 1"
       inkscape:vp_z="1 : 0.5 : 1"
       inkscape:vp_y="0 : 1000 : 0"
       inkscape:vp_x="0 : 0.5 : 1"
       sodipodi:type="inkscape:persp3d" />
    <inkscape:perspective
       id="perspective6691"
       inkscape:persp3d-origin="0.5 : 0.33333333 : 1"
       inkscape:vp_z="1 : 0.5 : 1"
       inkscape:vp_y="0 : 1000 : 0"
       inkscape:vp_x="0 : 0.5 : 1"
       sodipodi:type="inkscape:persp3d" />
    <clipPath
       clipPathUnits="userSpaceOnUse"
       id="clipPath4098">
      <path
         d="m 20.045,328.96 42.113,0 0,42.115 -42.113,0 0,-42.115 z"
         id="path4100" />
    </clipPath>
    <inkscape:perspective
       id="perspective3566"
       inkscape:persp3d-origin="0.5 : 0.33333333 : 1"
       inkscape:vp_z="1 : 0.5 : 1"
       inkscape:vp_y="0 : 1000 : 0"
       inkscape:vp_x="0 : 0.5 : 1"
       sodipodi:type="inkscape:persp3d" />
    <clipPath
       clipPathUnits="userSpaceOnUse"
       id="clipPath3288">
      <path
         d="m 20.078,726.418 42.185,0 0,42.186 -42.185,0 0,-42.186 z"
         id="path3290" />
    </clipPath>
    <inkscape:perspective
       inkscape:vp_x="0 : 526.18109 : 1"
       inkscape:vp_y="0 : 1000 : 0"
       inkscape:vp_z="744.09448 : 526.18109 : 1"
       inkscape:persp3d-origin="372.04724 : 350.78739 : 1"
       sodipodi:type="inkscape:persp3d"
       id="perspective5329-9" />
    <inkscape:perspective
       inkscape:vp_x="0 : 0.5 : 1"
       inkscape:vp_y="0 : 1000 : 0"
       inkscape:vp_z="1 : 0.5 : 1"
       inkscape:persp3d-origin="0.5 : 0.33333333 : 1"
       sodipodi:type="inkscape:persp3d"
       id="perspective5339-4" />
    <clipPath
       clipPathUnits="userSpaceOnUse"
       id="clipPath4202-8">
      <path
         d="m 20.045,731.714 42.114,0 0,37.012 -42.114,0 0,-37.012 z"
         id="path4204-8" />
    </clipPath>
    <inkscape:perspective
       inkscape:vp_x="0 : 210 : 1"
       inkscape:vp_y="0 : 1000 : 0"
       inkscape:vp_z="850 : 210 : 1"
       inkscape:persp3d-origin="425 : 140 : 1"
       sodipodi:type="inkscape:persp3d"
       id="perspective5396-2" />
    <inkscape:perspective
       inkscape:vp_x="0 : 0.5 : 1"
       inkscape:vp_y="0 : 1000 : 0"
       inkscape:vp_z="1 : 0.5 : 1"
       inkscape:persp3d-origin="0.5 : 0.33333333 : 1"
       sodipodi:type="inkscape:persp3d"
       id="perspective5429-4" />
    <clipPath
       clipPathUnits="userSpaceOnUse"
       id="clipPath2840-5">
      <path
         d="m 77.057,731.714 42.114,0 0,37.012 -42.114,0 0,-37.012 z"
         id="path2842-5" />
    </clipPath>
    <inkscape:perspective
       inkscape:vp_x="0 : 0.5 : 1"
       inkscape:vp_y="0 : 1000 : 0"
       inkscape:vp_z="1 : 0.5 : 1"
       inkscape:persp3d-origin="0.5 : 0.33333333 : 1"
       sodipodi:type="inkscape:persp3d"
       id="perspective5499-17" />
    <clipPath
       clipPathUnits="userSpaceOnUse"
       id="clipPath3036-11">
      <path
         d="m 134.072,731.751 42.114,0 0,36.975 -42.114,0 0,-36.975 z"
         id="path3038-52" />
    </clipPath>
    <inkscape:perspective
       inkscape:vp_x="0 : 0.5 : 1"
       inkscape:vp_y="0 : 1000 : 0"
       inkscape:vp_z="1 : 0.5 : 1"
       inkscape:persp3d-origin="0.5 : 0.33333333 : 1"
       sodipodi:type="inkscape:persp3d"
       id="perspective5621-7" />
    <clipPath
       clipPathUnits="userSpaceOnUse"
       id="clipPath2952-6">
      <path
         d="m 191.084,731.751 42.113,0 0,36.975 -42.113,0 0,-36.975 z"
         id="path2954-1" />
    </clipPath>
    <clipPath
       clipPathUnits="userSpaceOnUse"
       id="clipPath2936-4">
      <path
         d="m 191.084,731.751 42.113,0 0,36.975 -42.113,0 0,-36.975 z"
         id="path2938-2" />
    </clipPath>
    <inkscape:perspective
       inkscape:vp_x="0 : 0.5 : 1"
       inkscape:vp_y="0 : 1000 : 0"
       inkscape:vp_z="1 : 0.5 : 1"
       inkscape:persp3d-origin="0.5 : 0.33333333 : 1"
       sodipodi:type="inkscape:persp3d"
       id="perspective5694-3" />
    <inkscape:perspective
       inkscape:vp_x="0 : 226.5 : 1"
       inkscape:vp_y="0 : 1000 : 0"
       inkscape:vp_z="510 : 226.5 : 1"
       inkscape:persp3d-origin="255 : 151 : 1"
       sodipodi:type="inkscape:persp3d"
       id="perspective18-2" />
    <inkscape:perspective
       inkscape:vp_x="0 : 0.5 : 1"
       inkscape:vp_y="0 : 1000 : 0"
       inkscape:vp_z="1 : 0.5 : 1"
       inkscape:persp3d-origin="0.5 : 0.33333333 : 1"
       sodipodi:type="inkscape:persp3d"
       id="perspective5722-21" />
    <clipPath
       clipPathUnits="userSpaceOnUse"
       id="clipPath3216-6">
      <path
         d="m 248.098,731.74 42.114,0 0,36.986 -42.114,0 0,-36.986 z"
         id="path3218-8" />
    </clipPath>
    <inkscape:perspective
       inkscape:vp_x="0 : 0.5 : 1"
       inkscape:vp_y="0 : 1000 : 0"
       inkscape:vp_z="1 : 0.5 : 1"
       inkscape:persp3d-origin="0.5 : 0.33333333 : 1"
       sodipodi:type="inkscape:persp3d"
       id="perspective5860-5" />
    <clipPath
       clipPathUnits="userSpaceOnUse"
       id="clipPath2880-7">
      <path
         d="m 305.111,731.751 42.114,0 0,36.975 -42.114,0 0,-36.975 z"
         id="path2882-6" />
    </clipPath>
    <inkscape:perspective
       inkscape:vp_x="0 : 0.5 : 1"
       inkscape:vp_y="0 : 1000 : 0"
       inkscape:vp_z="1 : 0.5 : 1"
       inkscape:persp3d-origin="0.5 : 0.33333333 : 1"
       sodipodi:type="inkscape:persp3d"
       id="perspective5456-1" />
    <clipPath
       clipPathUnits="userSpaceOnUse"
       id="clipPath3316-8">
      <path
         d="m 77.057,409.341 42.114,0 0,42.114 -42.114,0 0,-42.114 z"
         id="path3318-9" />
    </clipPath>
    <inkscape:perspective
       inkscape:vp_x="0 : 0.5 : 1"
       inkscape:vp_y="0 : 1000 : 0"
       inkscape:vp_z="1 : 0.5 : 1"
       inkscape:persp3d-origin="0.5 : 0.33333333 : 1"
       sodipodi:type="inkscape:persp3d"
       id="perspective6307-2" />
    <clipPath
       clipPathUnits="userSpaceOnUse"
       id="clipPath3802-7">
      <path
         d="m 134.072,409.341 42.114,0 0,56.174 -42.114,0 0,-56.174 z"
         id="path3804-9" />
    </clipPath>
    <inkscape:perspective
       inkscape:vp_x="0 : 0.5 : 1"
       inkscape:vp_y="0 : 1000 : 0"
       inkscape:vp_z="1 : 0.5 : 1"
       inkscape:persp3d-origin="0.5 : 0.33333333 : 1"
       sodipodi:type="inkscape:persp3d"
       id="perspective6372-5" />
    <clipPath
       clipPathUnits="userSpaceOnUse"
       id="clipPath3564-4">
      <path
         d="m 191.084,409.341 42.113,0 0,42.113 -42.113,0 0,-42.113 z"
         id="path3566-3" />
    </clipPath>
    <inkscape:perspective
       inkscape:vp_x="0 : 0.5 : 1"
       inkscape:vp_y="0 : 1000 : 0"
       inkscape:vp_z="1 : 0.5 : 1"
       inkscape:persp3d-origin="0.5 : 0.33333333 : 1"
       sodipodi:type="inkscape:persp3d"
       id="perspective6525-1" />
    <clipPath
       clipPathUnits="userSpaceOnUse"
       id="clipPath3420-2">
      <path
         d="m 305.125,409.34 42.114,0 0,42.114 -42.114,0 0,-42.114 z"
         id="path3422-3" />
    </clipPath>
    <inkscape:perspective
       inkscape:vp_x="0 : 0.5 : 1"
       inkscape:vp_y="0 : 1000 : 0"
       inkscape:vp_z="1 : 0.5 : 1"
       inkscape:persp3d-origin="0.5 : 0.33333333 : 1"
       sodipodi:type="inkscape:persp3d"
       id="perspective6601-3" />
    <clipPath
       clipPathUnits="userSpaceOnUse"
       id="clipPath3822-4">
      <path
         d="m 362.126,409.341 42.114,0 0,42.114 -42.114,0 0,-42.114 z"
         id="path3824-1" />
    </clipPath>
    <inkscape:perspective
       inkscape:vp_x="0 : 0.5 : 1"
       inkscape:vp_y="0 : 1000 : 0"
       inkscape:vp_z="1 : 0.5 : 1"
       inkscape:persp3d-origin="0.5 : 0.33333333 : 1"
       sodipodi:type="inkscape:persp3d"
       id="perspective6677-1" />
    <inkscape:perspective
       inkscape:vp_x="0 : 0.5 : 1"
       inkscape:vp_y="0 : 1000 : 0"
       inkscape:vp_z="1 : 0.5 : 1"
       inkscape:persp3d-origin="0.5 : 0.33333333 : 1"
       sodipodi:type="inkscape:persp3d"
       id="perspective6691-3" />
    <clipPath
       clipPathUnits="userSpaceOnUse"
       id="clipPath4098-8">
      <path
         d="m 20.045,328.96 42.113,0 0,42.115 -42.113,0 0,-42.115 z"
         id="path4100-7" />
    </clipPath>
    <inkscape:perspective
       inkscape:vp_x="0 : 0.5 : 1"
       inkscape:vp_y="0 : 1000 : 0"
       inkscape:vp_z="1 : 0.5 : 1"
       inkscape:persp3d-origin="0.5 : 0.33333333 : 1"
       sodipodi:type="inkscape:persp3d"
       id="perspective6753" />
    <clipPath
       clipPathUnits="userSpaceOnUse"
       id="clipPath3336">
      <path
         d="m 77.057,328.96 42.114,0 0,42.115 -42.114,0 0,-42.115 z"
         id="path3338" />
    </clipPath>
    <inkscape:perspective
       inkscape:vp_x="0 : 0.5 : 1"
       inkscape:vp_y="0 : 1000 : 0"
       inkscape:vp_z="1 : 0.5 : 1"
       inkscape:persp3d-origin="0.5 : 0.33333333 : 1"
       sodipodi:type="inkscape:persp3d"
       id="perspective6818" />
    <clipPath
       clipPathUnits="userSpaceOnUse"
       id="clipPath3692">
      <path
         d="m 134.072,328.96 42.114,0 0,42.115 -42.114,0 0,-42.115 z"
         id="path3694" />
    </clipPath>
    <inkscape:perspective
       inkscape:vp_x="0 : 0.5 : 1"
       inkscape:vp_y="0 : 1000 : 0"
       inkscape:vp_z="1 : 0.5 : 1"
       inkscape:persp3d-origin="0.5 : 0.33333333 : 1"
       sodipodi:type="inkscape:persp3d"
       id="perspective6883" />
    <clipPath
       clipPathUnits="userSpaceOnUse"
       id="clipPath3584">
      <path
         d="m 191.084,328.96 42.113,0 0,42.115 -42.113,0 0,-42.115 z"
         id="path3586" />
    </clipPath>
    <inkscape:perspective
       inkscape:vp_x="0 : 0.5 : 1"
       inkscape:vp_y="0 : 1000 : 0"
       inkscape:vp_z="1 : 0.5 : 1"
       inkscape:persp3d-origin="0.5 : 0.33333333 : 1"
       sodipodi:type="inkscape:persp3d"
       id="perspective6937" />
    <clipPath
       clipPathUnits="userSpaceOnUse"
       id="clipPath3990">
      <path
         d="m 248.098,328.96 42.114,0 0,42.115 -42.114,0 0,-42.115 z"
         id="path3992" />
    </clipPath>
    <inkscape:perspective
       inkscape:vp_x="0 : 0.5 : 1"
       inkscape:vp_y="0 : 1000 : 0"
       inkscape:vp_z="1 : 0.5 : 1"
       inkscape:persp3d-origin="0.5 : 0.33333333 : 1"
       sodipodi:type="inkscape:persp3d"
       id="perspective5685" />
    <clipPath
       clipPathUnits="userSpaceOnUse"
       id="clipPath4006">
      <path
         d="m 20.046,204.305 42.114,0 0,42.47 -42.114,0 0,-42.47 z"
         id="path4008" />
    </clipPath>
    <inkscape:perspective
       inkscape:vp_x="0 : 0.5 : 1"
       inkscape:vp_y="0 : 1000 : 0"
       inkscape:vp_z="1 : 0.5 : 1"
       inkscape:persp3d-origin="0.5 : 0.33333333 : 1"
       sodipodi:type="inkscape:persp3d"
       id="perspective5747" />
    <clipPath
       clipPathUnits="userSpaceOnUse"
       id="clipPath3464">
      <path
         d="m 77.053,204.662 42.113,0 0,42.114 -42.113,0 0,-42.114 z"
         id="path3466" />
    </clipPath>
    <inkscape:perspective
       inkscape:vp_x="0 : 0.5 : 1"
       inkscape:vp_y="0 : 1000 : 0"
       inkscape:vp_z="1 : 0.5 : 1"
       inkscape:persp3d-origin="0.5 : 0.33333333 : 1"
       sodipodi:type="inkscape:persp3d"
       id="perspective5809" />
    <clipPath
       clipPathUnits="userSpaceOnUse"
       id="clipPath3866">
      <path
         d="m 134.068,204.642 42.114,0 0,42.115 -42.114,0 0,-42.115 z"
         id="path3868" />
    </clipPath>
    <inkscape:perspective
       inkscape:vp_x="0 : 0.5 : 1"
       inkscape:vp_y="0 : 1000 : 0"
       inkscape:vp_z="1 : 0.5 : 1"
       inkscape:persp3d-origin="0.5 : 0.33333333 : 1"
       sodipodi:type="inkscape:persp3d"
       id="perspective5881" />
    <clipPath
       clipPathUnits="userSpaceOnUse"
       id="clipPath4178">
      <path
         d="m 191.081,204.642 42.114,0 0,42.115 -42.114,0 0,-42.115 z"
         id="path4180" />
    </clipPath>
    <inkscape:perspective
       inkscape:vp_x="0 : 0.5 : 1"
       inkscape:vp_y="0 : 1000 : 0"
       inkscape:vp_z="1 : 0.5 : 1"
       inkscape:persp3d-origin="0.5 : 0.33333333 : 1"
       sodipodi:type="inkscape:persp3d"
       id="perspective5953" />
    <clipPath
       clipPathUnits="userSpaceOnUse"
       id="clipPath3400">
      <path
         d="m 248.093,204.642 42.114,0 0,42.115 -42.114,0 0,-42.115 z"
         id="path3402" />
    </clipPath>
    <inkscape:perspective
       inkscape:vp_x="0 : 0.5 : 1"
       inkscape:vp_y="0 : 1000 : 0"
       inkscape:vp_z="1 : 0.5 : 1"
       inkscape:persp3d-origin="0.5 : 0.33333333 : 1"
       sodipodi:type="inkscape:persp3d"
       id="perspective6016" />
    <clipPath
       clipPathUnits="userSpaceOnUse"
       id="clipPath3778">
      <path
         d="m 305.108,204.642 42.114,0 0,42.115 -42.114,0 0,-42.115 z"
         id="path3780" />
    </clipPath>
    <inkscape:perspective
       inkscape:vp_x="0 : 0.5 : 1"
       inkscape:vp_y="0 : 1000 : 0"
       inkscape:vp_z="1 : 0.5 : 1"
       inkscape:persp3d-origin="0.5 : 0.33333333 : 1"
       sodipodi:type="inkscape:persp3d"
       id="perspective7017" />
    <clipPath
       clipPathUnits="userSpaceOnUse"
       id="clipPath4062">
      <path
         d="m 419.135,204.668 42.113,0 0,42.114 -42.113,0 0,-42.114 z"
         id="path4064" />
    </clipPath>
    <inkscape:perspective
       inkscape:vp_x="0 : 0.5 : 1"
       inkscape:vp_y="0 : 1000 : 0"
       inkscape:vp_z="1 : 0.5 : 1"
       inkscape:persp3d-origin="0.5 : 0.33333333 : 1"
       sodipodi:type="inkscape:persp3d"
       id="perspective7139" />
    <clipPath
       clipPathUnits="userSpaceOnUse"
       id="clipPath4138">
      <path
         d="m 134.077,142.502 42.114,0 0,42.115 -42.114,0 0,-42.115 z"
         id="path4140" />
    </clipPath>
    <inkscape:perspective
       inkscape:vp_x="0 : 0.5 : 1"
       inkscape:vp_y="0 : 1000 : 0"
       inkscape:vp_z="1 : 0.5 : 1"
       inkscape:persp3d-origin="0.5 : 0.33333333 : 1"
       sodipodi:type="inkscape:persp3d"
       id="perspective7201" />
    <clipPath
       clipPathUnits="userSpaceOnUse"
       id="clipPath3548">
      <path
         d="m 20.039,142.502 42.114,0 0,42.115 -42.114,0 0,-42.115 z"
         id="path3550" />
    </clipPath>
    <inkscape:perspective
       inkscape:vp_x="0 : 526.18109 : 1"
       inkscape:vp_y="0 : 1000 : 0"
       inkscape:vp_z="744.09448 : 526.18109 : 1"
       inkscape:persp3d-origin="372.04724 : 350.78739 : 1"
       sodipodi:type="inkscape:persp3d"
       id="perspective5329-8" />
    <inkscape:perspective
       inkscape:vp_x="0 : 0.5 : 1"
       inkscape:vp_y="0 : 1000 : 0"
       inkscape:vp_z="1 : 0.5 : 1"
       inkscape:persp3d-origin="0.5 : 0.33333333 : 1"
       sodipodi:type="inkscape:persp3d"
       id="perspective5339-8" />
    <clipPath
       clipPathUnits="userSpaceOnUse"
       id="clipPath4202-2">
      <path
         d="m 20.045,731.714 42.114,0 0,37.012 -42.114,0 0,-37.012 z"
         id="path4204-4" />
    </clipPath>
    <inkscape:perspective
       inkscape:vp_x="0 : 210 : 1"
       inkscape:vp_y="0 : 1000 : 0"
       inkscape:vp_z="850 : 210 : 1"
       inkscape:persp3d-origin="425 : 140 : 1"
       sodipodi:type="inkscape:persp3d"
       id="perspective5396-5" />
    <inkscape:perspective
       inkscape:vp_x="0 : 0.5 : 1"
       inkscape:vp_y="0 : 1000 : 0"
       inkscape:vp_z="1 : 0.5 : 1"
       inkscape:persp3d-origin="0.5 : 0.33333333 : 1"
       sodipodi:type="inkscape:persp3d"
       id="perspective5429-5" />
    <clipPath
       clipPathUnits="userSpaceOnUse"
       id="clipPath2840-1">
      <path
         d="m 77.057,731.714 42.114,0 0,37.012 -42.114,0 0,-37.012 z"
         id="path2842-7" />
    </clipPath>
    <inkscape:perspective
       inkscape:vp_x="0 : 0.5 : 1"
       inkscape:vp_y="0 : 1000 : 0"
       inkscape:vp_z="1 : 0.5 : 1"
       inkscape:persp3d-origin="0.5 : 0.33333333 : 1"
       sodipodi:type="inkscape:persp3d"
       id="perspective5499-1" />
    <clipPath
       clipPathUnits="userSpaceOnUse"
       id="clipPath3036-1">
      <path
         d="m 134.072,731.751 42.114,0 0,36.975 -42.114,0 0,-36.975 z"
         id="path3038-5" />
    </clipPath>
    <inkscape:perspective
       inkscape:vp_x="0 : 0.5 : 1"
       inkscape:vp_y="0 : 1000 : 0"
       inkscape:vp_z="1 : 0.5 : 1"
       inkscape:persp3d-origin="0.5 : 0.33333333 : 1"
       sodipodi:type="inkscape:persp3d"
       id="perspective5621-2" />
    <clipPath
       clipPathUnits="userSpaceOnUse"
       id="clipPath2952-7">
      <path
         d="m 191.084,731.751 42.113,0 0,36.975 -42.113,0 0,-36.975 z"
         id="path2954-6" />
    </clipPath>
    <clipPath
       clipPathUnits="userSpaceOnUse"
       id="clipPath2936-1">
      <path
         d="m 191.084,731.751 42.113,0 0,36.975 -42.113,0 0,-36.975 z"
         id="path2938-4" />
    </clipPath>
    <inkscape:perspective
       inkscape:vp_x="0 : 0.5 : 1"
       inkscape:vp_y="0 : 1000 : 0"
       inkscape:vp_z="1 : 0.5 : 1"
       inkscape:persp3d-origin="0.5 : 0.33333333 : 1"
       sodipodi:type="inkscape:persp3d"
       id="perspective5694-2" />
    <inkscape:perspective
       inkscape:vp_x="0 : 226.5 : 1"
       inkscape:vp_y="0 : 1000 : 0"
       inkscape:vp_z="510 : 226.5 : 1"
       inkscape:persp3d-origin="255 : 151 : 1"
       sodipodi:type="inkscape:persp3d"
       id="perspective18-3" />
    <inkscape:perspective
       inkscape:vp_x="0 : 0.5 : 1"
       inkscape:vp_y="0 : 1000 : 0"
       inkscape:vp_z="1 : 0.5 : 1"
       inkscape:persp3d-origin="0.5 : 0.33333333 : 1"
       sodipodi:type="inkscape:persp3d"
       id="perspective5722-2" />
    <clipPath
       clipPathUnits="userSpaceOnUse"
       id="clipPath3216-2">
      <path
         d="m 248.098,731.74 42.114,0 0,36.986 -42.114,0 0,-36.986 z"
         id="path3218-1" />
    </clipPath>
    <inkscape:perspective
       inkscape:vp_x="0 : 0.5 : 1"
       inkscape:vp_y="0 : 1000 : 0"
       inkscape:vp_z="1 : 0.5 : 1"
       inkscape:persp3d-origin="0.5 : 0.33333333 : 1"
       sodipodi:type="inkscape:persp3d"
       id="perspective5860-6" />
    <clipPath
       clipPathUnits="userSpaceOnUse"
       id="clipPath2880-8">
      <path
         d="m 305.111,731.751 42.114,0 0,36.975 -42.114,0 0,-36.975 z"
         id="path2882-5" />
    </clipPath>
    <inkscape:perspective
       inkscape:vp_x="0 : 0.5 : 1"
       inkscape:vp_y="0 : 1000 : 0"
       inkscape:vp_z="1 : 0.5 : 1"
       inkscape:persp3d-origin="0.5 : 0.33333333 : 1"
       sodipodi:type="inkscape:persp3d"
       id="perspective5456-7" />
    <clipPath
       clipPathUnits="userSpaceOnUse"
       id="clipPath3316-6">
      <path
         d="m 77.057,409.341 42.114,0 0,42.114 -42.114,0 0,-42.114 z"
         id="path3318-1" />
    </clipPath>
    <inkscape:perspective
       inkscape:vp_x="0 : 0.5 : 1"
       inkscape:vp_y="0 : 1000 : 0"
       inkscape:vp_z="1 : 0.5 : 1"
       inkscape:persp3d-origin="0.5 : 0.33333333 : 1"
       sodipodi:type="inkscape:persp3d"
       id="perspective6307-8" />
    <clipPath
       clipPathUnits="userSpaceOnUse"
       id="clipPath3802-9">
      <path
         d="m 134.072,409.341 42.114,0 0,56.174 -42.114,0 0,-56.174 z"
         id="path3804-2" />
    </clipPath>
    <inkscape:perspective
       inkscape:vp_x="0 : 0.5 : 1"
       inkscape:vp_y="0 : 1000 : 0"
       inkscape:vp_z="1 : 0.5 : 1"
       inkscape:persp3d-origin="0.5 : 0.33333333 : 1"
       sodipodi:type="inkscape:persp3d"
       id="perspective6372-7" />
    <clipPath
       clipPathUnits="userSpaceOnUse"
       id="clipPath3564-9">
      <path
         d="m 191.084,409.341 42.113,0 0,42.113 -42.113,0 0,-42.113 z"
         id="path3566-5" />
    </clipPath>
    <inkscape:perspective
       inkscape:vp_x="0 : 0.5 : 1"
       inkscape:vp_y="0 : 1000 : 0"
       inkscape:vp_z="1 : 0.5 : 1"
       inkscape:persp3d-origin="0.5 : 0.33333333 : 1"
       sodipodi:type="inkscape:persp3d"
       id="perspective6525-4" />
    <clipPath
       clipPathUnits="userSpaceOnUse"
       id="clipPath3420-3">
      <path
         d="m 305.125,409.34 42.114,0 0,42.114 -42.114,0 0,-42.114 z"
         id="path3422-1" />
    </clipPath>
    <inkscape:perspective
       inkscape:vp_x="0 : 0.5 : 1"
       inkscape:vp_y="0 : 1000 : 0"
       inkscape:vp_z="1 : 0.5 : 1"
       inkscape:persp3d-origin="0.5 : 0.33333333 : 1"
       sodipodi:type="inkscape:persp3d"
       id="perspective6601-2" />
    <clipPath
       clipPathUnits="userSpaceOnUse"
       id="clipPath3822-3">
      <path
         d="m 362.126,409.341 42.114,0 0,42.114 -42.114,0 0,-42.114 z"
         id="path3824-3" />
    </clipPath>
    <inkscape:perspective
       inkscape:vp_x="0 : 0.5 : 1"
       inkscape:vp_y="0 : 1000 : 0"
       inkscape:vp_z="1 : 0.5 : 1"
       inkscape:persp3d-origin="0.5 : 0.33333333 : 1"
       sodipodi:type="inkscape:persp3d"
       id="perspective6677-4" />
    <inkscape:perspective
       inkscape:vp_x="0 : 0.5 : 1"
       inkscape:vp_y="0 : 1000 : 0"
       inkscape:vp_z="1 : 0.5 : 1"
       inkscape:persp3d-origin="0.5 : 0.33333333 : 1"
       sodipodi:type="inkscape:persp3d"
       id="perspective7385" />
    <clipPath
       clipPathUnits="userSpaceOnUse"
       id="clipPath3954">
      <path
         d="m 77.054,142.502 42.114,0 0,42.115 -42.114,0 0,-42.115 z"
         id="path3956" />
    </clipPath>
    <inkscape:perspective
       id="perspective4674"
       inkscape:persp3d-origin="0.5 : 0.33333333 : 1"
       inkscape:vp_z="1 : 0.5 : 1"
       inkscape:vp_y="0 : 1000 : 0"
       inkscape:vp_x="0 : 0.5 : 1"
       sodipodi:type="inkscape:persp3d" />
    <clipPath
       clipPathUnits="userSpaceOnUse"
       id="clipPath3028">
      <path
         d="m 191.406,726.418 42.185,0 0,42.186 -42.185,0 0,-42.186 z"
         id="path3030" />
    </clipPath>
    <inkscape:perspective
       id="perspective4766"
       inkscape:persp3d-origin="0.5 : 0.33333333 : 1"
       inkscape:vp_z="1 : 0.5 : 1"
       inkscape:vp_y="0 : 1000 : 0"
       inkscape:vp_x="0 : 0.5 : 1"
       sodipodi:type="inkscape:persp3d" />
    <clipPath
       clipPathUnits="userSpaceOnUse"
       id="clipPath2908">
      <path
         d="m 305.624,726.418 42.185,0 0,42.186 -42.185,0 0,-42.186 z"
         id="path2910" />
    </clipPath>
    <inkscape:perspective
       id="perspective4829"
       inkscape:persp3d-origin="0.5 : 0.33333333 : 1"
       inkscape:vp_z="1 : 0.5 : 1"
       inkscape:vp_y="0 : 1000 : 0"
       inkscape:vp_x="0 : 0.5 : 1"
       sodipodi:type="inkscape:persp3d" />
    <clipPath
       clipPathUnits="userSpaceOnUse"
       id="clipPath3328">
      <path
         d="m 419.845,726.418 42.185,0 0,42.186 -42.185,0 0,-42.186 z"
         id="path3330" />
    </clipPath>
    <inkscape:perspective
       id="perspective4894"
       inkscape:persp3d-origin="0.5 : 0.33333333 : 1"
       inkscape:vp_z="1 : 0.5 : 1"
       inkscape:vp_y="0 : 1000 : 0"
       inkscape:vp_x="0 : 0.5 : 1"
       sodipodi:type="inkscape:persp3d" />
    <clipPath
       clipPathUnits="userSpaceOnUse"
       id="clipPath2856">
      <path
         d="m 476.952,726.418 42.185,0 0,42.186 -42.185,0 0,-42.186 z"
         id="path2858" />
    </clipPath>
    <inkscape:perspective
       id="perspective4959"
       inkscape:persp3d-origin="0.5 : 0.33333333 : 1"
       inkscape:vp_z="1 : 0.5 : 1"
       inkscape:vp_y="0 : 1000 : 0"
       inkscape:vp_x="0 : 0.5 : 1"
       sodipodi:type="inkscape:persp3d" />
    <clipPath
       clipPathUnits="userSpaceOnUse"
       id="clipPath3268">
      <path
         d="m 77.184,664.161 42.185,0 0,42.185 -42.185,0 0,-42.185 z"
         id="path3270" />
    </clipPath>
    <inkscape:perspective
       id="perspective5024"
       inkscape:persp3d-origin="0.5 : 0.33333333 : 1"
       inkscape:vp_z="1 : 0.5 : 1"
       inkscape:vp_y="0 : 1000 : 0"
       inkscape:vp_x="0 : 0.5 : 1"
       sodipodi:type="inkscape:persp3d" />
    <clipPath
       clipPathUnits="userSpaceOnUse"
       id="clipPath2968">
      <path
         d="m 134.293,664.161 42.185,0 0,42.185 -42.185,0 0,-42.185 z"
         id="path2970" />
    </clipPath>
    <inkscape:perspective
       id="perspective5144"
       inkscape:persp3d-origin="0.5 : 0.33333333 : 1"
       inkscape:vp_z="1 : 0.5 : 1"
       inkscape:vp_y="0 : 1000 : 0"
       inkscape:vp_x="0 : 0.5 : 1"
       sodipodi:type="inkscape:persp3d" />
    <clipPath
       clipPathUnits="userSpaceOnUse"
       id="clipPath3188">
      <path
         d="m 191.402,664.161 42.185,0 0,42.185 -42.185,0 0,-42.185 z"
         id="path3190" />
    </clipPath>
    <inkscape:perspective
       id="perspective5209"
       inkscape:persp3d-origin="0.5 : 0.33333333 : 1"
       inkscape:vp_z="1 : 0.5 : 1"
       inkscape:vp_y="0 : 1000 : 0"
       inkscape:vp_x="0 : 0.5 : 1"
       sodipodi:type="inkscape:persp3d" />
    <clipPath
       clipPathUnits="userSpaceOnUse"
       id="clipPath3008">
      <path
         d="m 248.509,664.161 42.185,0 0,42.185 -42.185,0 0,-42.185 z"
         id="path3010" />
    </clipPath>
    <inkscape:perspective
       id="perspective5274"
       inkscape:persp3d-origin="0.5 : 0.33333333 : 1"
       inkscape:vp_z="1 : 0.5 : 1"
       inkscape:vp_y="0 : 1000 : 0"
       inkscape:vp_x="0 : 0.5 : 1"
       sodipodi:type="inkscape:persp3d" />
    <clipPath
       clipPathUnits="userSpaceOnUse"
       id="clipPath3308">
      <path
         d="m 305.658,664.161 42.185,0 0,42.185 -42.185,0 0,-42.185 z"
         id="path3310" />
    </clipPath>
    <inkscape:perspective
       id="perspective5361"
       inkscape:persp3d-origin="0.5 : 0.33333333 : 1"
       inkscape:vp_z="1 : 0.5 : 1"
       inkscape:vp_y="0 : 1000 : 0"
       inkscape:vp_x="0 : 0.5 : 1"
       sodipodi:type="inkscape:persp3d" />
    <clipPath
       clipPathUnits="userSpaceOnUse"
       id="clipPath2948">
      <path
         d="m 362.788,664.161 42.185,0 0,42.185 -42.185,0 0,-42.185 z"
         id="path2950" />
    </clipPath>
    <inkscape:perspective
       id="perspective5410"
       inkscape:persp3d-origin="0.5 : 0.33333333 : 1"
       inkscape:vp_z="1 : 0.5 : 1"
       inkscape:vp_y="0 : 1000 : 0"
       inkscape:vp_x="0 : 0.5 : 1"
       sodipodi:type="inkscape:persp3d" />
    <clipPath
       clipPathUnits="userSpaceOnUse"
       id="clipPath2948-0">
      <path
         d="m 362.788,664.161 42.185,0 0,42.185 -42.185,0 0,-42.185 z"
         id="path2950-2" />
    </clipPath>
    <inkscape:perspective
       id="perspective5475"
       inkscape:persp3d-origin="0.5 : 0.33333333 : 1"
       inkscape:vp_z="1 : 0.5 : 1"
       inkscape:vp_y="0 : 1000 : 0"
       inkscape:vp_x="0 : 0.5 : 1"
       sodipodi:type="inkscape:persp3d" />
    <clipPath
       clipPathUnits="userSpaceOnUse"
       id="clipPath3208">
      <path
         d="m 419.863,664.161 42.185,0 0,42.185 -42.185,0 0,-42.185 z"
         id="path3210" />
    </clipPath>
    <inkscape:perspective
       id="perspective5540"
       inkscape:persp3d-origin="0.5 : 0.33333333 : 1"
       inkscape:vp_z="1 : 0.5 : 1"
       inkscape:vp_y="0 : 1000 : 0"
       inkscape:vp_x="0 : 0.5 : 1"
       sodipodi:type="inkscape:persp3d" />
    <clipPath
       clipPathUnits="userSpaceOnUse"
       id="clipPath3108">
      <path
         d="m 476.952,664.161 42.185,0 0,42.185 -42.185,0 0,-42.185 z"
         id="path3110" />
    </clipPath>
    <inkscape:perspective
       id="perspective5605"
       inkscape:persp3d-origin="0.5 : 0.33333333 : 1"
       inkscape:vp_z="1 : 0.5 : 1"
       inkscape:vp_y="0 : 1000 : 0"
       inkscape:vp_x="0 : 0.5 : 1"
       sodipodi:type="inkscape:persp3d" />
    <clipPath
       clipPathUnits="userSpaceOnUse"
       id="clipPath3048">
      <path
         d="m 534.061,664.161 42.185,0 0,42.185 -42.185,0 0,-42.185 z"
         id="path3050" />
    </clipPath>
    <inkscape:perspective
       id="perspective5670"
       inkscape:persp3d-origin="0.5 : 0.33333333 : 1"
       inkscape:vp_z="1 : 0.5 : 1"
       inkscape:vp_y="0 : 1000 : 0"
       inkscape:vp_x="0 : 0.5 : 1"
       sodipodi:type="inkscape:persp3d" />
    <clipPath
       clipPathUnits="userSpaceOnUse"
       id="clipPath3248">
      <path
         d="m 20.078,601.897 42.185,0 0,42.186 -42.185,0 0,-42.186 z"
         id="path3250" />
    </clipPath>
    <inkscape:perspective
       id="perspective5735"
       inkscape:persp3d-origin="0.5 : 0.33333333 : 1"
       inkscape:vp_z="1 : 0.5 : 1"
       inkscape:vp_y="0 : 1000 : 0"
       inkscape:vp_x="0 : 0.5 : 1"
       sodipodi:type="inkscape:persp3d" />
    <clipPath
       clipPathUnits="userSpaceOnUse"
       id="clipPath2928">
      <path
         d="m 77.188,601.897 42.185,0 0,42.186 -42.185,0 0,-42.186 z"
         id="path2930" />
    </clipPath>
    <inkscape:perspective
       id="perspective5800"
       inkscape:persp3d-origin="0.5 : 0.33333333 : 1"
       inkscape:vp_z="1 : 0.5 : 1"
       inkscape:vp_y="0 : 1000 : 0"
       inkscape:vp_x="0 : 0.5 : 1"
       sodipodi:type="inkscape:persp3d" />
    <clipPath
       clipPathUnits="userSpaceOnUse"
       id="clipPath3168">
      <path
         d="m 134.299,601.897 42.185,0 0,42.186 -42.185,0 0,-42.186 z"
         id="path3170" />
    </clipPath>
    <inkscape:perspective
       id="perspective5865"
       inkscape:persp3d-origin="0.5 : 0.33333333 : 1"
       inkscape:vp_z="1 : 0.5 : 1"
       inkscape:vp_y="0 : 1000 : 0"
       inkscape:vp_x="0 : 0.5 : 1"
       sodipodi:type="inkscape:persp3d" />
    <clipPath
       clipPathUnits="userSpaceOnUse"
       id="clipPath3348">
      <path
         d="m 191.416,601.897 42.185,0 0,42.185 -42.185,0 0,-42.185 z"
         id="path3350" />
    </clipPath>
  </defs>
  <sodipodi:namedview
     id="base"
     pagecolor="#ffffff"
     bordercolor="#666666"
     borderopacity="1.0"
     inkscape:pageopacity="0.0"
     inkscape:pageshadow="2"
     inkscape:zoom="1.1896297"
     inkscape:cx="69.208031"
     inkscape:cy="205.39681"
     inkscape:document-units="px"
     inkscape:current-layer="layer1"
     showgrid="false"
     inkscape:window-width="1600"
     inkscape:window-height="838"
     inkscape:window-x="-8"
     inkscape:window-y="-8"
     inkscape:window-maximized="1" />
  <metadata
     id="metadata5326">
    <rdf:RDF>
      <cc:Work
         rdf:about="">
        <dc:format>image/svg+xml</dc:format>
        <dc:type
           rdf:resource="http://purl.org/dc/dcmitype/StillImage" />
        <dc:title></dc:title>
      </cc:Work>
    </rdf:RDF>
  </metadata>
  <g
     inkscape:label="Livello 1"
     inkscape:groupmode="layer"
     id="layer1"
     transform="translate(-1081.5871,-381.7838)">
    <g
       inkscape:label="Ebene 1"
       inkscape:groupmode="layer"
       transform="translate(-501.54702,586.32528)"
       id="layer1-0" />
    <path
       id="path3354"
       style="fill:#ffffff;fill-opacity:1;fill-rule:evenodd;stroke:none"
       d="m 1481.8446,582.23753 c 0,-6.541 -0.3223,-13.07251 -0.9575,-19.58507 -0.6445,-6.51255 -1.6115,-12.97771 -2.8818,-19.39547 -1.2797,-6.40828 -2.8628,-12.75969 -4.7588,-19.02577 -1.9054,-6.25661 -4.1047,-12.40894 -6.6073,-18.45699 -2.5121,-6.03857 -5.2992,-11.95391 -8.3896,-17.72705 -3.0809,-5.76365 -6.4462,-11.37564 -10.0769,-16.81699 -3.6402,-5.43187 -7.5269,-10.69311 -11.679,-15.74579 -4.1521,-5.06216 -8.5507,-9.90629 -13.1673,-14.53239 -4.6261,-4.61662 -9.4798,-9.01519 -14.5324,-13.16731 -5.0527,-4.15211 -10.3139,-8.04827 -15.7458,-11.67899 -5.4414,-3.63074 -11.0534,-6.99603 -16.817,-10.07693 -5.7731,-3.0809 -11.6884,-5.88689 -17.727,-8.38954 -6.0386,-2.50264 -12.2004,-4.70193 -18.4665,-6.60735 -6.2566,-1.89594 -12.608,-3.47905 -19.0163,-4.75882 -6.4177,-1.27976 -12.8924,-2.2372 -19.3955,-2.88183 -6.5125,-0.63513 -13.0441,-0.95744 -19.585,-0.95744 -6.541,0 -13.082,0.32231 -19.5851,0.95744 -6.5126,0.64463 -12.9872,1.60207 -19.3955,2.88183 -6.4177,1.27977 -12.7691,2.86288 -19.0258,4.75882 -6.2565,1.90542 -12.4089,4.10471 -18.457,6.60735 -6.0385,2.50265 -11.9633,5.29916 -17.727,8.38954 -5.7636,3.07142 -11.3851,6.44619 -16.817,10.07693 -5.4319,3.63072 -10.6931,7.52688 -15.7458,11.67899 -5.0621,4.15212 -9.9062,8.55069 -14.5324,13.16731 -4.6261,4.6261 -9.0246,9.47023 -13.1673,14.53239 -4.1426,5.05268 -8.0483,10.31392 -11.6789,15.74579 -3.6308,5.44135 -6.9961,11.05334 -10.0769,16.81699 -3.0904,5.77314 -5.887,11.68848 -8.3896,17.72705 -2.5026,6.04805 -4.7115,12.20038 -6.6074,18.45699 -1.8959,6.26608 -3.4885,12.61749 -4.7588,19.02577 -1.2798,6.41776 -2.2372,12.88292 -2.8818,19.39547 -0.6352,6.50308 -0.9575,13.04407 -0.9575,19.58507 0,6.541 0.3223,13.07251 0.9575,19.58507 0.6446,6.51255 1.602,12.97771 2.8818,19.39547 1.2703,6.40828 2.8629,12.75969 4.7588,19.02577 1.8959,6.24713 4.1048,12.40894 6.6074,18.45698 2.5026,6.03858 5.2992,11.95392 8.3896,17.72705 3.0808,5.76366 6.4461,11.37564 10.0769,16.80752 3.6306,5.44135 7.5268,10.70258 11.6789,15.75527 4.1427,5.06216 8.5412,9.90629 13.1673,14.52291 4.6262,4.6261 9.4703,9.02467 14.5324,13.17679 5.0527,4.1521 10.3139,8.04827 15.7458,11.67899 5.4319,3.63073 11.0534,6.99602 16.817,10.07692 5.7637,3.08091 11.6885,5.8869 17.727,8.38955 6.0481,2.50264 12.2005,4.70192 18.457,6.60735 6.2567,1.89594 12.6081,3.47905 19.0258,4.75882 6.4083,1.27975 12.8829,2.2372 19.3955,2.87234 6.5126,0.64462 13.0441,0.96693 19.5851,0.96693 6.5409,0 13.0725,-0.32231 19.585,-0.96693 6.5031,-0.63514 12.9778,-1.59259 19.3955,-2.87234 6.4083,-1.27977 12.7597,-2.86288 19.0163,-4.75882 6.2661,-1.90543 12.4184,-4.10471 18.4665,-6.60735 6.0386,-2.50265 11.9539,-5.30864 17.727,-8.38955 5.7636,-3.0809 11.3756,-6.44619 16.817,-10.07692 5.4319,-3.63072 10.6931,-7.52689 15.7458,-11.67899 5.0526,-4.15212 9.9063,-8.55069 14.5324,-13.17679 4.6166,-4.61662 9.0152,-9.46075 13.1673,-14.52291 4.1521,-5.05269 8.0388,-10.31392 11.679,-15.75527 3.6307,-5.43188 6.996,-11.04386 10.0769,-16.80752 3.0904,-5.77313 5.8775,-11.68847 8.3896,-17.72705 2.5026,-6.04804 4.7019,-12.20037 6.6073,-18.45698 1.896,-6.26608 3.4791,-12.61749 4.7588,-19.02577 1.2703,-6.41776 2.2373,-12.88292 2.8818,-19.39547 0.6352,-6.51256 0.9575,-13.04407 0.9575,-19.58507" />
    <path
       id="path3358"
       style="fill:#005ab2;fill-opacity:1;fill-rule:evenodd;stroke:none"
       d="m 1470.4281,582.23753 c 0,-6.16181 -0.3033,-12.32362 -0.9101,-18.46647 -0.5971,-6.13336 -1.5072,-12.23829 -2.7112,-18.28635 -1.2038,-6.04805 -2.7017,-12.02974 -4.4933,-17.9356 -1.7916,-5.89638 -3.8678,-11.70743 -6.2282,-17.40474 -2.3604,-5.69729 -4.9958,-11.28084 -7.9061,-16.71271 -2.9008,-5.43188 -6.0764,-10.73103 -9.4986,-15.85955 -3.4317,-5.11904 -7.1003,-10.0864 -11.0154,-14.84521 -3.9152,-4.7683 -8.0578,-9.33751 -12.4089,-13.69818 -4.3702,-4.36067 -8.9394,-8.50329 -13.6982,-12.41842 -4.7683,-3.91511 -9.7263,-7.58375 -14.8548,-11.00593 -5.1285,-3.43166 -10.4276,-6.60736 -15.8595,-9.50814 -5.4319,-2.91027 -11.0154,-5.54563 -16.7127,-7.90608 -5.6973,-2.36045 -11.5083,-4.4365 -17.4047,-6.22816 -5.8964,-1.79167 -11.8876,-3.28946 -17.9356,-4.49338 -6.0481,-1.20393 -12.153,-2.11398 -18.2863,-2.7112 -6.1429,-0.6067 -12.3048,-0.91005 -18.4666,-0.91005 -12.3425,0 -24.6471,1.21341 -36.7528,3.62125 -12.1055,2.40785 -23.9362,6.00065 -35.3403,10.72154 -11.3946,4.7209 -22.3152,10.56039 -32.5722,17.41422 -5.1192,3.4127 -10.077,7.09082 -14.8453,11.00593 -4.7683,3.91513 -9.3375,8.05775 -13.6982,12.41842 -4.3606,4.36067 -8.5033,8.92988 -12.4184,13.69818 -3.9151,4.75881 -7.5837,9.72617 -11.0059,14.84521 -6.8633,10.26652 -12.6933,21.16818 -17.4143,32.57226 -4.7208,11.39461 -8.3136,23.23477 -10.7215,35.34034 -1.2039,6.04806 -2.1045,12.15299 -2.7112,18.28635 -0.5972,6.14285 -0.91,12.30466 -0.91,18.46647 0,12.34258 1.2133,24.64723 3.6212,36.75282 1.2039,6.04804 2.7017,12.02974 4.4934,17.9356 1.7917,5.89638 3.8677,11.70743 6.2281,17.40474 2.3606,5.69729 4.9959,11.27136 7.9062,16.71271 2.9007,5.44135 6.0764,10.73103 9.5081,15.85955 3.4222,5.11904 7.0908,10.07692 11.0059,14.84521 3.9151,4.7683 8.0578,9.33751 12.4184,13.69818 4.3607,4.36066 8.9299,8.50329 13.6982,12.41841 4.7683,3.91512 9.7261,7.58376 14.8453,11.00594 5.1285,3.43165 10.4276,6.60735 15.8595,9.50814 5.4414,2.91027 11.0153,5.54563 16.7127,7.90608 5.6973,2.36044 11.5084,4.4365 17.4047,6.22816 5.9059,1.79167 11.8875,3.28946 17.9356,4.49338 6.0481,1.20392 12.1531,2.11398 18.2864,2.71119 6.1334,0.59723 12.3047,0.91006 18.4664,0.91006 6.1713,0 12.3237,-0.31283 18.4666,-0.91006 6.1333,-0.59721 12.2382,-1.50727 18.2863,-2.71119 6.048,-1.20392 12.0392,-2.70171 17.9356,-4.49338 5.8964,-1.79166 11.7074,-3.86772 17.4047,-6.22816 5.6973,-2.36045 11.2808,-4.99581 16.7127,-7.90608 5.4414,-2.90079 10.731,-6.07649 15.8595,-9.50814 5.1285,-3.42218 10.0865,-7.09082 14.8548,-11.00594 4.7683,-3.91512 9.328,-8.05775 13.6982,-12.41841 4.3511,-4.36067 8.4937,-8.92988 12.4089,-13.69818 3.9151,-4.76829 7.5837,-9.72617 11.0154,-14.84521 3.4222,-5.12852 6.5978,-10.4182 9.4986,-15.85955 2.9103,-5.44135 5.5457,-11.01542 7.9061,-16.71271 2.3604,-5.69731 4.4366,-11.50836 6.2282,-17.40474 1.7916,-5.90586 3.2895,-11.88756 4.4933,-17.9356 1.204,-6.04806 2.1141,-12.15299 2.7112,-18.28636 0.6068,-6.13336 0.9101,-12.30465 0.9101,-18.46646" />
    <path
       id="path3362"
       style="fill:none;stroke:#000000;stroke-width:1.29999995;stroke-linecap:butt;stroke-linejoin:round;stroke-miterlimit:1.41400003;stroke-opacity:1;stroke-dasharray:none"
       d="m 1481.8446,582.23753 c 0,-26.23982 -5.1664,-52.22369 -15.2054,-76.46329 -10.0486,-24.23962 -24.761,-46.27044 -43.3128,-64.82223 -18.5518,-18.55178 -40.5826,-33.27376 -64.8222,-43.31277 -24.2397,-10.03901 -50.2235,-15.20544 -76.4633,-15.20544 -26.2399,0 -52.2237,5.16643 -76.4634,15.20544 -24.2396,10.03901 -46.2703,24.76099 -64.8222,43.31277 -18.5518,18.55179 -33.2737,40.58261 -43.3127,64.82223 -10.0391,24.2396 -15.2055,50.22347 -15.2055,76.46329 0,26.23982 5.1664,52.2237 15.2055,76.4633 10.039,24.23961 24.7609,46.26095 43.3127,64.82222 18.5519,18.55178 40.5826,33.26429 64.8222,43.31277 24.2397,10.03901 50.2235,15.20544 76.4634,15.20544 26.2398,0 52.2236,-5.16643 76.4633,-15.20544 24.2396,-10.04848 46.2704,-24.76099 64.8222,-43.31277 18.5518,-18.56127 33.2642,-40.58261 43.3128,-64.82222 10.039,-24.2396 15.2054,-50.22348 15.2054,-76.4633" />
    <g
       id="g3364"
       transform="matrix(9.4797046,0,0,-9.4797046,1281.6388,770.62461)">
      <path
         d="M 0,0 0.259,0 0.512,0.006 0.765,0.012 1.018,0.024 1.277,0.036 1.529,0.06 1.776,0.079 2.029,0.096 2.277,0.127 2.529,0.156 2.77,0.187 3.017,0.229"
         style="fill:none;stroke:#00acea;stroke-width:0.00395582;stroke-linecap:butt;stroke-linejoin:round;stroke-miterlimit:1.41400003;stroke-opacity:1;stroke-dasharray:none"
         id="path3366" />
    </g>
    <g
       id="g3368"
       transform="matrix(9.4797046,0,0,-9.4797046,1174.0927,637.66605)">
      <path
         d="m 0,0 0.752,-0.463 0.607,-0.331 0.721,-0.317 0.84,-0.231 1.083,-0.246 0.911,-0.043 0.838,0.043 0.795,0.131 0.953,0.273 0.723,0.376 0.665,0.505 0.549,0.564 0.478,0.649 0.39,0.796 0.231,0.853 0.073,0.954 L 10.522,4.365 10.305,5.203 9.929,5.926 9.437,6.605 8.874,7.14 8.165,7.646 7.385,8.036 6.547,8.268 5.694,8.34 5.087,8.312 4.365,8.195 3.685,8.008 l 0.145,2.5 0.028,0 5.782,0 0,2.644 -8.311,0 L 0.81,5.074 3.252,4.885 3.772,5.347 4.495,5.637 5.217,5.739 5.752,5.709 6.302,5.565 6.909,5.13 7.385,4.754 7.644,4.236 7.79,3.513 7.747,2.934 7.53,2.313 7.14,1.779 6.547,1.33 5.81,1.055 5.03,0.954 4.365,0.982 3.527,1.172 2.804,1.461 2.08,1.823 1.373,2.284 0,0 z"
         style="fill:#ffffff;fill-opacity:1;fill-rule:evenodd;stroke:none"
         id="path3370" />
    </g>
    <g
       id="g3372"
       transform="matrix(9.4797046,0,0,-9.4797046,1321.1654,582.51412)">
      <path
         d="M 0,0 0.057,0.476 0.115,1.214 0.187,1.806 0.288,2.413 0.476,3.02 0.78,3.613 1.286,4.22 l 0.39,0.275 0.549,0.332 0.42,0.116 0.418,0 0.42,0 L 3.901,4.827 4.451,4.495 4.827,4.22 5.347,3.613 5.651,3.02 5.824,2.413 5.924,1.806 6.011,1.214 6.069,0.476 6.099,0 6.069,-0.476 6.011,-1.2 5.924,-1.807 5.824,-2.413 5.651,-3.006 5.347,-3.613 4.827,-4.22 4.451,-4.495 3.901,-4.813 3.483,-4.943 3.063,-4.958 2.645,-4.943 2.225,-4.813 1.676,-4.495 1.286,-4.22 0.78,-3.613 0.476,-2.948 0.288,-2.413 0.187,-1.807 0.115,-1.2 0.057,-0.476 0,0 z m -2.775,0 0,-0.607 0.014,-0.593 0.058,-0.607 0.101,-0.606 0.13,-0.593 0.173,-0.607 0.246,-0.607 0.303,-0.593 0.289,-0.49 0.362,-0.478 0.362,-0.391 0.49,-0.404 0.478,-0.319 0.477,-0.245 0.606,-0.186 0.607,-0.13 0.593,-0.072 0.549,-0.029 0.55,0.029 0.591,0.072 0.609,0.13 0.607,0.186 0.476,0.245 0.476,0.319 0.492,0.404 0.362,0.391 0.36,0.478 0.29,0.49 0.303,0.593 0.247,0.607 0.173,0.607 0.13,0.593 0.057,0.606 L 8.873,-1.2 8.888,-0.607 8.902,0 8.888,0.607 8.873,1.214 8.786,1.806 8.729,2.413 8.599,3.02 8.426,3.613 8.179,4.278 7.876,4.827 7.586,5.305 7.226,5.781 6.864,6.158 6.372,6.561 5.896,6.879 5.42,7.126 4.813,7.343 4.204,7.471 3.613,7.53 3.063,7.558 2.514,7.53 1.921,7.471 1.314,7.343 0.708,7.126 0.231,6.879 -0.247,6.561 -0.737,6.158 -1.099,5.781 -1.461,5.305 -1.75,4.827 -2.053,4.22 -2.299,3.613 -2.472,3.02 -2.602,2.413 -2.703,1.806 -2.761,1.214 -2.775,0.607 -2.775,0 z"
         style="fill:#ffffff;fill-opacity:1;fill-rule:evenodd;stroke:none"
         id="path3374" />
    </g>
    <g
       id="g3376"
       transform="matrix(9.4797046,0,0,-9.4797046,1455.2418,584.69066)">
      <path
         d="M 0,0 -0.169,-0.187 0,0"
         style="fill:none;stroke:#00acea;stroke-width:0.00395582;stroke-linecap:butt;stroke-linejoin:round;stroke-miterlimit:1.41400003;stroke-opacity:1;stroke-dasharray:none"
         id="path3378" />
    </g>
  </g>
</svg>
