<?xml version="1.0" encoding="UTF-8" standalone="no"?>
<!-- Created with Inkscape (http://www.inkscape.org/) -->

<svg
   xmlns:dc="http://purl.org/dc/elements/1.1/"
   xmlns:cc="http://creativecommons.org/ns#"
   xmlns:rdf="http://www.w3.org/1999/02/22-rdf-syntax-ns#"
   xmlns:svg="http://www.w3.org/2000/svg"
   xmlns="http://www.w3.org/2000/svg"
   xmlns:sodipodi="http://sodipodi.sourceforge.net/DTD/sodipodi-0.dtd"
   xmlns:inkscape="http://www.inkscape.org/namespaces/inkscape"
   width="399.8006"
   height="351.37137"
   id="svg5321"
   version="1.1"
   inkscape:version="0.47 r22583"
   sodipodi:docname="Denmark road sign A34.svg">
  <defs
     id="defs5323"><inkscape:perspective
   sodipodi:type="inkscape:persp3d"
   inkscape:vp_x="0 : 526.18109 : 1"
   inkscape:vp_y="0 : 1000 : 0"
   inkscape:vp_z="744.09448 : 526.18109 : 1"
   inkscape:persp3d-origin="372.04724 : 350.78739 : 1"
   id="perspective5329" />
<inkscape:perspective
   id="perspective5339"
   inkscape:persp3d-origin="0.5 : 0.33333333 : 1"
   inkscape:vp_z="1 : 0.5 : 1"
   inkscape:vp_y="0 : 1000 : 0"
   inkscape:vp_x="0 : 0.5 : 1"
   sodipodi:type="inkscape:persp3d" />
<clipPath
   clipPathUnits="userSpaceOnUse"
   id="clipPath4202">
  <path
     d="m 20.045,731.714 42.114,0 0,37.012 -42.114,0 0,-37.012 z"
     id="path4204" />
</clipPath>
<inkscape:perspective
   id="perspective5396"
   inkscape:persp3d-origin="425 : 140 : 1"
   inkscape:vp_z="850 : 210 : 1"
   inkscape:vp_y="0 : 1000 : 0"
   inkscape:vp_x="0 : 210 : 1"
   sodipodi:type="inkscape:persp3d" />
<inkscape:perspective
   id="perspective5429"
   inkscape:persp3d-origin="0.5 : 0.33333333 : 1"
   inkscape:vp_z="1 : 0.5 : 1"
   inkscape:vp_y="0 : 1000 : 0"
   inkscape:vp_x="0 : 0.5 : 1"
   sodipodi:type="inkscape:persp3d" />
<clipPath
   clipPathUnits="userSpaceOnUse"
   id="clipPath2840">
  <path
     d="m 77.057,731.714 42.114,0 0,37.012 -42.114,0 0,-37.012 z"
     id="path2842" />
</clipPath>
<inkscape:perspective
   id="perspective5499"
   inkscape:persp3d-origin="0.5 : 0.33333333 : 1"
   inkscape:vp_z="1 : 0.5 : 1"
   inkscape:vp_y="0 : 1000 : 0"
   inkscape:vp_x="0 : 0.5 : 1"
   sodipodi:type="inkscape:persp3d" />
<clipPath
   clipPathUnits="userSpaceOnUse"
   id="clipPath3036">
  <path
     d="m 134.072,731.751 42.114,0 0,36.975 -42.114,0 0,-36.975 z"
     id="path3038" />
</clipPath>
<inkscape:perspective
   id="perspective5621"
   inkscape:persp3d-origin="0.5 : 0.33333333 : 1"
   inkscape:vp_z="1 : 0.5 : 1"
   inkscape:vp_y="0 : 1000 : 0"
   inkscape:vp_x="0 : 0.5 : 1"
   sodipodi:type="inkscape:persp3d" />
<clipPath
   clipPathUnits="userSpaceOnUse"
   id="clipPath2952">
  <path
     d="m 191.084,731.751 42.113,0 0,36.975 -42.113,0 0,-36.975 z"
     id="path2954" />
</clipPath>
<clipPath
   clipPathUnits="userSpaceOnUse"
   id="clipPath2936">
  <path
     d="m 191.084,731.751 42.113,0 0,36.975 -42.113,0 0,-36.975 z"
     id="path2938" />
</clipPath>
<inkscape:perspective
   id="perspective5694"
   inkscape:persp3d-origin="0.5 : 0.33333333 : 1"
   inkscape:vp_z="1 : 0.5 : 1"
   inkscape:vp_y="0 : 1000 : 0"
   inkscape:vp_x="0 : 0.5 : 1"
   sodipodi:type="inkscape:persp3d" />
<inkscape:perspective
   inkscape:vp_x="0 : 226.5 : 1"
   inkscape:vp_y="0 : 1000 : 0"
   inkscape:vp_z="510 : 226.5 : 1"
   inkscape:persp3d-origin="255 : 151 : 1"
   id="perspective18"
   sodipodi:type="inkscape:persp3d" />

	<inkscape:perspective
   id="perspective5722"
   inkscape:persp3d-origin="0.5 : 0.33333333 : 1"
   inkscape:vp_z="1 : 0.5 : 1"
   inkscape:vp_y="0 : 1000 : 0"
   inkscape:vp_x="0 : 0.5 : 1"
   sodipodi:type="inkscape:persp3d" />
<clipPath
   clipPathUnits="userSpaceOnUse"
   id="clipPath3216">
  <path
     d="m 248.098,731.74 42.114,0 0,36.986 -42.114,0 0,-36.986 z"
     id="path3218" />
</clipPath>
<inkscape:perspective
   id="perspective5860"
   inkscape:persp3d-origin="0.5 : 0.33333333 : 1"
   inkscape:vp_z="1 : 0.5 : 1"
   inkscape:vp_y="0 : 1000 : 0"
   inkscape:vp_x="0 : 0.5 : 1"
   sodipodi:type="inkscape:persp3d" />
<clipPath
   clipPathUnits="userSpaceOnUse"
   id="clipPath2880">
  <path
     d="m 305.111,731.751 42.114,0 0,36.975 -42.114,0 0,-36.975 z"
     id="path2882" />
</clipPath>
<inkscape:perspective
   id="perspective5942"
   inkscape:persp3d-origin="0.5 : 0.33333333 : 1"
   inkscape:vp_z="1 : 0.5 : 1"
   inkscape:vp_y="0 : 1000 : 0"
   inkscape:vp_x="0 : 0.5 : 1"
   sodipodi:type="inkscape:persp3d" />
<clipPath
   clipPathUnits="userSpaceOnUse"
   id="clipPath3112">
  <path
     d="m 362.126,731.751 42.113,0 0,36.975 -42.113,0 0,-36.975 z"
     id="path3114" />
</clipPath>
<clipPath
   clipPathUnits="userSpaceOnUse"
   id="clipPath3100">
  <path
     d="m 362.126,731.751 42.114,0 0,36.975 -42.114,0 0,-36.975 z"
     id="path3102" />
</clipPath>
<inkscape:perspective
   id="perspective6017"
   inkscape:persp3d-origin="0.5 : 0.33333333 : 1"
   inkscape:vp_z="1 : 0.5 : 1"
   inkscape:vp_y="0 : 1000 : 0"
   inkscape:vp_x="0 : 0.5 : 1"
   sodipodi:type="inkscape:persp3d" />
<clipPath
   clipPathUnits="userSpaceOnUse"
   id="clipPath2984">
  <path
     d="m 419.137,731.751 42.114,0 0,36.975 -42.114,0 0,-36.975 z"
     id="path2986" />
</clipPath>
<inkscape:perspective
   id="perspective6119"
   inkscape:persp3d-origin="0.5 : 0.33333333 : 1"
   inkscape:vp_z="1 : 0.5 : 1"
   inkscape:vp_y="0 : 1000 : 0"
   inkscape:vp_x="0 : 0.5 : 1"
   sodipodi:type="inkscape:persp3d" />
<clipPath
   clipPathUnits="userSpaceOnUse"
   id="clipPath3296">
  <path
     d="m 476.153,731.751 42.113,0 0,36.975 -42.113,0 0,-36.975 z"
     id="path3298" />
</clipPath>
<inkscape:perspective
   id="perspective6219"
   inkscape:persp3d-origin="0.5 : 0.33333333 : 1"
   inkscape:vp_z="1 : 0.5 : 1"
   inkscape:vp_y="0 : 1000 : 0"
   inkscape:vp_x="0 : 0.5 : 1"
   sodipodi:type="inkscape:persp3d" />
<clipPath
   clipPathUnits="userSpaceOnUse"
   id="clipPath2860">
  <path
     d="m 533.165,731.751 42.113,0 0,36.975 -42.113,0 0,-36.975 z"
     id="path2862" />
</clipPath>
<inkscape:perspective
   id="perspective6281"
   inkscape:persp3d-origin="0.5 : 0.33333333 : 1"
   inkscape:vp_z="1 : 0.5 : 1"
   inkscape:vp_y="0 : 1000 : 0"
   inkscape:vp_x="0 : 0.5 : 1"
   sodipodi:type="inkscape:persp3d" />
<clipPath
   clipPathUnits="userSpaceOnUse"
   id="clipPath3080">
  <path
     d="m 20.045,674.69 42.114,0 0,36.975 -42.114,0 0,-36.975 z"
     id="path3082" />
</clipPath>
<inkscape:perspective
   id="perspective6343"
   inkscape:persp3d-origin="0.5 : 0.33333333 : 1"
   inkscape:vp_z="1 : 0.5 : 1"
   inkscape:vp_y="0 : 1000 : 0"
   inkscape:vp_x="0 : 0.5 : 1"
   sodipodi:type="inkscape:persp3d" />
<clipPath
   clipPathUnits="userSpaceOnUse"
   id="clipPath2964">
  <path
     d="m 77.057,674.69 42.114,0 0,36.975 -42.114,0 0,-36.975 z"
     id="path2966" />
</clipPath>
<inkscape:perspective
   id="perspective6432"
   inkscape:persp3d-origin="0.5 : 0.33333333 : 1"
   inkscape:vp_z="1 : 0.5 : 1"
   inkscape:vp_y="0 : 1000 : 0"
   inkscape:vp_x="0 : 0.5 : 1"
   sodipodi:type="inkscape:persp3d" />
<clipPath
   clipPathUnits="userSpaceOnUse"
   id="clipPath3256">
  <path
     d="m 134.072,674.69 42.114,0 0,36.975 -42.114,0 0,-36.975 z"
     id="path3258" />
</clipPath>
<inkscape:perspective
   id="perspective6560"
   inkscape:persp3d-origin="0.5 : 0.33333333 : 1"
   inkscape:vp_z="1 : 0.5 : 1"
   inkscape:vp_y="0 : 1000 : 0"
   inkscape:vp_x="0 : 0.5 : 1"
   sodipodi:type="inkscape:persp3d" />
<clipPath
   clipPathUnits="userSpaceOnUse"
   id="clipPath2908">
  <path
     d="m 191.084,674.69 42.113,0 0,36.975 -42.113,0 0,-36.975 z"
     id="path2910" />
</clipPath>
<inkscape:perspective
   id="perspective6650"
   inkscape:persp3d-origin="0.5 : 0.33333333 : 1"
   inkscape:vp_z="1 : 0.5 : 1"
   inkscape:vp_y="0 : 1000 : 0"
   inkscape:vp_x="0 : 0.5 : 1"
   sodipodi:type="inkscape:persp3d" />
<clipPath
   clipPathUnits="userSpaceOnUse"
   id="clipPath3128">
  <path
     d="m 248.098,674.69 42.114,0 0,36.975 -42.114,0 0,-36.975 z"
     id="path3130" />
</clipPath>
</defs>
  <sodipodi:namedview
     id="base"
     pagecolor="#ffffff"
     bordercolor="#666666"
     borderopacity="1.0"
     inkscape:pageopacity="0.0"
     inkscape:pageshadow="2"
     inkscape:zoom="0.83535156"
     inkscape:cx="748.61453"
     inkscape:cy="161.94933"
     inkscape:document-units="px"
     inkscape:current-layer="layer1"
     showgrid="false"
     inkscape:window-width="1600"
     inkscape:window-height="838"
     inkscape:window-x="-8"
     inkscape:window-y="-8"
     inkscape:window-maximized="1"
     showguides="true"
     inkscape:guide-bbox="true" />
  <metadata
     id="metadata5326">
    <rdf:RDF>
      <cc:Work
         rdf:about="">
        <dc:format>image/svg+xml</dc:format>
        <dc:type
           rdf:resource="http://purl.org/dc/dcmitype/StillImage" />
        <dc:title></dc:title>
      </cc:Work>
    </rdf:RDF>
  </metadata>
  <g
     inkscape:label="Livello 1"
     inkscape:groupmode="layer"
     id="layer1"
     transform="translate(190.28609,-157.71711)"><path
   id="path4208"
   style="fill:#ffffff;fill-opacity:1;fill-rule:nonzero;stroke:none"
   d="m -187.8599,499.88929 c -3.40816,-5.44927 -3.05691,-12.59787 0,-17.70537 L -6.0404704,166.90493 c 3.3986715,-5.43977 9.1897039,-9.18971 15.6547745,-9.18971 6.4650709,0 12.2561029,3.74994 15.3225019,8.85744 L 207.08851,481.84215 c 3.0664,5.44927 3.39867,12.59787 0,18.04714 -3.0664,5.79103 -9.18971,9.1992 -15.3225,9.1992 l -364.30341,0 c -6.1328,0 -12.26559,-3.40817 -15.3225,-9.1992" />
<g
   id="g4210"
   transform="matrix(9.4934957,0,0,-9.4934957,-187.8599,499.88929)"
   style="fill:#ed171f;fill-opacity:1">
  <path
     d="m 0,0 c -0.359,0.574 -0.322,1.327 0,1.865 l 19.152,33.21 c 0.358,0.573 0.968,0.968 1.649,0.968 0.681,0 1.291,-0.395 1.614,-0.933 L 41.602,1.901 C 41.925,1.327 41.96,0.574 41.602,0 41.279,-0.61 40.634,-0.969 39.988,-0.969 l -38.374,0 C 0.968,-0.969 0.322,-0.61 0,0 M 35.47,3.551 20.801,28.942 6.133,3.551 l 29.337,0 z"
     style="fill:#ed171f;fill-opacity:1;fill-rule:nonzero;stroke:none"
     id="path4212" />
</g>
<g
   inkscape:label="Ebene 1"
   inkscape:groupmode="layer"
   transform="translate(-501.54702,586.32528)"
   id="layer1-0" />

	
	
<g
   id="g6874"
   transform="translate(-520.73884,28.730419)">
  <g
     transform="matrix(9.5384675,0,0,-9.5384675,406.96233,410.0552)"
     id="g3136">
    <path
       id="path3138"
       style="fill:#000000;fill-opacity:1;fill-rule:nonzero;stroke:none"
       d="m 0,0 11.328,0 14.889,-2.957 -27.962,0 L 0,0 z" />
  </g>
  <g
     transform="matrix(9.5384675,0,0,-9.5384675,553.40165,419.56696)"
     id="g3140">
    <path
       id="path3142"
       style="fill:#ffffff;fill-opacity:1;fill-rule:nonzero;stroke:none"
       d="m 0,0 -1.71,-1.71 -0.605,0 1.78,1.817 L 0,0 z" />
  </g>
  <g
     transform="matrix(9.5384675,0,0,-9.5384675,561.55895,421.26767)"
     id="g3144">
    <path
       id="path3146"
       style="fill:#ffffff;fill-opacity:1;fill-rule:nonzero;stroke:none"
       d="m 0,0 -1.532,-1.532 -0.641,0 1.638,1.639 L 0,0 z" />
  </g>
  <g
     transform="matrix(9.5384675,0,0,-9.5384675,569.71147,422.96361)"
     id="g3148">
    <path
       id="path3150"
       style="fill:#ffffff;fill-opacity:1;fill-rule:nonzero;stroke:none"
       d="m 0,0 -1.353,-1.354 -0.642,0 1.46,1.461 L 0,0 z" />
  </g>
  <g
     transform="matrix(9.5384675,0,0,-9.5384675,578.20453,424.32284)"
     id="g3152">
    <path
       id="path3154"
       style="fill:#ffffff;fill-opacity:1;fill-rule:nonzero;stroke:none"
       d="m 0,0 -1.211,-1.211 -0.642,0 1.318,1.318 L 0,0 z" />
  </g>
  <g
     transform="matrix(9.5384675,0,0,-9.5384675,586.36087,426.02355)"
     id="g3156">
    <path
       id="path3158"
       style="fill:#ffffff;fill-opacity:1;fill-rule:nonzero;stroke:none"
       d="m 0,0 -1.033,-1.033 -0.677,0 1.175,1.14 L 0,0 z" />
  </g>
  <g
     transform="matrix(9.5384675,0,0,-9.5384675,594.5134,427.71949)"
     id="g3160">
    <path
       id="path3162"
       style="fill:#ffffff;fill-opacity:1;fill-rule:nonzero;stroke:none"
       d="m 0,0 -0.855,-0.855 -0.677,0 0.997,0.962 L 0,0 z" />
  </g>
  <g
     transform="matrix(9.5384675,0,0,-9.5384675,602.6707,429.4202)"
     id="g3164">
    <path
       id="path3166"
       style="fill:#ffffff;fill-opacity:1;fill-rule:nonzero;stroke:none"
       d="m 0,0 -0.677,-0.677 -0.676,0 0.818,0.784 L 0,0 z" />
  </g>
  <g
     transform="matrix(9.5384675,0,0,-9.5384675,610.82322,431.12091)"
     id="g3168">
    <path
       id="path3170"
       style="fill:#ffffff;fill-opacity:1;fill-rule:nonzero;stroke:none"
       d="m 0,0 -0.499,-0.499 -0.676,0 0.64,0.606 L 0,0 z" />
  </g>
  <g
     transform="matrix(9.5384675,0,0,-9.5384675,618.97957,432.48109)"
     id="g3172">
    <path
       id="path3174"
       style="fill:#ffffff;fill-opacity:1;fill-rule:nonzero;stroke:none"
       d="m 0,0 -0.356,-0.356 -0.642,0 0.463,0.463 L 0,0 z" />
  </g>
  <g
     transform="matrix(9.5384675,0,0,-9.5384675,627.47357,434.17608)"
     id="g3176">
    <path
       id="path3178"
       style="fill:#ffffff;fill-opacity:1;fill-rule:nonzero;stroke:none"
       d="m 0,0 -0.214,-0.178 -0.641,0 0.32,0.285 L 0,0 z" />
  </g>
  <g
     transform="matrix(9.5384675,0,0,-9.5384675,633.92921,435.53531)"
     id="g3180">
    <path
       id="path3182"
       style="fill:#ffffff;fill-opacity:1;fill-rule:nonzero;stroke:none"
       d="m 0,0 -0.071,-0.036 -0.428,0 0.143,0.107 L 0,0 z" />
  </g>
  <g
     transform="matrix(9.5384675,0,0,-9.5384675,590.4357,335.30128)"
     id="g3184">
    <path
       id="path3186"
       style="fill:#000000;fill-opacity:1;fill-rule:nonzero;stroke:none"
       d="M 0,0 C 0.321,-0.071 0.499,-0.285 0.57,-0.641 L 1.14,-3.669 C 1.639,-3.776 1.888,-4.203 1.781,-4.702 L 1.247,-7.338 C 1.14,-7.873 0.713,-8.122 0.285,-8.015 L 0.036,-9.297 c -0.071,-0.286 -0.286,-0.428 -0.57,-0.357 l -0.962,0.178 c -0.285,0.036 -0.427,0.25 -0.356,0.571 l 0.25,1.246 -7.623,1.532 -0.285,-1.246 c -0.036,-0.321 -0.25,-0.464 -0.535,-0.393 l -0.962,0.179 c -0.285,0.071 -0.427,0.284 -0.391,0.569 l 0.248,1.282 c -0.427,0.072 -0.712,0.464 -0.605,0.998 l 0.499,2.636 c 0.106,0.499 0.498,0.784 0.997,0.712 l 1.674,2.565 c 0.215,0.321 0.463,0.427 0.784,0.392 L 0,0 z" />
  </g>
  <g
     transform="matrix(9.5384675,0,0,-9.5384675,591.79493,368.2605)"
     id="g3188">
    <path
       id="path3190"
       style="fill:#ffffff;fill-opacity:1;fill-rule:nonzero;stroke:none"
       d="M 0,0 -0.463,2.351 C -0.499,2.493 -0.57,2.565 -0.677,2.6 l -7.088,1.39 c -0.107,0.035 -0.214,0 -0.321,-0.108 L -9.404,1.852 0,0 z" />
  </g>
  <g
     transform="matrix(9.5384675,0,0,-9.5384675,515.00932,419.22644)"
     id="g3192">
    <path
       id="path3194"
       style="fill:#ffffff;fill-opacity:1;fill-rule:nonzero;stroke:none"
       d="M 0,0 0.641,0.641 0,0.784 0,0 z" />
  </g>
  <g
     transform="matrix(9.5384675,0,0,-9.5384675,529.27886,414.81108)"
     id="g3196">
    <path
       id="path3198"
       style="fill:#ffffff;fill-opacity:1;fill-rule:nonzero;stroke:none"
       d="m 0,0 -1.496,-1.496 0,0.641 0.961,0.962 L 0,0 z" />
  </g>
  <g
     transform="matrix(9.5384675,0,0,-9.5384675,537.09278,416.50702)"
     id="g3200">
    <path
       id="path3202"
       style="fill:#ffffff;fill-opacity:1;fill-rule:nonzero;stroke:none"
       d="m 0,0 -2.03,-2.031 -0.285,0 0,0.321 1.78,1.852 L 0,0 z" />
  </g>
  <g
     transform="matrix(9.5384675,0,0,-9.5384675,545.25007,417.86625)"
     id="g3204">
    <path
       id="path3206"
       style="fill:#ffffff;fill-opacity:1;fill-rule:nonzero;stroke:none"
       d="m 0,0 -1.853,-1.888 -0.641,0 1.959,1.995 L 0,0 z" />
  </g>
</g>
</g>
</svg>
