<?xml version="1.0" encoding="UTF-8" standalone="no"?>
<!-- Created with Inkscape (http://www.inkscape.org/) -->

<svg
   xmlns:dc="http://purl.org/dc/elements/1.1/"
   xmlns:cc="http://creativecommons.org/ns#"
   xmlns:rdf="http://www.w3.org/1999/02/22-rdf-syntax-ns#"
   xmlns:svg="http://www.w3.org/2000/svg"
   xmlns="http://www.w3.org/2000/svg"
   xmlns:sodipodi="http://sodipodi.sourceforge.net/DTD/sodipodi-0.dtd"
   xmlns:inkscape="http://www.inkscape.org/namespaces/inkscape"
   width="399.8006"
   height="351.37137"
   id="svg5321"
   version="1.1"
   inkscape:version="0.47 r22583"
   sodipodi:docname="Denmark road sign A31.svg">
  <defs
     id="defs5323"><inkscape:perspective
   sodipodi:type="inkscape:persp3d"
   inkscape:vp_x="0 : 526.18109 : 1"
   inkscape:vp_y="0 : 1000 : 0"
   inkscape:vp_z="744.09448 : 526.18109 : 1"
   inkscape:persp3d-origin="372.04724 : 350.78739 : 1"
   id="perspective5329" />
<inkscape:perspective
   id="perspective5339"
   inkscape:persp3d-origin="0.5 : 0.33333333 : 1"
   inkscape:vp_z="1 : 0.5 : 1"
   inkscape:vp_y="0 : 1000 : 0"
   inkscape:vp_x="0 : 0.5 : 1"
   sodipodi:type="inkscape:persp3d" />
<clipPath
   clipPathUnits="userSpaceOnUse"
   id="clipPath4202">
  <path
     d="m 20.045,731.714 42.114,0 0,37.012 -42.114,0 0,-37.012 z"
     id="path4204" />
</clipPath>
<inkscape:perspective
   id="perspective5396"
   inkscape:persp3d-origin="425 : 140 : 1"
   inkscape:vp_z="850 : 210 : 1"
   inkscape:vp_y="0 : 1000 : 0"
   inkscape:vp_x="0 : 210 : 1"
   sodipodi:type="inkscape:persp3d" />
<inkscape:perspective
   id="perspective5429"
   inkscape:persp3d-origin="0.5 : 0.33333333 : 1"
   inkscape:vp_z="1 : 0.5 : 1"
   inkscape:vp_y="0 : 1000 : 0"
   inkscape:vp_x="0 : 0.5 : 1"
   sodipodi:type="inkscape:persp3d" />
<clipPath
   clipPathUnits="userSpaceOnUse"
   id="clipPath2840">
  <path
     d="m 77.057,731.714 42.114,0 0,37.012 -42.114,0 0,-37.012 z"
     id="path2842" />
</clipPath>
<inkscape:perspective
   id="perspective5499"
   inkscape:persp3d-origin="0.5 : 0.33333333 : 1"
   inkscape:vp_z="1 : 0.5 : 1"
   inkscape:vp_y="0 : 1000 : 0"
   inkscape:vp_x="0 : 0.5 : 1"
   sodipodi:type="inkscape:persp3d" />
<clipPath
   clipPathUnits="userSpaceOnUse"
   id="clipPath3036">
  <path
     d="m 134.072,731.751 42.114,0 0,36.975 -42.114,0 0,-36.975 z"
     id="path3038" />
</clipPath>
<inkscape:perspective
   id="perspective5621"
   inkscape:persp3d-origin="0.5 : 0.33333333 : 1"
   inkscape:vp_z="1 : 0.5 : 1"
   inkscape:vp_y="0 : 1000 : 0"
   inkscape:vp_x="0 : 0.5 : 1"
   sodipodi:type="inkscape:persp3d" />
<clipPath
   clipPathUnits="userSpaceOnUse"
   id="clipPath2952">
  <path
     d="m 191.084,731.751 42.113,0 0,36.975 -42.113,0 0,-36.975 z"
     id="path2954" />
</clipPath>
<clipPath
   clipPathUnits="userSpaceOnUse"
   id="clipPath2936">
  <path
     d="m 191.084,731.751 42.113,0 0,36.975 -42.113,0 0,-36.975 z"
     id="path2938" />
</clipPath>
<inkscape:perspective
   id="perspective5694"
   inkscape:persp3d-origin="0.5 : 0.33333333 : 1"
   inkscape:vp_z="1 : 0.5 : 1"
   inkscape:vp_y="0 : 1000 : 0"
   inkscape:vp_x="0 : 0.5 : 1"
   sodipodi:type="inkscape:persp3d" />
<inkscape:perspective
   inkscape:vp_x="0 : 226.5 : 1"
   inkscape:vp_y="0 : 1000 : 0"
   inkscape:vp_z="510 : 226.5 : 1"
   inkscape:persp3d-origin="255 : 151 : 1"
   id="perspective18"
   sodipodi:type="inkscape:persp3d" />

	<inkscape:perspective
   id="perspective5722"
   inkscape:persp3d-origin="0.5 : 0.33333333 : 1"
   inkscape:vp_z="1 : 0.5 : 1"
   inkscape:vp_y="0 : 1000 : 0"
   inkscape:vp_x="0 : 0.5 : 1"
   sodipodi:type="inkscape:persp3d" />
<clipPath
   clipPathUnits="userSpaceOnUse"
   id="clipPath3216">
  <path
     d="m 248.098,731.74 42.114,0 0,36.986 -42.114,0 0,-36.986 z"
     id="path3218" />
</clipPath>
<inkscape:perspective
   id="perspective5860"
   inkscape:persp3d-origin="0.5 : 0.33333333 : 1"
   inkscape:vp_z="1 : 0.5 : 1"
   inkscape:vp_y="0 : 1000 : 0"
   inkscape:vp_x="0 : 0.5 : 1"
   sodipodi:type="inkscape:persp3d" />
<clipPath
   clipPathUnits="userSpaceOnUse"
   id="clipPath2880">
  <path
     d="m 305.111,731.751 42.114,0 0,36.975 -42.114,0 0,-36.975 z"
     id="path2882" />
</clipPath>
<inkscape:perspective
   id="perspective5942"
   inkscape:persp3d-origin="0.5 : 0.33333333 : 1"
   inkscape:vp_z="1 : 0.5 : 1"
   inkscape:vp_y="0 : 1000 : 0"
   inkscape:vp_x="0 : 0.5 : 1"
   sodipodi:type="inkscape:persp3d" />
<clipPath
   clipPathUnits="userSpaceOnUse"
   id="clipPath3112">
  <path
     d="m 362.126,731.751 42.113,0 0,36.975 -42.113,0 0,-36.975 z"
     id="path3114" />
</clipPath>
<clipPath
   clipPathUnits="userSpaceOnUse"
   id="clipPath3100">
  <path
     d="m 362.126,731.751 42.114,0 0,36.975 -42.114,0 0,-36.975 z"
     id="path3102" />
</clipPath>
<inkscape:perspective
   id="perspective6017"
   inkscape:persp3d-origin="0.5 : 0.33333333 : 1"
   inkscape:vp_z="1 : 0.5 : 1"
   inkscape:vp_y="0 : 1000 : 0"
   inkscape:vp_x="0 : 0.5 : 1"
   sodipodi:type="inkscape:persp3d" />
<clipPath
   clipPathUnits="userSpaceOnUse"
   id="clipPath2984">
  <path
     d="m 419.137,731.751 42.114,0 0,36.975 -42.114,0 0,-36.975 z"
     id="path2986" />
</clipPath>
<inkscape:perspective
   id="perspective6119"
   inkscape:persp3d-origin="0.5 : 0.33333333 : 1"
   inkscape:vp_z="1 : 0.5 : 1"
   inkscape:vp_y="0 : 1000 : 0"
   inkscape:vp_x="0 : 0.5 : 1"
   sodipodi:type="inkscape:persp3d" />
<clipPath
   clipPathUnits="userSpaceOnUse"
   id="clipPath3296">
  <path
     d="m 476.153,731.751 42.113,0 0,36.975 -42.113,0 0,-36.975 z"
     id="path3298" />
</clipPath>
<inkscape:perspective
   id="perspective6219"
   inkscape:persp3d-origin="0.5 : 0.33333333 : 1"
   inkscape:vp_z="1 : 0.5 : 1"
   inkscape:vp_y="0 : 1000 : 0"
   inkscape:vp_x="0 : 0.5 : 1"
   sodipodi:type="inkscape:persp3d" />
<clipPath
   clipPathUnits="userSpaceOnUse"
   id="clipPath2860">
  <path
     d="m 533.165,731.751 42.113,0 0,36.975 -42.113,0 0,-36.975 z"
     id="path2862" />
</clipPath>
<inkscape:perspective
   id="perspective6281"
   inkscape:persp3d-origin="0.5 : 0.33333333 : 1"
   inkscape:vp_z="1 : 0.5 : 1"
   inkscape:vp_y="0 : 1000 : 0"
   inkscape:vp_x="0 : 0.5 : 1"
   sodipodi:type="inkscape:persp3d" />
<clipPath
   clipPathUnits="userSpaceOnUse"
   id="clipPath3080">
  <path
     d="m 20.045,674.69 42.114,0 0,36.975 -42.114,0 0,-36.975 z"
     id="path3082" />
</clipPath>
<inkscape:perspective
   id="perspective6343"
   inkscape:persp3d-origin="0.5 : 0.33333333 : 1"
   inkscape:vp_z="1 : 0.5 : 1"
   inkscape:vp_y="0 : 1000 : 0"
   inkscape:vp_x="0 : 0.5 : 1"
   sodipodi:type="inkscape:persp3d" />
<clipPath
   clipPathUnits="userSpaceOnUse"
   id="clipPath2964">
  <path
     d="m 77.057,674.69 42.114,0 0,36.975 -42.114,0 0,-36.975 z"
     id="path2966" />
</clipPath>
<inkscape:perspective
   id="perspective6432"
   inkscape:persp3d-origin="0.5 : 0.33333333 : 1"
   inkscape:vp_z="1 : 0.5 : 1"
   inkscape:vp_y="0 : 1000 : 0"
   inkscape:vp_x="0 : 0.5 : 1"
   sodipodi:type="inkscape:persp3d" />
<clipPath
   clipPathUnits="userSpaceOnUse"
   id="clipPath3256">
  <path
     d="m 134.072,674.69 42.114,0 0,36.975 -42.114,0 0,-36.975 z"
     id="path3258" />
</clipPath>
</defs>
  <sodipodi:namedview
     id="base"
     pagecolor="#ffffff"
     bordercolor="#666666"
     borderopacity="1.0"
     inkscape:pageopacity="0.0"
     inkscape:pageshadow="2"
     inkscape:zoom="0.83535156"
     inkscape:cx="748.61453"
     inkscape:cy="161.94933"
     inkscape:document-units="px"
     inkscape:current-layer="layer1"
     showgrid="false"
     inkscape:window-width="1600"
     inkscape:window-height="838"
     inkscape:window-x="-8"
     inkscape:window-y="-8"
     inkscape:window-maximized="1"
     showguides="true"
     inkscape:guide-bbox="true" />
  <metadata
     id="metadata5326">
    <rdf:RDF>
      <cc:Work
         rdf:about="">
        <dc:format>image/svg+xml</dc:format>
        <dc:type
           rdf:resource="http://purl.org/dc/dcmitype/StillImage" />
        <dc:title></dc:title>
      </cc:Work>
    </rdf:RDF>
  </metadata>
  <g
     inkscape:label="Livello 1"
     inkscape:groupmode="layer"
     id="layer1"
     transform="translate(190.28609,-157.71711)"><path
   id="path4208"
   style="fill:#ffffff;fill-opacity:1;fill-rule:nonzero;stroke:none"
   d="m -187.8599,499.88929 c -3.40816,-5.44927 -3.05691,-12.59787 0,-17.70537 L -6.0404704,166.90493 c 3.3986715,-5.43977 9.1897039,-9.18971 15.6547745,-9.18971 6.4650709,0 12.2561029,3.74994 15.3225019,8.85744 L 207.08851,481.84215 c 3.0664,5.44927 3.39867,12.59787 0,18.04714 -3.0664,5.79103 -9.18971,9.1992 -15.3225,9.1992 l -364.30341,0 c -6.1328,0 -12.26559,-3.40817 -15.3225,-9.1992" />
<g
   id="g4210"
   transform="matrix(9.4934957,0,0,-9.4934957,-187.8599,499.88929)"
   style="fill:#ed171f;fill-opacity:1">
  <path
     d="m 0,0 c -0.359,0.574 -0.322,1.327 0,1.865 l 19.152,33.21 c 0.358,0.573 0.968,0.968 1.649,0.968 0.681,0 1.291,-0.395 1.614,-0.933 L 41.602,1.901 C 41.925,1.327 41.96,0.574 41.602,0 41.279,-0.61 40.634,-0.969 39.988,-0.969 l -38.374,0 C 0.968,-0.969 0.322,-0.61 0,0 M 35.47,3.551 20.801,28.942 6.133,3.551 l 29.337,0 z"
     style="fill:#ed171f;fill-opacity:1;fill-rule:nonzero;stroke:none"
     id="path4212" />
</g>
<g
   inkscape:label="Ebene 1"
   inkscape:groupmode="layer"
   transform="translate(-501.54702,586.32528)"
   id="layer1-0" />

	
	
<g
   id="g6544"
   transform="translate(-459.6867,22.744915)">
  <path
     d="m 396.94858,327.60077 18.35349,0 c 1.36482,0 2.7201,0.67764 3.40728,2.38605 l 12.23566,30.25511 -53.0371,0 -13.25689,23.11604 35.01766,0 c 4.07537,0 6.46142,2.7201 6.46142,6.45188 l 0,11.22398 c 0,4.08491 -2.38605,6.46142 -6.46142,6.46142 l -48.96174,0 -7.12951,12.57925 75.46597,0 0,17.33226 c 0,4.08492 2.38605,6.47097 6.46142,6.47097 l 12.92284,0 c 4.07537,0 6.45188,-2.38605 6.45188,-6.47097 l 0,-17.33226 c 6.11783,0 11.22398,-4.76255 11.22398,-11.55802 l 0,-36.71653 c 0,-6.46142 -4.41897,-11.22398 -11.22398,-11.55802 l -15.2898,-38.4154 c -2.04246,-4.76255 -4.7721,-6.80501 -9.52511,-6.80501 l -15.64294,0 -7.47311,12.57925 z"
     style="fill:#000000;fill-opacity:1;fill-rule:nonzero;stroke:none"
     id="path3266" />
  <path
     d="m 444.54644,383.01915 c 0,7.13906 -5.77424,12.57925 -12.9133,12.57925 -6.80501,0 -12.5888,-5.44019 -12.5888,-12.57925 0,-7.13906 5.78379,-12.9133 12.5888,-12.9133 7.13906,0 12.9133,5.77424 12.9133,12.9133"
     style="fill:#ffffff;fill-opacity:1;fill-rule:nonzero;stroke:none"
     id="path3270" />
  <path
     d="m 555.03771,423.13628 -3.74133,-15.29935 10.88039,-10.88038 12.57925,3.39773 6.46142,12.92284 -3.05414,8.16029 -14.9653,4.08492 -8.16029,-2.38605 z"
     style="fill:#000000;fill-opacity:1;fill-rule:nonzero;stroke:none"
     id="path3274" />
  <path
     d="m 508.80085,378.59733 12.57925,15.29935 16.32058,-9.51557 4.76255,-7.4731 -0.68718,-16.32058 -11.55802,-7.1486 -18.01945,0 -3.39773,25.1585 z"
     style="fill:#000000;fill-opacity:1;fill-rule:nonzero;stroke:none"
     id="path3278" />
  <path
     d="m 549.2587,421.77623 -3.06369,-10.88039 -85.67826,28.2222 88.74195,-17.34181 z"
     style="fill:#000000;fill-opacity:1;fill-rule:nonzero;stroke:none"
     id="path3282" />
  <path
     d="m 513.90031,393.21904 -7.48265,-8.16029 -43.85559,47.59691 51.33824,-39.43662 z"
     style="fill:#000000;fill-opacity:1;fill-rule:nonzero;stroke:none"
     id="path3286" />
</g>
</g>
</svg>
