<?xml version="1.0" encoding="UTF-8" standalone="no"?>
<!-- Created with Inkscape (http://www.inkscape.org/) -->

<svg
   xmlns:dc="http://purl.org/dc/elements/1.1/"
   xmlns:cc="http://creativecommons.org/ns#"
   xmlns:rdf="http://www.w3.org/1999/02/22-rdf-syntax-ns#"
   xmlns:svg="http://www.w3.org/2000/svg"
   xmlns="http://www.w3.org/2000/svg"
   xmlns:sodipodi="http://sodipodi.sourceforge.net/DTD/sodipodi-0.dtd"
   xmlns:inkscape="http://www.inkscape.org/namespaces/inkscape"
   width="699.16565"
   height="334.13165"
   id="svg52502"
   version="1.1"
   inkscape:version="0.48.1 "
   sodipodi:docname="E20-DK.svg">
  <defs
     id="defs52504" />
  <sodipodi:namedview
     id="base"
     pagecolor="#ffffff"
     bordercolor="#666666"
     borderopacity="1.0"
     inkscape:pageopacity="0.0"
     inkscape:pageshadow="2"
     inkscape:zoom="0.35"
     inkscape:cx="392.62428"
     inkscape:cy="182.84432"
     inkscape:document-units="px"
     inkscape:current-layer="layer1"
     showgrid="false"
     fit-margin-top="0"
     fit-margin-left="0"
     fit-margin-right="0"
     fit-margin-bottom="0"
     inkscape:window-width="1680"
     inkscape:window-height="994"
     inkscape:window-x="-4"
     inkscape:window-y="-4"
     inkscape:window-maximized="1" />
  <metadata
     id="metadata52507">
    <rdf:RDF>
      <cc:Work
         rdf:about="">
        <dc:format>image/svg+xml</dc:format>
        <dc:type
           rdf:resource="http://purl.org/dc/dcmitype/StillImage" />
        <dc:title></dc:title>
      </cc:Work>
    </rdf:RDF>
  </metadata>
  <g
     inkscape:label="Ebene 1"
     inkscape:groupmode="layer"
     id="layer1"
     transform="translate(-530.23286,-403.932)">
    <g
       id="g51356"
       transform="matrix(49.443758,0,0,49.443758,23206.796,-3549.0344)">
      <g
         transform="translate(0,5.7768139)"
         id="g51314">
        <g
           id="g51316"
           transform="matrix(1.25,0,0,-1.25,-457.97442,74.323337)"
           style="fill:#009036;fill-opacity:1;stroke:#009036;stroke-opacity:1">
          <path
             inkscape:connector-curvature="0"
             d="m 0,0 10.26,0 c 0.222,0 0.406,-0.189 0.406,-0.422 l 0,-4.318 c 0,-0.235 -0.184,-0.424 -0.406,-0.424 l -10.26,0 c -0.225,0 -0.408,0.189 -0.408,0.424 l 0,4.318 C -0.408,-0.189 -0.225,0 0,0 z"
             style="fill:#009036;fill-opacity:1;stroke:#009036;stroke-width:0.252;stroke-linecap:butt;stroke-linejoin:miter;stroke-miterlimit:10;stroke-opacity:1;stroke-dasharray:none"
             id="path51318" />
        </g>
        <g
           id="g51320"
           transform="matrix(1.25,0,0,-1.25,-458.02067,74.617707)">
          <path
             inkscape:connector-curvature="0"
             d="m 0,0 10.332,0 c 0.086,0 0.156,-0.07 0.156,-0.154 l 0,-4.387 c 0,-0.084 -0.07,-0.152 -0.156,-0.152 L 0,-4.693 c -0.086,0 -0.156,0.068 -0.156,0.152 l 0,4.387 C -0.156,-0.07 -0.086,0 0,0 z"
             style="fill:none;stroke:#ffffff;stroke-width:0.303;stroke-linecap:butt;stroke-linejoin:miter;stroke-miterlimit:10;stroke-opacity:1;stroke-dasharray:none"
             id="path51322" />
        </g>
      </g>
      <g
         transform="translate(-0.36041,-8.0829721)"
         id="g51274">
        <g
           id="g22291"
           transform="matrix(1.25,0,0,-1.25,-455.86021,89.627123)">
          <path
             inkscape:connector-curvature="0"
             d="m 0,0 1.686,0 0,-0.45 -1.113,0 0,-0.703 1.018,0 0,-0.45 -1.018,0 0,-0.801 1.12,0 0,-0.45 L 0,-2.854 0,0 z"
             style="fill:#ffffff;fill-opacity:1;fill-rule:nonzero;stroke:none"
             id="path22293" />
        </g>
        <g
           id="g22295"
           transform="matrix(1.25,0,0,-1.25,-447.26031,90.730623)">
          <path
             inkscape:connector-curvature="0"
             d="m 0,0 c 0,0.27 -0.115,0.506 -0.396,0.506 -0.267,0 -0.377,-0.257 -0.377,-0.51 0,-0.279 0.115,-0.536 0.388,-0.536 C -0.106,-0.54 0,-0.286 0,0 m -1.129,-1.455 c 0.151,-0.066 0.307,-0.115 0.499,-0.115 0.495,0 0.663,0.458 0.679,0.883 l -0.008,0.008 c -0.135,-0.2 -0.311,-0.286 -0.553,-0.286 -0.54,0 -0.834,0.343 -0.834,0.871 0,0.617 0.303,1.026 0.95,1.026 0.792,0 0.968,-0.658 0.968,-1.328 0,-0.773 -0.249,-1.624 -1.174,-1.624 -0.209,0 -0.404,0.033 -0.601,0.102 l 0.074,0.463 z m -2.455,0.016 c 0.197,-0.078 0.409,-0.131 0.635,-0.131 0.237,0 0.6,0.115 0.6,0.404 0,0.336 -0.264,0.446 -0.63,0.446 l -0.277,0 0,0.45 0.262,0 c 0.385,0 0.633,0.127 0.633,0.376 0,0.286 -0.233,0.376 -0.491,0.376 -0.224,0 -0.441,-0.053 -0.642,-0.151 l -0.031,0.458 c 0.228,0.089 0.502,0.143 0.796,0.143 0.352,0 0.942,-0.122 0.942,-0.732 0,-0.388 -0.242,-0.572 -0.532,-0.682 l 0,-0.009 c 0.364,-0.049 0.544,-0.331 0.544,-0.678 0,-0.679 -0.618,-0.851 -1.092,-0.851 -0.25,0 -0.536,0.033 -0.75,0.094 l 0.033,0.487 z"
             style="fill:#ffffff;fill-opacity:1;fill-rule:nonzero;stroke:none"
             id="path22297" />
        </g>
      </g>
    </g>
  </g>
</svg>
